<?xml version="1.0" standalone="no"?>
<!DOCTYPE svg PUBLIC "-//W3C//DTD SVG 20010904//EN"
 "http://www.w3.org/TR/2001/REC-SVG-20010904/DTD/svg10.dtd">
<svg version="1.0" xmlns="http://www.w3.org/2000/svg"
 width="414.000000pt" height="390.000000pt" viewBox="0 0 414.000000 390.000000"
 preserveAspectRatio="xMidYMid meet">

<g transform="translate(0.000000,390.000000) scale(0.100000,-0.100000)"
fill="#000000" stroke="none">
<path d="M2124 3553 c-11 -11 -44 -60 -74 -108 -30 -49 -70 -110 -87 -138 -39
-57 -41 -67 -11 -41 19 17 21 17 15 2 -10 -28 8 -21 24 9 8 15 23 38 34 51 11
13 20 27 21 30 2 35 21 82 40 105 13 16 24 33 24 38 0 5 6 9 14 9 28 0 27 -37
0 -87 -18 -32 -22 -43 -10 -34 21 18 23 15 29 -36 2 -26 0 -44 -7 -47 -6 -2
-4 -5 5 -5 20 -1 25 -13 34 -75 6 -37 4 -46 -8 -46 -8 0 -17 -9 -20 -21 -8
-31 4 -91 17 -84 6 3 18 8 28 11 20 7 27 33 17 59 -11 28 -11 65 0 65 5 0 16
-19 24 -42 8 -24 29 -86 47 -138 18 -52 35 -110 37 -127 3 -18 9 -33 13 -33
16 0 18 45 3 79 -9 20 -15 40 -14 44 1 4 -6 15 -14 24 -9 8 -14 18 -11 21 8 8
56 -46 56 -63 0 -8 5 -17 11 -21 13 -8 4 -214 -9 -223 -5 -3 -12 -36 -16 -72
-11 -116 -45 -196 -54 -129 -2 14 -9 32 -16 40 -7 8 -18 33 -24 55 -6 23 -21
51 -32 63 -12 12 -18 26 -15 31 3 5 1 12 -5 16 -5 3 -10 15 -10 26 0 11 -7 28
-16 36 -9 9 -13 25 -10 36 5 22 -9 57 -24 57 -5 0 -12 -9 -15 -20 -11 -34 -28
-23 -21 14 4 20 2 37 -4 41 -6 3 -8 10 -5 15 3 5 0 12 -6 15 -6 4 -13 -2 -16
-14 -6 -25 -30 -28 -35 -5 -2 10 -15 18 -33 20 -21 2 -25 0 -15 -6 12 -8 12
-11 -3 -28 -24 -27 -21 -33 10 -17 15 8 30 12 34 9 17 -10 -8 -139 -31 -169
-5 -5 -11 -23 -13 -40 -17 -92 -43 -163 -81 -216 -42 -59 -64 -70 -86 -44 -9
10 -9 15 -1 15 16 0 13 27 -4 34 -8 3 -15 15 -15 26 0 11 7 20 15 20 8 0 15 5
15 10 0 6 -7 10 -15 10 -16 0 -21 16 -7 22 4 2 6 27 4 56 -3 36 -8 52 -18 52
-11 0 -13 -12 -10 -50 2 -28 -3 -79 -10 -113 -8 -38 -9 -66 -3 -72 15 -15 11
-25 -10 -25 -28 0 -37 -20 -12 -27 13 -3 21 -13 21 -25 0 -17 -3 -18 -15 -8
-9 8 -15 8 -15 2 0 -6 6 -12 13 -15 8 -3 6 -11 -8 -27 l-20 -23 22 11 c12 7
24 17 27 24 3 7 4 -3 3 -22 -1 -23 -7 -35 -17 -35 -20 0 -29 -13 -23 -36 5
-17 6 -17 24 4 14 16 17 17 13 5 -3 -10 -2 -18 4 -18 10 0 8 -84 -4 -114 -4
-11 -2 -21 6 -26 10 -6 9 -9 -1 -12 -11 -4 -11 -10 -2 -31 9 -20 9 -35 1 -59
-13 -40 -28 -59 -28 -35 0 9 -4 17 -10 17 -5 0 -10 -16 -10 -36 0 -20 4 -33
10 -29 14 8 0 -58 -14 -67 -14 -10 -38 -10 -33 0 5 9 -30 42 -37 34 -12 -11
-6 -33 7 -26 6 4 4 -1 -5 -12 -22 -25 -22 -31 -4 -59 10 -15 12 -26 6 -30 -6
-3 -10 -19 -10 -35 0 -22 5 -29 22 -32 14 -2 25 -13 29 -28 6 -21 7 -18 8 15
1 22 10 54 21 70 11 17 20 40 20 52 0 12 5 25 11 28 6 4 8 14 5 22 -4 9 -1 22
5 29 7 8 13 24 14 37 5 34 12 68 25 117 7 25 14 52 15 60 2 8 4 15 5 15 1 0 3
16 4 35 1 20 6 42 10 49 5 8 3 17 -5 22 -11 7 -9 9 6 9 17 1 16 4 -10 25 -21
18 -25 25 -14 25 20 0 33 27 16 33 -7 2 -8 8 -4 13 4 4 17 3 27 -4 31 -19 39
-15 51 31 6 23 16 51 22 62 6 11 12 22 12 25 1 3 5 23 10 45 4 22 14 51 21 65
27 51 64 137 65 151 1 21 33 72 48 77 8 3 11 0 7 -6 -7 -12 32 -57 49 -57 5 0
11 -8 13 -17 2 -10 -1 -18 -7 -18 -6 0 -11 -5 -11 -11 0 -5 8 -9 18 -7 35 5
58 -26 25 -35 -17 -4 -17 -5 0 -6 10 0 15 -6 12 -11 -4 -6 -1 -17 5 -25 7 -9
8 -15 2 -15 -5 0 -12 -7 -15 -14 -4 -9 -1 -13 6 -11 17 6 56 -26 61 -50 2 -11
7 -27 11 -36 4 -11 -1 -18 -17 -23 -23 -7 -23 -7 5 -18 15 -5 24 -14 21 -19
-3 -6 0 -17 8 -26 18 -22 19 -303 1 -303 -7 0 -13 5 -13 10 0 6 -5 10 -11 10
-8 0 -8 -4 0 -14 6 -7 9 -20 6 -28 -4 -9 1 -18 9 -21 9 -4 16 -15 16 -26 0
-11 10 -36 22 -57 l21 -36 -23 7 c-19 6 -22 4 -17 -10 4 -9 5 -26 2 -38 -5
-19 -14 -22 -73 -25 -37 -1 -71 -7 -76 -12 -5 -5 -1 -7 10 -4 11 3 33 -2 49
-10 16 -8 32 -12 35 -7 8 14 70 24 70 12 0 -6 -4 -11 -10 -11 -5 0 -10 -5 -10
-11 0 -5 10 -9 23 -7 16 2 22 -2 22 -15 0 -10 8 -24 18 -31 9 -7 17 -23 17
-35 0 -11 5 -20 12 -19 6 2 15 -8 19 -22 4 -14 7 -19 8 -12 1 6 7 12 14 12 19
0 60 -47 52 -59 -3 -7 2 -11 14 -11 12 0 21 -4 21 -10 0 -5 7 -10 15 -10 8 0
21 -16 29 -35 8 -19 19 -35 23 -34 20 5 61 -23 101 -65 23 -26 42 -50 42 -53
0 -3 11 -14 25 -25 14 -11 25 -24 25 -30 0 -6 6 -19 14 -27 8 -9 18 -28 21
-44 7 -26 6 -27 -19 -17 -15 5 -37 9 -49 9 -22 -1 -159 7 -267 15 -30 2 -58 0
-61 -6 -4 -5 -13 -3 -23 7 -9 9 -22 18 -29 19 -6 1 -18 5 -26 10 -9 6 -18 3
-28 -9 -12 -18 -13 -18 -13 -1 0 13 -5 16 -22 10 -13 -4 -43 -8 -68 -10 -25
-1 -47 -3 -50 -4 -3 -1 -17 -1 -31 0 -15 1 -55 -4 -90 -10 -93 -17 -208 -18
-254 -2 -67 23 -147 33 -162 21 -9 -9 -19 -7 -38 5 -14 9 -25 12 -25 6 0 -5 5
-10 10 -10 6 0 10 -5 10 -11 0 -7 -9 -9 -21 -6 -12 3 -30 0 -41 -6 -16 -9 -22
-9 -25 1 -4 10 -8 10 -20 0 -18 -14 -192 -19 -211 -5 -8 6 -12 38 -12 93 0 62
-4 87 -16 98 -8 9 -11 16 -6 16 6 0 9 61 8 153 -2 150 6 207 27 207 7 0 7 4
-1 12 -22 22 -14 48 13 48 14 0 25 4 25 10 0 16 -38 31 -64 24 -23 -5 -24 -3
-28 48 -2 29 2 91 10 138 12 76 24 266 23 345 -1 19 2 25 7 17 6 -9 33 8 98
63 67 56 95 74 112 71 19 -3 23 0 19 15 -3 12 0 19 9 19 8 0 18 10 23 23 5 12
12 20 17 17 5 -2 15 7 22 22 7 15 26 38 42 52 17 13 30 31 30 38 0 8 9 23 19
35 23 24 51 77 51 95 -1 7 -10 2 -21 -12 -12 -14 -40 -45 -63 -70 -22 -25 -53
-63 -67 -85 -35 -53 -124 -143 -177 -179 -24 -17 -49 -37 -55 -46 -15 -21 -54
-42 -60 -33 -8 13 -5 93 3 93 14 0 20 32 9 46 -9 11 -9 18 0 28 8 9 10 33 6
66 -3 29 -6 87 -7 129 0 47 -6 84 -14 96 -8 11 -14 33 -14 50 0 45 -13 60 -34
40 -10 -11 -13 -21 -8 -29 18 -23 23 -86 22 -325 0 -214 -2 -247 -16 -263 -10
-10 -23 -18 -30 -18 -16 0 -120 -103 -143 -142 -20 -32 -109 -128 -119 -128
-7 0 -109 -103 -165 -167 -45 -52 -25 -50 24 1 23 25 48 46 55 46 7 0 16 9 19
20 3 11 13 20 21 20 8 0 14 4 14 10 0 5 35 46 78 91 42 44 81 88 86 97 24 47
149 152 163 138 3 -2 7 -43 10 -89 4 -63 0 -110 -16 -191 -17 -79 -20 -115
-13 -135 13 -38 4 -79 -22 -93 -31 -17 -382 -33 -401 -19 -5 5 -27 11 -47 15
-34 6 -55 26 -27 26 5 0 8 4 4 9 -9 16 -19 254 -19 459 1 105 -3 192 -7 192
-4 0 -8 -17 -9 -37 -6 -130 -4 -125 -26 -96 -18 26 -25 12 -13 -28 6 -20 7
-71 4 -126 -5 -65 -4 -93 4 -93 6 0 11 -10 10 -22 0 -13 -3 -17 -6 -10 -2 6
-9 12 -15 12 -7 0 -8 -44 -4 -127 7 -150 7 -150 6 -362 -1 -91 -7 -200 -14
-243 -8 -47 -10 -98 -5 -126 10 -66 3 -182 -17 -282 -12 -58 -17 -125 -16
-213 1 -105 -1 -129 -14 -134 -11 -4 -12 -9 -3 -19 11 -14 3 -74 -10 -74 -4 0
-12 5 -19 12 -9 9 -12 9 -12 -2 0 -13 49 -45 56 -37 1 1 13 24 26 51 l25 49
74 -2 c41 -1 88 3 103 9 23 8 31 8 37 -2 5 -7 4 -14 -1 -16 -12 -4 -13 -32 -2
-32 5 0 18 14 30 30 l23 30 -21 0 c-12 0 -18 5 -15 10 3 6 22 10 41 10 28 0
34 -4 32 -18 -3 -16 8 -17 138 -13 98 2 143 0 148 -8 4 -7 0 -11 -12 -11 -13
0 -22 -9 -26 -26 -8 -31 -8 -31 19 -34 40 -4 47 -1 40 21 -5 15 -4 19 4 15 7
-4 11 1 11 13 0 23 5 24 110 24 82 0 353 -14 369 -19 8 -2 11 -12 8 -24 -3
-11 -1 -23 4 -26 5 -3 7 -9 4 -14 -3 -4 1 -20 9 -34 13 -25 14 -26 19 -6 3 14
12 20 24 18 15 -2 18 4 18 39 0 22 3 44 6 48 4 3 71 8 150 10 79 2 187 6 239
10 174 12 155 17 153 -37 -2 -27 2 -48 7 -48 6 0 10 3 11 8 4 45 11 78 19 86
14 14 230 -8 241 -25 7 -11 9 -11 9 -1 0 14 74 12 149 -4 24 -5 32 -3 27 5 -5
8 12 11 59 11 47 0 65 -4 64 -12 -1 -7 0 -20 4 -28 10 -28 18 -95 17 -142 l-1
-47 32 4 c17 2 32 5 34 7 1 2 -2 34 -7 73 -6 46 -6 77 1 92 l10 22 43 -19 c24
-11 53 -20 64 -20 12 0 27 -6 33 -14 11 -13 50 -21 161 -33 30 -3 60 -10 67
-15 7 -5 14 -5 18 2 9 15 45 12 50 -5 17 -52 14 -50 32 -33 33 34 -13 74 -95
82 -68 7 -78 13 -56 37 15 17 15 19 1 19 -18 0 -87 62 -87 78 0 7 -11 19 -25
28 -18 12 -24 22 -20 35 4 11 2 19 -3 19 -10 0 -51 79 -73 137 -6 18 -15 30
-20 27 -5 -3 -9 4 -9 14 0 11 -6 24 -13 30 -7 6 -24 34 -37 62 -13 27 -27 50
-32 50 -4 0 -8 6 -8 14 0 8 -6 16 -12 19 -10 4 -10 7 0 18 13 14 17 61 5 73
-4 3 -6 28 -6 54 1 26 -3 52 -8 59 -7 7 -6 13 1 18 5 3 10 23 10 44 0 21 3 41
7 45 8 8 10 18 22 106 7 53 6 68 -7 83 -18 20 -5 22 21 3 9 -7 17 -21 17 -30
0 -10 25 -74 56 -144 31 -70 65 -154 76 -187 10 -33 28 -79 39 -102 10 -24 19
-48 19 -53 0 -6 9 -32 21 -58 11 -26 24 -56 29 -67 4 -11 14 -42 20 -70 7 -27
18 -63 25 -80 19 -42 65 -187 65 -205 1 -19 28 -55 36 -48 3 4 1 16 -5 27 -6
11 -14 46 -17 78 -3 32 -9 62 -13 68 -12 15 -41 111 -41 133 0 10 -8 27 -19
36 -16 14 -37 84 -33 108 1 3 -12 36 -28 72 -17 36 -30 71 -30 78 0 7 -6 24
-13 38 -7 14 -18 45 -26 70 -7 25 -16 56 -20 70 -4 14 -13 24 -20 22 -9 -2
-11 3 -7 13 3 8 -10 48 -28 88 -51 107 -66 147 -66 172 0 13 -7 25 -15 29 -39
14 -7 25 79 25 51 0 103 4 116 9 12 5 42 5 67 2 24 -4 46 -4 48 0 3 4 17 10
32 13 16 3 39 8 51 12 21 7 23 5 20 -15 -2 -19 3 -25 27 -31 40 -11 53 3 38
41 -6 16 -8 32 -4 35 8 4 2 65 -6 65 -2 0 -13 -4 -23 -10 -15 -8 -28 0 -74 45
-30 30 -58 55 -61 55 -3 0 -40 34 -83 76 -42 42 -97 95 -121 117 -24 23 -61
70 -83 105 -22 34 -53 69 -69 77 l-28 15 5 130 c2 73 0 130 -5 130 -5 0 -11
-28 -13 -62 -3 -35 -10 -64 -16 -66 -7 -2 -12 -8 -12 -13 0 -6 4 -8 9 -5 11 7
22 -19 13 -29 -4 -3 -7 -14 -7 -22 0 -9 -6 -18 -14 -21 -8 -3 -11 0 -7 6 3 6
-7 16 -24 24 -16 7 -30 19 -30 26 0 7 -7 15 -15 18 -8 4 -15 13 -15 21 0 8
-13 28 -30 45 -16 16 -30 34 -30 38 0 14 -42 51 -68 61 -13 5 -20 13 -17 19 3
5 -5 12 -18 16 -14 3 -43 27 -66 52 -23 26 -53 59 -66 74 -14 15 -30 39 -35
54 -6 15 -13 24 -16 21 -5 -5 -25 14 -63 59 -6 7 -18 27 -28 45 -17 32 -40 62
-70 94 -7 8 -13 20 -13 27 0 7 -6 22 -13 33 -8 11 -24 58 -36 105 -13 47 -28
94 -35 105 -7 11 -25 58 -41 105 -15 47 -34 98 -40 114 -12 29 -12 29 -31 9z
m49 -134 c3 -13 1 -19 -6 -16 -15 5 -22 37 -9 37 5 0 12 -9 15 -21z m31 -81
c24 -54 38 -98 30 -98 -6 0 -64 126 -64 139 0 22 10 10 34 -41z m-14 -209 c0
-20 -4 -29 -12 -27 -15 5 -22 33 -14 54 9 24 26 6 26 -27z m253 -255 c35 -67
236 -283 264 -284 4 -1 35 -39 68 -85 92 -130 96 -135 108 -135 8 0 12 -19 13
-50 1 -27 7 -56 14 -65 7 -9 10 -27 7 -44 -4 -17 -2 -31 4 -33 18 -6 26 -79
25 -218 -1 -100 -4 -135 -13 -136 -26 -3 -28 -5 -11 -18 24 -18 40 -64 29 -84
-4 -9 -5 -48 -1 -87 5 -38 5 -74 1 -80 -4 -5 -7 -28 -6 -50 1 -22 -2 -49 -8
-60 -12 -23 -11 -97 1 -205 6 -52 6 -77 -2 -82 -6 -4 -14 0 -19 8 -5 8 -12 12
-18 9 -16 -10 -10 -25 15 -36 13 -6 34 -30 46 -53 72 -130 100 -193 98 -221
-1 -16 4 -40 10 -52 7 -12 11 -26 11 -30 -1 -4 0 -15 3 -23 15 -42 26 -106 20
-112 -4 -4 -36 8 -72 25 -58 29 -74 32 -145 30 -173 -3 -402 -6 -430 -4 -24 1
-236 -2 -597 -10 -21 0 -38 -5 -38 -10 0 -6 -10 -9 -22 -7 -13 2 -22 9 -20 16
1 6 -2 12 -8 12 -5 0 -10 -4 -10 -8 0 -4 -16 -8 -35 -8 -19 0 -35 4 -35 9 0 5
-10 3 -22 -5 -15 -10 -42 -14 -78 -12 -30 2 -118 5 -195 8 -228 9 -369 18
-377 23 -5 2 -8 0 -8 -5 0 -11 -97 -15 -104 -4 -3 5 12 27 34 49 28 30 37 47
33 62 -3 12 -1 21 5 21 6 0 24 20 41 45 17 25 26 45 21 45 -16 0 -83 -77 -88
-101 -2 -8 -10 -18 -18 -24 -9 -5 -25 -18 -36 -28 -12 -9 -27 -17 -35 -17 -8
0 -11 -4 -8 -10 3 -5 1 -10 -4 -10 -6 0 -11 5 -11 11 0 5 -15 -1 -32 -14 -18
-14 -44 -28 -58 -31 -20 -6 -22 -5 -10 4 12 10 12 11 -5 5 -11 -3 -40 -10 -65
-15 -72 -13 -76 -2 -27 68 19 26 37 60 41 75 10 41 85 195 99 204 7 4 21 25
32 46 11 20 34 54 52 74 18 20 33 41 33 47 0 14 41 41 58 38 14 -3 16 14 3 23
-6 3 9 35 32 70 81 125 96 150 118 195 46 96 47 94 43 -97 -2 -98 -4 -188 -4
-201 0 -13 -7 -39 -15 -57 -7 -19 -11 -35 -7 -35 4 0 -1 -5 -10 -11 -10 -5
-18 -19 -18 -31 0 -11 -8 -27 -17 -34 -17 -12 -17 -13 0 -19 24 -10 23 -38 -2
-30 -15 4 -21 -1 -30 -26 -6 -18 -11 -38 -11 -45 0 -14 36 -19 64 -8 22 8 20
28 -1 20 -16 -5 -16 -4 1 8 10 8 15 19 12 24 -3 6 2 8 14 5 16 -4 20 0 20 17
0 14 5 20 13 17 8 -3 14 5 15 22 3 42 38 133 55 142 21 12 81 21 147 23 30 1
60 4 65 8 27 16 115 19 145 5 18 -10 32 -12 36 -6 3 6 13 8 21 4 9 -3 24 2 35
12 17 15 21 15 52 1 26 -13 58 -16 145 -13 62 2 115 6 118 9 4 3 12 1 18 -4 9
-7 16 -6 25 5 8 10 18 12 29 6 23 -12 66 -8 63 7 -3 17 8 15 30 -5 18 -16 18
-16 12 0 -8 22 13 22 55 1 27 -13 165 -25 281 -24 8 0 33 -1 55 -1 22 -1 50
-2 63 -2 12 1 22 -4 22 -9 0 -7 5 -6 13 1 8 6 16 9 18 6 3 -2 32 -7 64 -10 33
-4 64 -11 70 -16 16 -16 34 -10 41 15 4 16 -3 37 -20 65 -14 22 -26 46 -26 52
0 6 -8 19 -18 28 -10 9 -24 30 -31 48 -8 19 -25 38 -42 45 -16 7 -31 20 -34
29 -3 9 -24 31 -47 50 -23 19 -58 49 -77 67 -20 19 -46 41 -59 49 -13 9 -21
22 -18 30 3 8 2 12 -3 9 -5 -3 -37 21 -71 54 -62 60 -62 60 -32 60 17 0 33 4
36 9 10 15 -6 43 -20 37 -9 -3 -14 1 -14 12 -1 13 -3 12 -13 -6 -10 -17 -15
-20 -25 -10 -18 18 -14 38 8 38 11 0 20 6 20 14 0 15 53 29 58 15 2 -5 8 -9
13 -9 6 0 7 4 4 10 -3 5 3 20 15 32 11 13 23 33 26 45 3 12 11 20 19 17 7 -3
23 9 35 25 12 17 25 29 30 26 11 -7 -18 -65 -36 -72 -8 -3 -12 -9 -9 -13 7
-11 63 5 85 25 9 8 21 15 27 15 19 0 23 28 5 35 -13 5 -14 8 -3 14 16 10 4 34
-13 28 -6 -3 -20 1 -30 8 -10 8 -24 11 -31 9 -7 -3 -16 4 -20 15 -12 38 -24
22 -21 -26 2 -27 1 -54 -1 -60 -7 -19 -23 -16 -23 3 0 26 -28 -2 -32 -32 -4
-32 -24 -31 -21 2 2 25 -1 27 -30 16 -17 -7 -16 -9 3 -30 11 -12 18 -22 14
-22 -3 0 -1 -6 5 -14 15 -18 -4 -26 -43 -19 -20 4 -25 10 -20 22 11 27 10 54
-3 58 -8 3 -13 -4 -13 -16 0 -12 -4 -21 -10 -21 -5 0 -10 16 -10 36 0 28 3 35
15 30 10 -4 15 1 15 14 0 13 7 20 20 20 11 0 20 6 20 14 0 8 11 17 25 20 17 4
25 13 25 27 0 18 1 19 16 5 14 -14 13 -18 -10 -43 -15 -15 -26 -30 -26 -33 1
-14 20 -33 27 -27 4 5 1 12 -6 16 -11 7 -11 10 0 17 21 14 38 50 33 70 -3 13
3 23 20 30 21 10 28 8 45 -10 12 -12 21 -28 21 -35 0 -8 8 -11 20 -8 11 3 20
1 20 -5 0 -5 5 -6 10 -3 7 4 -2 19 -20 38 -16 17 -30 39 -30 48 0 10 -5 21
-11 24 -6 4 -8 14 -4 22 4 13 3 14 -9 4 -10 -9 -16 -9 -21 -1 -4 6 -14 8 -23
5 -14 -4 -17 2 -17 27 0 24 -6 35 -23 44 -13 6 -23 14 -22 18 1 10 -27 36 -33
30 -3 -3 -3 4 0 17 4 14 1 26 -9 33 -44 32 -79 176 -43 176 8 0 15 5 15 11 0
5 -5 7 -12 3 -8 -5 -9 -2 -3 12 4 10 12 39 17 64 5 25 14 65 19 90 12 53 13
66 3 103 -9 36 20 38 39 1z m-307 -132 c-10 -10 -33 20 -40 53 -7 30 -7 29 19
-8 15 -21 24 -41 21 -45z m174 -262 c0 -5 -5 -10 -11 -10 -5 0 -7 5 -4 10 3 6
8 10 11 10 2 0 4 -4 4 -10z m53 -37 c-3 -7 -10 -13 -15 -13 -6 0 -7 7 -4 16 3
9 6 21 6 27 0 7 4 7 9 -2 5 -8 7 -20 4 -28z m-462 -17 c-7 -8 -17 -33 -24 -56
-14 -48 -33 -50 -31 -2 1 36 1 36 -26 22 -11 -6 -21 -6 -25 -1 -6 11 32 26 58
22 9 -1 20 6 24 16 3 10 11 24 17 32 9 12 12 11 14 -3 2 -9 -1 -23 -7 -30z
m469 -50 c0 -14 -4 -28 -10 -31 -5 -3 -10 0 -10 9 0 8 -3 21 -6 30 -4 11 -1
16 10 16 10 0 16 -9 16 -24z m40 14 c0 -5 -2 -10 -4 -10 -3 0 -8 5 -11 10 -3
6 -1 10 4 10 6 0 11 -4 11 -10z m21 -77 c5 -14 6 -30 3 -35 -5 -7 1 -9 14 -6
28 8 28 -5 0 -25 -19 -14 -21 -18 -8 -26 9 -7 18 -6 27 0 16 14 53 -6 53 -28
0 -13 -3 -13 -15 -3 -22 18 -72 20 -72 3 0 -7 4 -13 9 -13 4 0 8 -14 8 -31 0
-28 -2 -31 -25 -25 -20 5 -25 3 -25 -13 0 -11 -4 -23 -10 -26 -6 -4 -10 6 -10
24 0 37 -15 49 -18 14 -1 -14 -8 -33 -15 -41 -10 -13 -13 -8 -18 29 -4 24 -3
49 1 54 10 12 8 71 -3 81 -12 13 -8 42 8 47 17 7 31 -11 27 -35 -2 -9 2 -19 8
-23 5 -3 10 1 10 9 0 8 10 16 22 18 20 3 21 4 5 19 -9 9 -19 28 -22 42 -6 23
-4 25 15 20 12 -3 26 -17 31 -30z m525 -17 c4 -13 8 -15 14 -7 7 12 13 6 105
-105 22 -26 51 -57 65 -68 14 -11 66 -61 116 -111 50 -49 109 -105 132 -124
53 -44 59 -67 22 -86 -42 -21 -182 -40 -300 -40 l-105 0 -5 35 c-4 20 -10 42
-15 50 -7 12 -17 233 -16 353 0 20 -3 37 -7 37 -11 0 -52 74 -52 94 0 14 3 14
20 4 11 -7 23 -21 26 -32z m-2341 -265 c-2 -36 -4 -68 -5 -71 -5 -10 -17 136
-12 148 11 29 20 -13 17 -77z m1997 6 c-7 -8 -8 -18 -4 -22 4 -5 1 -5 -5 -1
-7 4 -13 13 -13 21 0 7 6 15 13 18 18 6 22 -1 9 -16z m-252 -127 c0 -5 -2 -10
-4 -10 -3 0 -8 5 -11 10 -3 6 -1 10 4 10 6 0 11 -4 11 -10z m-1149 -43 c-13
-13 -26 -3 -16 12 3 6 11 8 17 5 6 -4 6 -10 -1 -17z m-44 -9 c5 -7 10 -30 12
-51 2 -30 -1 -39 -16 -43 -15 -4 -19 -16 -21 -60 -2 -43 -12 -74 -47 -142 -58
-111 -85 -156 -96 -160 -5 -2 -9 -8 -9 -14 0 -15 -60 -101 -84 -120 -11 -9
-21 -23 -21 -30 0 -13 -10 -26 -64 -84 -14 -16 -33 -45 -42 -64 -16 -34 -58
-102 -79 -128 -6 -7 -9 -16 -6 -20 3 -5 -2 -20 -12 -33 -9 -13 -18 -30 -19
-39 -4 -31 -64 -148 -86 -168 -17 -15 -18 -11 -14 118 2 74 10 171 17 215 7
44 14 152 16 240 8 383 14 489 24 495 6 4 13 19 16 35 7 41 8 42 61 36 39 -5
48 -10 48 -25 0 -11 5 -21 12 -23 7 -3 10 3 6 15 -4 15 1 19 29 18 91 0 282
18 315 30 48 17 49 17 60 2z m547 -61 c-8 -21 -32 -21 -58 -2 -15 11 -16 15
-5 19 51 17 74 11 63 -17z m-514 -247 c0 -5 -4 -10 -10 -10 -5 0 -10 5 -10 10
0 6 5 10 10 10 6 0 10 -4 10 -10z m10 -201 c0 -5 -4 -9 -10 -9 -5 0 -10 7 -10
16 0 8 5 12 10 9 6 -3 10 -10 10 -16z m60 -119 c0 -5 -7 -10 -15 -10 -8 0 -15
5 -15 10 0 6 7 10 15 10 8 0 15 -4 15 -10z m1903 -502 c27 -55 51 -92 67 -105
21 -16 9 -24 -27 -17 -40 8 -74 55 -81 110 -6 55 16 60 41 12z m-211 -128 c4
-27 3 -29 -10 -16 -8 8 -12 22 -9 30 9 23 14 20 19 -14z"/>
<path d="M2476 2661 c-3 -4 -8 -34 -12 -65 -6 -50 -5 -56 9 -50 13 4 14 10 7
24 -7 13 -7 21 0 25 5 3 10 16 10 29 0 12 5 27 12 34 9 9 8 12 -4 12 -9 0 -19
-4 -22 -9z"/>
<path d="M2560 2542 c-10 -5 -16 -23 -17 -54 l-2 -48 24 18 c12 9 19 19 15 22
-15 11 -17 36 -2 53 15 17 9 21 -18 9z"/>
<path d="M2740 2451 c0 -6 5 -13 10 -16 6 -3 10 1 10 9 0 9 -4 16 -10 16 -5 0
-10 -4 -10 -9z"/>
<path d="M2450 2441 c0 -5 -3 -16 -6 -25 -5 -13 1 -16 25 -16 17 0 31 5 31 10
0 6 -4 10 -10 10 -5 0 -10 7 -10 15 0 8 -7 15 -15 15 -8 0 -15 -4 -15 -9z"/>
<path d="M2555 2411 c-9 -16 12 -22 39 -11 14 5 26 12 26 15 0 9 -59 5 -65 -4z"/>
<path d="M2720 2399 c0 -14 4 -18 13 -12 6 4 19 8 27 9 8 1 26 2 39 3 39 2 15
15 -34 17 -39 3 -45 0 -45 -17z"/>
<path d="M2800 2369 c0 -5 5 -7 10 -4 6 3 10 8 10 11 0 2 -4 4 -10 4 -5 0 -10
-5 -10 -11z"/>
<path d="M2542 2358 c2 -6 10 -14 16 -16 7 -2 10 2 6 12 -7 18 -28 22 -22 4z"/>
<path d="M2590 2340 c0 -11 7 -20 15 -20 13 0 14 4 5 20 -6 11 -13 20 -15 20
-3 0 -5 -9 -5 -20z"/>
<path d="M2555 2290 c-3 -5 -1 -10 4 -10 6 0 11 5 11 10 0 6 -2 10 -4 10 -3 0
-8 -4 -11 -10z"/>
<path d="M2597 2253 c-12 -12 -7 -22 8 -17 8 4 15 10 15 15 0 11 -14 12 -23 2z"/>
<path d="M2655 2211 c-18 -4 -25 -9 -18 -14 11 -7 63 7 63 18 0 6 -2 5 -45 -4z"/>
<path d="M2650 2119 c0 -5 5 -7 10 -4 6 3 10 8 10 11 0 2 -4 4 -10 4 -5 0 -10
-5 -10 -11z"/>
<path d="M2670 2097 l-25 -10 24 -5 c13 -2 28 1 33 6 15 15 -4 21 -32 9z"/>
<path d="M2870 2050 c0 -5 5 -10 11 -10 5 0 7 5 4 10 -3 6 -8 10 -11 10 -2 0
-4 -4 -4 -10z"/>
<path d="M2470 1914 c0 -14 3 -14 15 -4 8 7 15 14 15 16 0 2 -7 4 -15 4 -8 0
-15 -7 -15 -16z"/>
<path d="M2610 1820 c-24 -8 -23 -8 8 -9 20 -1 31 3 27 9 -3 6 -7 10 -8 9 -1
-1 -13 -5 -27 -9z"/>
<path d="M2675 1820 c-16 -6 -14 -8 13 -12 18 -2 35 -1 37 3 7 10 -28 17 -50
9z"/>
<path d="M2758 1813 c6 -2 18 -2 25 0 6 3 1 5 -13 5 -14 0 -19 -2 -12 -5z"/>
<path d="M2854 1811 c3 -5 15 -7 26 -4 28 7 25 13 -6 13 -14 0 -23 -4 -20 -9z"/>
<path d="M2898 1223 c7 -3 16 -2 19 1 4 3 -2 6 -13 5 -11 0 -14 -3 -6 -6z"/>
<path d="M1640 1200 c0 -5 5 -10 10 -10 6 0 10 5 10 10 0 6 -4 10 -10 10 -5 0
-10 -4 -10 -10z"/>
<path d="M1607 1161 c-3 -14 0 -21 9 -21 16 0 18 9 5 28 -6 10 -10 9 -14 -7z"/>
<path d="M1660 1155 c-7 -9 -11 -18 -8 -20 3 -3 11 1 18 10 7 9 11 18 8 20 -3
3 -11 -1 -18 -10z"/>
<path d="M2935 1050 c3 -5 11 -10 16 -10 6 0 7 5 4 10 -3 6 -11 10 -16 10 -6
0 -7 -4 -4 -10z"/>
<path d="M1011 1018 l-11 -33 20 24 c21 25 26 41 11 41 -5 0 -14 -15 -20 -32z"/>
<path d="M2935 971 c-3 -5 -1 -12 5 -16 5 -3 10 1 10 9 0 18 -6 21 -15 7z"/>
<path d="M1169 968 c-6 -11 -3 -58 3 -58 4 0 6 13 5 30 -2 27 -4 35 -8 28z"/>
<path d="M2937 920 c3 -11 7 -20 9 -20 2 0 4 9 4 20 0 11 -4 20 -9 20 -5 0 -7
-9 -4 -20z"/>
<path d="M2941 844 c0 -11 3 -14 6 -6 3 7 2 16 -1 19 -3 4 -6 -2 -5 -13z"/>
<path d="M2352 830 c0 -14 2 -19 5 -12 2 6 2 18 0 25 -3 6 -5 1 -5 -13z"/>
<path d="M2941 774 c0 -11 3 -14 6 -6 3 7 2 16 -1 19 -3 4 -6 -2 -5 -13z"/>
<path d="M2346 761 c-4 -7 -5 -15 -2 -18 9 -9 19 4 14 18 -4 11 -6 11 -12 0z"/>
<path d="M3190 1961 c0 -5 7 -11 15 -15 9 -3 15 0 15 9 0 8 -7 15 -15 15 -8 0
-15 -4 -15 -9z"/>
<path d="M3306 1867 c3 -10 9 -15 12 -12 3 3 0 11 -7 18 -10 9 -11 8 -5 -6z"/>
<path d="M3060 1810 c0 -5 5 -10 11 -10 5 0 7 5 4 10 -3 6 -8 10 -11 10 -2 0
-4 -4 -4 -10z"/>
<path d="M3200 1810 c0 -5 5 -10 11 -10 5 0 7 5 4 10 -3 6 -8 10 -11 10 -2 0
-4 -4 -4 -10z"/>
<path d="M3310 1810 c0 -5 7 -10 16 -10 8 0 12 5 9 10 -3 6 -10 10 -16 10 -5
0 -9 -4 -9 -10z"/>
<path d="M815 1250 c4 -6 11 -8 16 -5 14 9 11 15 -7 15 -8 0 -12 -5 -9 -10z"/>
<path d="M2064 3336 c-22 -22 -42 -86 -27 -86 4 0 15 4 22 9 9 6 23 6 35 -1
21 -11 21 -11 2 10 -14 16 -17 30 -12 57 8 40 8 40 -20 11z"/>
<path d="M1900 3227 c-8 -7 -28 -29 -43 -50 -20 -27 -34 -36 -46 -32 -18 6
-41 -13 -45 -37 -1 -7 -5 -18 -9 -25 -4 -6 -5 -17 -2 -25 3 -7 -4 -17 -17 -23
-31 -14 -65 -81 -52 -103 16 -24 34 -26 34 -3 0 24 19 62 38 74 6 4 12 17 12
27 0 11 5 20 11 20 8 0 9 -33 5 -112 -8 -130 -9 -139 -19 -155 -5 -7 -4 -13 2
-13 5 0 11 -14 13 -32 2 -18 9 -32 18 -33 12 -2 14 9 12 59 -6 145 -2 227 13
239 6 4 6 10 -2 15 -7 4 -10 23 -8 46 3 37 11 49 83 126 31 34 40 50 25 50 -5
0 -15 -6 -23 -13z"/>
<path d="M1960 3208 c-11 -12 -20 -34 -20 -49 0 -15 -4 -29 -9 -31 -13 -5 -24
-48 -12 -48 6 0 22 25 36 55 17 39 33 59 52 66 26 10 27 12 8 19 -30 13 -32
12 -55 -12z"/>
<path d="M2095 3209 c5 -14 2 -25 -6 -30 -8 -5 -9 -9 -4 -9 17 0 32 14 37 38
5 17 2 22 -14 22 -15 0 -18 -4 -13 -21z"/>
<path d="M2970 3071 c0 -5 5 -13 10 -16 6 -3 10 -2 10 4 0 5 -4 13 -10 16 -5
3 -10 2 -10 -4z"/>
<path d="M2006 3051 c-3 -5 0 -11 8 -14 15 -6 26 1 26 15 0 11 -27 10 -34 -1z"/>
<path d="M2008 3018 c-18 -6 -25 -14 -21 -24 4 -11 9 -12 19 -3 10 8 18 8 27
1 10 -8 13 -6 14 8 2 26 -6 29 -39 18z"/>
<path d="M1880 3010 c0 -5 4 -10 9 -10 6 0 13 5 16 10 3 6 -1 10 -9 10 -9 0
-16 -4 -16 -10z"/>
<path d="M1930 3010 c0 -5 7 -10 15 -10 8 0 15 5 15 10 0 6 -7 10 -15 10 -8 0
-15 -4 -15 -10z"/>
<path d="M2100 3010 c0 -5 5 -10 10 -10 6 0 10 5 10 10 0 6 -4 10 -10 10 -5 0
-10 -4 -10 -10z"/>
<path d="M2973 3002 c-1 -10 8 -22 20 -27 30 -13 35 -60 8 -74 -14 -8 -21 -8
-24 2 -2 6 -5 -32 -5 -86 0 -53 -4 -106 -7 -117 -3 -11 -3 -25 1 -31 12 -19
23 11 17 48 -4 23 -2 33 8 33 9 0 10 3 2 11 -7 7 -8 24 -2 50 5 22 7 45 3 50
-3 6 4 13 16 16 21 6 22 10 17 60 -4 36 -12 60 -24 69 -24 18 -28 17 -30 -4z"/>
<path d="M2220 2950 c0 -5 5 -10 10 -10 6 0 10 5 10 10 0 6 -4 10 -10 10 -5 0
-10 -4 -10 -10z"/>
<path d="M2980 2940 c0 -5 5 -10 11 -10 5 0 7 5 4 10 -3 6 -8 10 -11 10 -2 0
-4 -4 -4 -10z"/>
<path d="M3016 2854 c-8 -20 2 -36 16 -28 6 4 5 10 -3 15 -10 6 -11 9 -1 9 6
0 12 5 12 10 0 16 -17 12 -24 -6z"/>
<path d="M1881 2844 c0 -11 3 -14 6 -6 3 7 2 16 -1 19 -3 4 -6 -2 -5 -13z"/>
<path d="M2170 2849 c0 -5 5 -7 10 -4 6 3 10 8 10 11 0 2 -4 4 -10 4 -5 0 -10
-5 -10 -11z"/>
<path d="M1657 2800 c-9 -35 -9 -78 2 -84 13 -8 21 47 12 80 l-7 29 -7 -25z"/>
<path d="M1885 2757 c-4 -10 -5 -21 -1 -24 10 -10 18 4 13 24 -4 17 -4 17 -12
0z"/>
<path d="M1832 2751 c2 -7 7 -12 11 -12 12 1 9 15 -3 20 -7 2 -11 -2 -8 -8z"/>
<path d="M3030 2739 c0 -5 5 -7 10 -4 6 3 10 8 10 11 0 2 -4 4 -10 4 -5 0 -10
-5 -10 -11z"/>
<path d="M1625 2677 c24 -19 12 -35 -22 -30 -27 4 -27 4 -9 -11 16 -13 17 -19
8 -28 -17 -17 -15 -65 2 -71 10 -4 13 -1 10 7 -3 7 2 16 10 19 9 4 16 11 16
16 0 6 -7 8 -15 5 -10 -4 -15 0 -15 11 0 11 5 15 15 11 20 -7 37 27 29 59 -4
17 -13 25 -27 25 -20 0 -20 -1 -2 -13z"/>
<path d="M1840 2664 c0 -8 5 -12 10 -9 6 3 10 10 10 16 0 5 -4 9 -10 9 -5 0
-10 -7 -10 -16z"/>
<path d="M2960 2624 c0 -8 5 -12 10 -9 6 3 10 10 10 16 0 5 -4 9 -10 9 -5 0
-10 -7 -10 -16z"/>
<path d="M2107 2613 c-4 -3 -7 -13 -7 -21 0 -12 3 -12 15 -2 8 6 19 9 25 5 5
-3 10 1 10 9 0 16 -31 22 -43 9z"/>
<path d="M1425 2591 c-3 -5 -1 -12 5 -16 5 -3 10 1 10 9 0 18 -6 21 -15 7z"/>
<path d="M1840 2574 c0 -8 5 -12 10 -9 6 3 10 10 10 16 0 5 -4 9 -10 9 -5 0
-10 -7 -10 -16z"/>
<path d="M2150 2565 c0 -8 5 -15 10 -15 6 0 10 7 10 15 0 8 -4 15 -10 15 -5 0
-10 -7 -10 -15z"/>
<path d="M1399 2533 c-13 -16 -12 -17 4 -4 9 7 17 15 17 17 0 8 -8 3 -21 -13z"/>
<path d="M1695 2520 c-3 -5 -1 -10 4 -10 6 0 11 5 11 10 0 6 -2 10 -4 10 -3 0
-8 -4 -11 -10z"/>
<path d="M1826 2521 c-4 -5 -2 -12 3 -15 5 -4 12 -2 15 3 4 5 2 12 -3 15 -5 4
-12 2 -15 -3z"/>
<path d="M2180 2504 c0 -8 5 -12 10 -9 6 4 8 11 5 16 -9 14 -15 11 -15 -7z"/>
<path d="M1560 2490 c0 -5 5 -10 11 -10 5 0 7 5 4 10 -3 6 -8 10 -11 10 -2 0
-4 -4 -4 -10z"/>
<path d="M1665 2490 c3 -5 8 -10 11 -10 2 0 4 5 4 10 0 6 -5 10 -11 10 -5 0
-7 -4 -4 -10z"/>
<path d="M1535 2460 c4 -6 11 -8 16 -5 14 9 11 15 -7 15 -8 0 -12 -5 -9 -10z"/>
<path d="M1575 2460 c-3 -5 3 -10 14 -10 12 0 21 5 21 10 0 6 -6 10 -14 10 -8
0 -18 -4 -21 -10z"/>
<path d="M2060 2455 c0 -8 5 -15 10 -15 21 0 9 -20 -12 -21 -22 -1 -22 -1 2
-8 14 -4 34 -5 44 -3 19 5 19 6 -2 20 -12 8 -22 21 -22 28 0 8 -4 14 -10 14
-5 0 -10 -7 -10 -15z"/>
<path d="M1570 2424 c0 -8 9 -14 20 -14 11 0 20 4 20 9 0 5 -9 11 -20 14 -13
3 -20 0 -20 -9z"/>
<path d="M1338 2423 c6 -2 18 -2 25 0 6 3 1 5 -13 5 -14 0 -19 -2 -12 -5z"/>
<path d="M1450 2419 c0 -5 5 -7 10 -4 6 3 10 8 10 11 0 2 -4 4 -10 4 -5 0 -10
-5 -10 -11z"/>
<path d="M1527 2423 c-3 -5 -2 -15 2 -22 7 -10 10 -10 16 -1 4 6 3 16 -3 22
-5 5 -12 6 -15 1z"/>
<path d="M1645 2420 c3 -5 15 -10 26 -10 10 0 19 5 19 10 0 6 -12 10 -26 10
-14 0 -23 -4 -19 -10z"/>
<path d="M1965 2420 c-4 -6 3 -10 14 -10 25 0 27 6 6 13 -8 4 -17 2 -20 -3z"/>
<path d="M2150 2420 c0 -12 26 -19 39 -10 9 5 4 9 -13 12 -14 3 -26 2 -26 -2z"/>
<path d="M3492 2408 c-9 -9 -6 -19 13 -43 15 -21 22 -40 18 -54 -3 -13 -1 -21
6 -21 7 0 9 -5 6 -11 -7 -10 -8 -159 -2 -209 2 -14 -2 -34 -9 -45 -8 -15 -8
-25 1 -43 12 -22 13 -22 18 -3 2 10 0 24 -6 30 -8 8 -8 11 0 11 6 0 13 14 15
30 3 17 1 30 -3 30 -4 0 -3 15 2 33 5 17 10 83 10 144 1 110 0 113 -27 138
-32 29 -27 28 -42 13z"/>
<path d="M2212 2233 c-7 -31 -7 -50 -1 -54 6 -3 7 -19 4 -35 -5 -24 -4 -26 5
-11 12 19 20 147 9 147 -4 0 -12 -21 -17 -47z"/>
<path d="M1275 2240 c3 -5 8 -10 11 -10 2 0 4 5 4 10 0 6 -5 10 -11 10 -5 0
-7 -4 -4 -10z"/>
<path d="M1566 2214 c-6 -16 2 -18 22 -5 11 7 11 9 -1 14 -9 3 -18 -1 -21 -9z"/>
<path d="M1714 2193 c2 -9 8 -19 14 -21 14 -4 15 0 6 22 -8 21 -23 20 -20 -1z"/>
<path d="M1546 2158 c-6 -28 -2 -48 8 -37 8 10 15 69 7 69 -5 0 -11 -14 -15
-32z"/>
<path d="M1500 2170 c0 -5 5 -10 11 -10 5 0 7 5 4 10 -3 6 -8 10 -11 10 -2 0
-4 -4 -4 -10z"/>
<path d="M1690 2150 c0 -5 5 -10 10 -10 6 0 10 5 10 10 0 6 -4 10 -10 10 -5 0
-10 -4 -10 -10z"/>
<path d="M1676 2088 c-3 -18 -1 -49 4 -68 l8 -35 -1 37 c0 21 6 45 15 55 17
20 14 43 -7 43 -7 0 -15 -15 -19 -32z"/>
<path d="M1732 2020 c0 -14 2 -19 5 -12 2 6 2 18 0 25 -3 6 -5 1 -5 -13z"/>
<path d="M2186 2004 c-9 -23 -8 -24 14 -24 24 0 25 6 6 25 -12 12 -15 12 -20
-1z"/>
<path d="M1660 1963 c0 -5 4 -14 9 -21 7 -11 9 -11 14 1 3 8 3 18 0 21 -9 8
-23 7 -23 -1z"/>
<path d="M2220 1958 c0 -18 27 -44 37 -34 4 4 -3 16 -15 29 -18 17 -22 18 -22
5z"/>
<path d="M3510 1968 c-1 -5 -3 -20 -5 -35 -1 -16 -3 -34 -6 -42 -2 -7 2 -16 9
-18 6 -3 12 3 12 12 0 9 5 13 10 10 12 -8 13 18 1 31 -5 5 -11 18 -14 29 -3
11 -6 17 -7 13z"/>
<path d="M1580 1905 c-11 -13 -10 -14 4 -9 9 3 16 10 16 15 0 13 -6 11 -20 -6z"/>
<path d="M2193 1895 c-9 -24 1 -27 15 -5 8 13 8 20 2 20 -6 0 -13 -7 -17 -15z"/>
<path d="M2071 1874 c0 -11 3 -14 6 -6 3 7 2 16 -1 19 -3 4 -6 -2 -5 -13z"/>
<path d="M2210 1860 c0 -5 5 -10 11 -10 5 0 7 5 4 10 -3 6 -8 10 -11 10 -2 0
-4 -4 -4 -10z"/>
<path d="M1443 1845 c-7 -20 0 -27 20 -19 9 3 13 12 10 20 -7 19 -22 18 -30
-1z"/>
<path d="M2041 1843 c-6 -7 -34 -13 -61 -13 -28 0 -50 -4 -50 -9 0 -8 75 -6
117 4 14 3 25 -1 31 -10 5 -10 15 -13 25 -9 25 9 21 18 -16 35 -27 12 -36 13
-46 2z"/>
<path d="M1543 1843 c-7 -2 -13 -12 -13 -20 0 -13 3 -13 15 -3 15 13 19 8 16
-22 -1 -9 2 -19 7 -22 12 -7 25 22 16 35 -3 5 5 9 18 9 22 1 22 1 4 15 -20 15
-40 18 -63 8z"/>
<path d="M1378 1833 c7 -3 16 -2 19 1 4 3 -2 6 -13 5 -11 0 -14 -3 -6 -6z"/>
<path d="M1815 1830 c3 -5 8 -10 11 -10 2 0 4 5 4 10 0 6 -5 10 -11 10 -5 0
-7 -4 -4 -10z"/>
<path d="M1880 1829 c0 -5 9 -9 20 -9 11 0 20 2 20 4 0 2 -9 6 -20 9 -11 3
-20 1 -20 -4z"/>
<path d="M1995 1760 c3 -5 8 -10 11 -10 2 0 4 5 4 10 0 6 -5 10 -11 10 -5 0
-7 -4 -4 -10z"/>
<path d="M2045 1759 c-4 -6 -5 -12 -2 -15 2 -3 7 2 10 11 7 17 1 20 -8 4z"/>
<path d="M2244 1755 c-4 -8 -15 -15 -25 -15 -10 0 -19 -4 -19 -10 0 -5 4 -10
8 -10 17 0 72 32 72 41 0 15 -30 10 -36 -6z"/>
<path d="M3567 1757 c-3 -8 -1 -20 4 -28 6 -10 9 -7 9 14 0 29 -5 35 -13 14z"/>
<path d="M1968 1728 c5 -5 16 -8 23 -6 8 3 3 7 -10 11 -17 4 -21 3 -13 -5z"/>
<path d="M2046 1715 c4 -8 1 -15 -5 -15 -6 0 -11 -13 -11 -29 0 -23 4 -29 23
-29 20 0 22 5 18 44 -2 29 -8 44 -17 44 -8 0 -11 -6 -8 -15z"/>
<path d="M1415 1701 c-3 -5 -1 -12 5 -16 5 -3 10 1 10 9 0 18 -6 21 -15 7z"/>
<path d="M3562 1678 c-18 -55 -21 -128 -6 -128 10 0 10 -5 -1 -26 -14 -27 -10
-89 7 -111 5 -7 4 -13 -3 -15 -17 -6 -23 -146 -8 -164 7 -8 7 -14 2 -14 -6 0
-13 -42 -17 -92 -11 -153 -37 -310 -58 -358 -11 -25 -20 -55 -19 -67 0 -12 -4
-34 -9 -48 -7 -19 -6 -34 5 -56 19 -35 28 -38 19 -5 -3 13 -1 27 5 31 6 3 8
12 4 18 -13 22 -1 82 22 113 23 30 30 54 39 144 3 25 12 101 21 170 9 68 16
154 15 190 0 36 -1 150 -1 254 0 105 -1 192 -3 194 -2 2 -9 -12 -14 -30z m13
-238 c3 -5 1 -10 -4 -10 -6 0 -11 5 -11 10 0 6 2 10 4 10 3 0 8 -4 11 -10z"/>
<path d="M1584 1669 c-3 -5 3 -9 13 -10 10 0 13 -3 6 -6 -7 -2 -13 -9 -13 -14
0 -6 -11 -20 -25 -33 -14 -13 -23 -30 -20 -38 5 -14 -39 -44 -57 -40 -5 1 -8
-2 -8 -7 0 -22 -48 -61 -74 -61 -17 0 -25 -4 -20 -11 3 -6 2 -14 -4 -18 -15
-9 -19 -43 -5 -48 6 -2 14 5 18 16 4 12 12 18 20 14 10 -3 19 5 26 23 10 27
12 28 19 9 7 -15 9 -16 9 -4 1 9 8 22 16 29 9 7 13 15 10 18 -10 10 18 32 41
32 12 0 26 4 29 10 4 6 13 5 25 -3 24 -14 26 -27 5 -27 -20 0 -19 -36 1 -44
27 -10 38 -7 26 7 -7 8 -7 18 -2 27 6 10 4 23 -6 38 -8 12 -12 27 -8 33 3 6 7
24 8 41 1 17 10 36 20 44 10 7 15 17 12 22 -7 12 -55 12 -62 1z"/>
<path d="M1516 1661 c-4 -6 -3 -11 3 -11 7 0 7 -8 1 -26 -15 -39 -12 -64 8
-63 9 0 12 3 6 5 -9 4 -9 14 -2 38 11 35 -2 80 -16 57z"/>
<path d="M1400 1649 c0 -5 5 -7 10 -4 6 3 10 8 10 11 0 2 -4 4 -10 4 -5 0 -10
-5 -10 -11z"/>
<path d="M1330 1633 c0 -5 5 -15 10 -23 8 -12 10 -11 10 8 0 12 -4 22 -10 22
-5 0 -10 -3 -10 -7z"/>
<path d="M1935 1618 c12 -37 22 -41 23 -8 0 20 -4 30 -14 30 -11 0 -13 -6 -9
-22z"/>
<path d="M1390 1621 c0 -14 18 -23 31 -15 8 4 7 9 -2 15 -18 11 -29 11 -29 0z"/>
<path d="M1495 1620 c-3 -5 -1 -10 4 -10 6 0 11 5 11 10 0 6 -2 10 -4 10 -3 0
-8 -4 -11 -10z"/>
<path d="M2045 1610 c-3 -5 -1 -10 4 -10 6 0 11 5 11 10 0 6 -2 10 -4 10 -3 0
-8 -4 -11 -10z"/>
<path d="M1675 1599 c-10 -15 3 -25 16 -12 7 7 7 13 1 17 -6 3 -14 1 -17 -5z"/>
<path d="M1771 1564 c0 -11 3 -14 6 -6 3 7 2 16 -1 19 -3 4 -6 -2 -5 -13z"/>
<path d="M1664 1518 c2 -29 4 -59 5 -65 1 -7 5 -13 11 -13 6 0 7 18 4 44 -4
28 -2 46 5 51 9 5 9 10 0 21 -21 26 -29 14 -25 -38z"/>
<path d="M1950 1540 c0 -5 5 -10 10 -10 6 0 10 5 10 10 0 6 -4 10 -10 10 -5 0
-10 -4 -10 -10z"/>
<path d="M1397 1500 c-3 -11 -1 -20 4 -20 5 0 9 2 9 4 0 2 3 11 6 20 3 9 2 16
-4 16 -5 0 -12 -9 -15 -20z"/>
<path d="M1350 1489 c0 -5 5 -7 10 -4 6 3 10 8 10 11 0 2 -4 4 -10 4 -5 0 -10
-5 -10 -11z"/>
<path d="M1856 1492 c-3 -5 1 -18 9 -28 13 -17 14 -18 15 -1 0 9 0 20 1 24 1
11 -18 15 -25 5z"/>
<path d="M1334 1459 c-3 -6 -1 -16 5 -22 8 -8 11 -5 11 11 0 24 -5 28 -16 11z"/>
<path d="M1595 1409 c5 -13 8 -36 7 -52 -1 -30 11 -28 29 5 10 18 9 20 -5 15
-12 -5 -16 0 -16 18 0 13 -5 27 -11 31 -8 4 -9 -1 -4 -17z"/>
<path d="M1763 1398 c-2 -16 1 -18 10 -9 7 7 8 14 1 21 -6 6 -10 2 -11 -12z"/>
<path d="M1302 1365 c10 -16 -2 -58 -20 -72 -9 -7 -12 -16 -8 -20 3 -4 28 14
53 40 26 25 44 50 40 54 -4 4 -15 0 -24 -9 -15 -15 -17 -15 -32 1 -9 9 -13 12
-9 6z"/>
<path d="M1556 1358 c-3 -13 -1 -27 4 -32 7 -7 10 1 10 22 0 37 -5 41 -14 10z"/>
<path d="M3438 1213 c12 -2 30 -2 40 0 9 3 -1 5 -23 4 -22 0 -30 -2 -17 -4z"/>
<path d="M3507 739 c-4 -16 -3 -18 9 -8 16 13 19 29 5 29 -5 0 -11 -9 -14 -21z"/>
<path d="M3496 675 c4 -8 10 -12 15 -9 11 6 2 24 -11 24 -5 0 -7 -7 -4 -15z"/>
<path d="M3503 616 c2 -19 7 -39 11 -43 5 -4 6 -3 2 5 -4 6 -2 12 4 12 15 0 9
52 -7 57 -8 3 -11 -7 -10 -31z"/>
<path d="M2838 633 c7 -3 16 -2 19 1 4 3 -2 6 -13 5 -11 0 -14 -3 -6 -6z"/>
<path d="M1708 454 c-8 -8 3 -44 13 -44 5 0 9 11 9 25 0 24 -10 32 -22 19z"/>
<path d="M1142 190 c-16 -26 -15 -47 2 -53 18 -7 26 1 26 27 0 35 -14 48 -28
26z"/>
<path d="M2991 164 c0 -11 3 -14 6 -6 3 7 2 16 -1 19 -3 4 -6 -2 -5 -13z"/>
<path d="M1215 133 c20 -80 63 -131 53 -63 -7 47 8 46 56 -4 48 -51 81 -59 96
-23 13 31 31 52 58 66 12 7 20 16 17 21 -8 14 -75 -30 -88 -57 -10 -23 -32
-31 -39 -14 -8 21 -92 81 -114 81 -13 0 -24 5 -24 10 0 6 -5 10 -11 10 -7 0
-9 -10 -4 -27z"/>
<path d="M1518 128 c9 -9 15 -9 24 0 9 9 7 12 -12 12 -19 0 -21 -3 -12 -12z"/>
<path d="M1615 115 c4 -11 8 -25 9 -31 3 -16 55 -84 65 -84 12 0 -24 70 -55
105 -18 21 -24 24 -19 10z"/>
<path d="M1747 93 c-15 -29 -30 -93 -22 -93 12 0 37 52 41 84 5 43 -1 46 -19
9z"/>
<path d="M1880 110 c0 -5 5 -10 10 -10 6 0 10 5 10 10 0 6 -4 10 -10 10 -5 0
-10 -4 -10 -10z"/>
<path d="M2019 79 c17 -28 18 -34 5 -46 -8 -8 -14 -19 -14 -24 0 -14 38 -11
43 4 4 9 7 9 18 0 7 -7 22 -13 33 -13 19 0 19 1 -2 23 -24 26 -29 62 -9 71 6
4 -5 4 -25 2 -21 -3 -40 0 -43 5 -4 5 -10 9 -15 9 -6 0 -1 -14 9 -31z"/>
<path d="M2976 86 c-10 -40 -38 -49 -95 -32 -27 8 -59 20 -71 26 -12 6 -24 10
-26 7 -9 -9 49 -39 102 -53 64 -16 99 -7 106 30 7 34 -8 55 -16 22z"/>
<path d="M2280 83 c0 -11 11 -30 25 -43 21 -20 27 -21 42 -9 39 30 46 58 8 33
-23 -15 -25 -15 -50 12 -22 24 -25 25 -25 7z"/>
</g>
</svg>
