<?xml version="1.0" encoding="UTF-8" standalone="no"?>
<!-- Created with Inkscape (http://www.inkscape.org/) -->

<svg
   width="210mm"
   height="297mm"
   viewBox="0 0 210 297"
   version="1.1"
   id="svg1"
   xml:space="preserve"
   inkscape:version="1.3.2 (091e20e, 2023-11-25, custom)"
   sodipodi:docname="blizzerInkscape.svg"
   xmlns:inkscape="http://www.inkscape.org/namespaces/inkscape"
   xmlns:sodipodi="http://sodipodi.sourceforge.net/DTD/sodipodi-0.dtd"
   xmlns:xlink="http://www.w3.org/1999/xlink"
   xmlns="http://www.w3.org/2000/svg"
   xmlns:svg="http://www.w3.org/2000/svg"><sodipodi:namedview
     id="namedview1"
     pagecolor="#505050"
     bordercolor="#ffffff"
     borderopacity="1"
     inkscape:showpageshadow="0"
     inkscape:pageopacity="0"
     inkscape:pagecheckerboard="1"
     inkscape:deskcolor="#505050"
     inkscape:document-units="mm"
     inkscape:zoom="5.6609236"
     inkscape:cx="423.42914"
     inkscape:cy="560.50924"
     inkscape:window-width="1920"
     inkscape:window-height="1111"
     inkscape:window-x="-9"
     inkscape:window-y="-9"
     inkscape:window-maximized="1"
     inkscape:current-layer="layer1" /><defs
     id="defs1" /><g
     inkscape:label="Ebene 1"
     inkscape:groupmode="layer"
     id="layer1"><image
       width="35.051998"
       height="33.02"
       preserveAspectRatio="none"
       style="image-rendering:optimizeQuality"
       xlink:href="flipps.png"
       id="image1"
       x="87.552948"
       y="131.99001" /><path
       id="path1"
       style="fill:#000000"
       d="m 105.62973,135.3659 v 5.1e-4 c -0.39955,-0.0476 -0.85743,0.31342 -1.1157,1.09658 -0.90572,1.73449 0.54031,-0.20848 0.84646,-0.91467 0.43441,0.34335 0.64234,2.51165 0.65474,3.25561 0.61645,-2.52232 1.4353,3.65768 1.10536,0.75396 0.82995,0.32119 0.40631,3.22481 -0.14107,4.42712 -0.60764,-1.33306 -0.99625,-2.79822 -1.78387,-3.70572 -1.02607,0.69494 -0.74217,2.99849 -1.84692,4.04988 0.16778,0.0207 0.61704,0.17416 0.0687,0.90383 0.75586,-0.70417 0.87121,-2.69178 1.73529,-3.73466 0.56349,0.27061 1.05397,2.04746 1.58802,3.21169 -0.0779,1.59091 0.79517,3.62815 -0.25218,4.81831 0.93078,1.15272 3.78402,2.92792 4.66121,4.87516 -2.41166,0.21087 -4.77957,-0.56856 -7.17889,-0.015 -1.78368,-0.11846 -3.56622,-0.43437 -5.328352,0.14883 -1.284201,-0.52434 -0.953201,-3.32466 -0.688847,-4.72891 -0.726984,-0.84385 0.935486,-0.75235 -0.318327,-1.31879 -0.01505,-1.53349 0.283195,-3.21439 0.266651,-4.81727 0.382029,-0.90512 0.03744,-5.29888 -0.324012,-3.49075 0.181428,1.92902 0.549905,4.20465 -1.353922,5.45497 -1.542055,1.84096 0.256493,-0.31649 1.024227,-0.75861 0.519791,0.93545 0.66758,3.48905 -0.584461,4.19664 -1.717753,0.58411 -4.360075,0.30602 -3.602881,-2.15801 -0.274135,-0.83648 0.291784,-3.97339 -0.505912,-2.27531 0.04144,2.47459 -0.01189,4.95593 -0.06046,7.4688 0.05903,2.32592 -0.446426,4.65213 -0.359152,6.95668 -0.90854,2.11503 0.666365,-0.27321 1.789555,0.30437 0.719686,0.19702 2.892331,-0.41841 3.321761,0.33073 1.064459,-0.0633 4.202813,-1.08838 4.817793,0.63924 1.37654,-0.27427 -0.0737,-1.69168 -1.26607,-1.07074 -1.788044,-0.0631 -3.644046,-0.007 -5.37125,-0.25321 0.53985,-1.12665 -0.214332,-0.48846 -1.002523,-0.11421 -2.548125,1.20936 -0.820188,-1.92273 -0.08733,-2.90783 1.083411,-1.27509 1.94889,-2.68555 2.711979,-4.17494 0.642079,0.11817 0.347634,2.7207 -0.04289,3.61167 -0.410424,2.02123 0.866785,-0.44761 1.657263,-0.68885 1.690855,-0.33687 3.465575,-0.10681 5.196585,-0.15761 1.80921,-0.38132 3.64832,0.10031 5.45444,0.008 1.27247,0.6787 3.27816,0.15968 1.64848,-1.26194 -0.52355,-1.43598 -3.70309,-2.33664 -3.07888,-3.68866 -1.39568,-0.43595 0.16626,-0.48607 -0.30386,-1.19631 -0.42156,-0.18171 0.42496,-1.32418 -0.25786,-1.34928 -0.83297,-1.49621 1.06219,-1.05453 0.0868,-2.02571 0.69535,-0.6224 1.06797,1.77688 2.12391,1.91823 -0.88311,-1.54335 -2.93033,-2.87037 -1.76424,-4.94182 -0.11101,-2.88185 1.56712,0.35488 2.57969,0.98495 1.42368,1.74611 3.02484,3.33831 4.69377,4.85552 1.3865,0.86479 1.8836,2.33137 -0.18293,2.32337 -2.38788,0.61546 -2.25948,-2.07071 -2.16318,-3.6375 -0.68466,-1.88865 -0.40298,0.038 -0.19224,0.93793 -0.16407,1.78439 0.23826,3.49769 -0.0599,5.23327 -0.3153,1.80588 0.10516,3.32356 1.04748,4.8674 0.69084,1.45943 0.0728,2.24705 -1.47278,1.38028 -2.59946,0.35933 -5.22696,0.0383 -7.83673,0.19895 -2.29987,0.0516 0.31549,0.55258 1.15807,0.19534 1.22032,-0.80515 2.00505,1.29618 2.32234,-0.0987 1.53289,0.35473 4.99482,-0.81276 4.69739,1.68568 l 5.1e-4,5.2e-4 c 0.86677,1.10843 0.22573,-0.83661 0.54106,-1.12551 0.8118,0.0119 4.0809,1.22616 3.71501,0.48059 -1.77416,-0.35248 -2.19181,-2.35505 -3.0856,-3.65766 -1.6549,-1.64596 -0.13485,-4.0862 -0.78238,-5.87148 1.37472,1.35938 1.78943,4.18071 2.69441,6.13141 0.24696,0.4315 0.94151,3.54802 0.94051,2.10995 -0.73215,-2.35824 -1.53024,-4.7077 -2.50837,-6.9758 -1.36602,-1.76648 0.59073,-1.85161 2.01951,-1.89601 2.71617,0.80137 0.6405,-1.4693 -0.48472,-2.1916 -1.63716,-1.42884 -2.80482,-3.08522 -4.28966,-4.53925 -2.0859,-1.81017 -4.08715,-3.94336 -4.72374,-6.71846 -0.0259,-0.85141 -0.36733,-1.30738 -0.76688,-1.35495 z m -2.281,8.96327 c -0.0619,-0.008 -0.0864,0.002 -0.008,0.008 0.003,-0.003 0.005,-0.006 0.008,-0.008 z m 2.5647,-8.08477 c 0.12892,0.0202 0.53706,0.61649 0.55087,1.10639 0.0858,0.6535 -0.34538,-0.4622 -0.33538,-0.3731 -0.26955,-0.54999 -0.29284,-0.74539 -0.21549,-0.73329 z m -0.87385,0.61081 c -0.0905,-0.005 -0.22052,0.12211 -0.2992,0.51522 0.49099,-0.12872 0.45006,-0.50627 0.2992,-0.51522 z m -1.26969,0.81546 c -0.10348,-0.0177 -0.36331,0.1278 -0.4687,0.48937 0.51931,-0.29096 0.57218,-0.47172 0.4687,-0.48937 z m 2.80603,0.061 c 0.20121,0.32872 -0.21128,0.0294 0,0 z m -2.37918,0.11834 c -0.0586,-0.009 -0.18726,0.21019 -0.40824,0.89091 0.3252,0.25236 0.53711,-0.87146 0.40824,-0.89091 z m 1.58853,0.54416 c -0.0252,-0.0112 -0.0629,0.0149 -0.11368,0.1142 0.15093,0.28679 0.18939,-0.0805 0.11368,-0.1142 z m -2.87062,0.26251 c -0.62875,0.10737 -0.1175,2.46196 -0.24391,3.33055 0.40505,-1.08259 -0.0186,-2.22722 0.3855,-3.32125 -0.0526,-0.0139 -0.0997,-0.0155 -0.14159,-0.009 z m 9.84591,0.30903 c -0.0166,0.006 -0.0368,0.0196 -0.0615,0.0455 0.10731,0.29087 0.17787,-0.0853 0.0615,-0.0455 z m -8.07548,0.10593 c -0.0252,-0.0112 -0.0635,0.0149 -0.1142,0.11421 0.15093,0.28678 0.18991,-0.0805 0.1142,-0.11421 z m -2.51612,0.3111 v 5.1e-4 c -0.12009,0.0219 -0.25578,0.24776 -0.30748,0.86093 0.68312,-0.0881 0.57406,-0.796 0.3576,-0.85834 -0.0162,-0.005 -0.033,-0.006 -0.0501,-0.003 z m 1.48104,0.0243 c -0.0201,-0.009 -0.0515,0.0188 -0.0951,0.11731 0.11488,0.2613 0.15537,-0.0911 0.0951,-0.11731 z m 1.79679,0.004 c -0.0252,-0.0112 -0.0629,0.0144 -0.11368,0.11369 0.15093,0.28678 0.18939,-0.0799 0.11368,-0.11369 z m -1.4087,0.0284 c -0.0263,-0.0125 -0.0616,0.005 -0.10232,0.0853 0.17915,0.26444 0.18123,-0.0476 0.10232,-0.0853 z m 0.59687,0.006 c -0.0678,0.0133 -0.15097,0.067 -0.23358,0.18965 0.50242,0.0931 0.43706,-0.22955 0.23358,-0.18965 z m 8.05894,0.0114 c -0.0284,0.0238 0.009,0.11664 0.18035,0.32712 0.58135,0.15019 -0.0951,-0.39857 -0.18035,-0.32712 z m -6.24975,0.45837 c -0.0201,-0.009 -0.0515,0.0188 -0.0951,0.11731 0.11482,0.26125 0.15542,-0.0911 0.0951,-0.11731 z m -1.87947,0.14005 c -0.029,-0.008 -0.0763,0.0238 -0.1447,0.13332 0.1555,0.27365 0.23177,-0.10942 0.1447,-0.13332 z m 8.39845,0.35501 c -0.0475,-0.0222 -0.12334,0.0743 -0.21497,0.42478 0.28891,0.24671 0.31956,-0.376 0.21497,-0.42478 z m -11.64373,0.32298 c -0.18845,0.0832 -1.448989,1.6501 -1.913065,2.10065 0.712255,0.0232 1.090055,-0.71871 1.437635,-1.21698 0.37332,-0.58079 0.51141,-0.83515 0.49816,-0.88005 -0.002,-0.008 -0.0102,-0.009 -0.0227,-0.004 z m 11.45356,0.34365 c -0.0249,0.007 -0.0521,0.0924 -0.0739,0.32039 0.19967,0.3441 0.14857,-0.34109 0.0739,-0.32039 z m -11.17038,0.19017 c -0.0333,0.007 -0.0651,0.11153 -0.0785,0.39532 0.29598,0.44703 0.17879,-0.41526 0.0785,-0.39532 z m 1.9296,0.40824 c -0.0166,0.006 -0.0373,0.0201 -0.062,0.046 0.10725,0.29076 0.17843,-0.0858 0.062,-0.046 z m -0.18707,5.2e-4 c -0.0206,-0.006 -0.0871,0.0118 -0.22944,0.077 -0.0582,0.17667 0.29134,-0.0585 0.22944,-0.077 z m 9.4263,0.14004 c -0.0111,-0.0217 -0.0375,0.0464 -0.0884,0.29094 0.0151,0.6485 0.12158,-0.22584 0.0884,-0.29094 z m -11.51609,0.42065 c -0.01,0.0136 0.0343,0.0973 0.18293,0.30489 0.0106,0.007 0.0136,0.007 0.0227,0.0129 0.0287,0.0137 0.0576,0.0273 0.0868,0.0393 -4e-5,3.4e-4 3e-5,8.6e-4 0,0.001 0.0797,-0.003 -0.26829,-0.39182 -0.29249,-0.35812 z m 7.37319,0.27595 c -0.0206,-0.0313 -0.0817,0.0792 -0.21084,0.46716 -0.004,0.11482 -0.002,0.19139 0.002,0.24908 0.0428,-0.0324 0.0813,-0.0582 0.11472,-0.0749 0.0646,-0.23 0.12537,-0.5945 0.0946,-0.64131 z m 4.12895,0.12919 c -0.0152,-0.009 -0.0462,0.0147 -0.10077,0.10025 0.048,0.23624 0.14645,-0.0745 0.10077,-0.10025 z m -10.04332,0.0718 c -0.0506,-0.0197 -0.11177,0.19788 -0.18913,0.79427 -0.50335,1.60592 0.98864,5.51992 -1.00459,5.75365 0.74907,0.34452 0.0607,0.56849 0.0537,1.2423 1.40098,-0.71582 1.11083,-3.54118 1.45366,-5.01313 -0.10565,-0.52121 -0.16176,-2.71786 -0.31368,-2.77709 z m -1.14721,0.0636 c -0.006,-0.002 -0.0252,0.004 -0.0388,0.006 -4.9e-4,0.003 -6.4e-4,0.007 -0.001,0.0103 -0.002,0.0164 -0.006,0.0327 -0.008,0.0491 0.0395,-0.0306 0.0684,-0.0595 0.0481,-0.0656 z m 4.08192,0.0837 c -0.0166,0.006 -0.0373,0.0201 -0.062,0.046 0.10725,0.29081 0.17843,-0.0858 0.062,-0.046 z m 7.01042,0.26562 c -0.0306,-0.0195 -0.0393,0.0711 0.0202,0.39739 0.21935,0.22215 0.047,-0.35447 -0.0202,-0.39739 z m -19.649443,0.0982 c -0.0181,-0.0134 -0.05593,0.0329 -0.12299,0.19482 0.05306,0.41957 0.177296,-0.15476 0.12299,-0.19482 z m 5.915401,0.0651 c -0.163822,0.0267 -0.55507,0.27619 -0.958081,0.82941 1.003088,-0.52987 1.168709,-0.8637 0.958081,-0.82941 z m 10.254152,0.20206 c -0.008,0.003 -0.0151,0.0141 -0.0217,0.0279 0.0409,0.0452 0.0809,0.091 0.12092,0.13694 -0.0313,-0.0994 -0.0676,-0.17642 -0.0992,-0.16485 z m 3.37964,0.36742 c -0.0371,-0.008 -0.0471,0.0744 0.0284,0.34313 0.26727,0.12897 0.0532,-0.32571 -0.0284,-0.34313 z m -11.95638,0.22841 c -0.0196,-0.0115 -0.0398,0.009 -0.0532,0.0935 0.1643,0.2634 0.11222,-0.0589 0.0532,-0.0935 z m 10.21075,0.12764 c -0.0166,0.006 -0.0373,0.0202 -0.062,0.046 0.10725,0.29082 0.17843,-0.0858 0.062,-0.046 z m -2.31872,0.0217 c -0.0252,-0.0112 -0.063,0.0144 -0.11369,0.11369 0.15093,0.28679 0.1894,-0.0799 0.11369,-0.11369 z m -9.38289,0.14832 c -0.02066,-0.006 -0.08692,0.0118 -0.229444,0.077 -0.05823,0.17662 0.291417,-0.0585 0.229444,-0.077 z m 2.53421,0.0305 c -0.0363,-0.0112 -0.0581,0.0128 -0.0382,0.10542 0.38402,0.2743 0.14728,-0.0718 0.0382,-0.10542 z m 3.72484,0.0408 c -0.0559,0.006 -0.14129,0.0205 -0.26355,0.047 -0.37775,0.2879 0.65485,-0.0901 0.26355,-0.047 z m 0.75292,0.003 c -0.0395,-0.004 -0.11982,0.0171 -0.25993,0.0868 0.12671,0.16529 0.37835,-0.0744 0.25993,-0.0868 z m 2.32389,0.014 c -0.0292,-0.006 -0.0783,0.026 -0.15141,0.13178 0.14864,0.24874 0.23899,-0.11354 0.15141,-0.13178 z m 0.88315,0.0305 c -0.021,0.002 -0.0385,0.0161 -0.0501,0.0439 0.0255,0.0569 0.0503,0.11417 0.076,0.17105 0.21484,0.0649 0.17091,-0.0783 0.0822,-0.16227 -0.001,-0.001 -0.002,-0.002 -0.003,-0.003 -7.4e-4,-8.2e-4 -0.001,-0.002 -0.002,-0.003 -0.0334,-0.0299 -0.0714,-0.0506 -0.10284,-0.047 z m -8.7452,0.003 c -0.0188,-0.0125 -0.0452,0.0198 -0.0785,0.14056 0.12036,0.33718 0.13515,-0.10313 0.0785,-0.14056 z m 10.73578,0.0475 c -0.0166,0.006 -0.0373,0.0196 -0.062,0.0455 0.10725,0.29082 0.17843,-0.0853 0.062,-0.0455 z m 6.0725,0.3173 c -0.0591,0.0452 0.18528,1.14473 0.0537,1.68051 -0.005,1.502 0.40504,-0.66406 0.27854,-0.93689 -0.21596,-0.567 -0.30543,-0.76417 -0.33228,-0.74362 z m -7.8636,0.19327 c -0.003,-0.006 -0.007,0.003 -0.0109,0.0124 0.004,0.009 0.008,0.0183 0.0124,0.0274 -0.002,-0.01 6.2e-4,-0.0357 -0.002,-0.0398 z m -7.18665,0.11782 c -0.0152,-0.009 -0.0467,0.0142 -0.10128,0.0997 0.048,0.23623 0.14696,-0.074 0.10128,-0.0997 z m -0.0377,0.48214 c -0.0287,0.005 -0.0656,0.0631 -0.10542,0.21652 0.20445,0.22694 0.19168,-0.23188 0.10542,-0.21652 z m 7.30498,0.27544 c -0.038,-0.003 -0.0842,0.0231 -0.12919,0.1018 0.28348,0.1679 0.2431,-0.0936 0.12919,-0.1018 z m -3.26802,0.078 c -0.0194,-0.012 -0.0461,0.0581 -0.0786,0.28525 0.12787,0.52427 0.13646,-0.24918 0.0786,-0.28525 z m 3.76411,0.21497 c -0.0498,0.005 -0.11862,0.0463 -0.20205,0.15193 0.32744,0.13999 0.35131,-0.16762 0.20205,-0.15193 z m -0.0222,0.70952 c -0.0201,-0.009 -0.0515,0.0188 -0.0951,0.1173 0.11482,0.26126 0.15537,-0.0911 0.0951,-0.1173 z m -9.48572,0.0202 c -0.003,0.006 -0.004,0.006 -0.007,0.0124 0.002,0.005 0.004,0.006 0.006,0.01 5.9e-4,-0.007 0.001,-0.0148 0.002,-0.0222 z m 9.78803,0.16588 c -0.0152,-0.009 -0.0467,0.0147 -0.10129,0.10026 0.048,0.23624 0.14697,-0.0745 0.10129,-0.10026 z m -17.688325,0.0476 c 0.03646,-0.002 0.07459,0.15191 0.0925,0.58291 l -0.0677,0.3948 c -0.176341,-0.21621 -0.105041,-0.97353 -0.0248,-0.97771 z m 17.434075,0.0372 c -0.0152,-0.009 -0.0462,0.0147 -0.10077,0.10026 0.0479,0.23622 0.14643,-0.0745 0.10077,-0.10026 z m -15.441949,0.16227 c -0.08215,-0.0441 -0.991941,0.65289 -1.252637,1.21181 0.263791,-0.17069 0.490779,-0.38997 0.713135,-0.60978 0.443314,-0.40865 0.576841,-0.58198 0.539502,-0.60203 z m 22.906099,0.0191 c -0.0119,-0.0108 -0.0426,0.0192 -0.10284,0.13022 0.006,0.30328 0.1386,-0.0979 0.10284,-0.13022 z m -9.23665,0.22531 c -0.011,-0.007 -0.0237,-0.008 -0.0377,0.002 -0.0166,0.0109 -0.035,0.035 -0.0553,0.077 0.15272,0.33464 0.16686,0.0379 0.10697,-0.0522 -0.005,-0.009 -0.009,-0.0179 -0.014,-0.0269 z m 9.17567,0.10748 c -0.0196,-0.0115 -0.0398,0.009 -0.0532,0.0941 0.1643,0.26339 0.11227,-0.0597 0.0532,-0.0941 z m -11.3745,0.21911 c -0.008,0.10554 -0.0166,0.211 -0.0274,0.31626 0.12426,0.12163 0.12941,-0.33202 0.0274,-0.31626 z m -4.3279,0.0145 c -0.003,-0.007 -0.008,-0.007 -0.0155,5.2e-4 -0.008,0.009 -0.0196,0.0291 -0.0346,0.0641 0.004,0.31186 0.0721,-0.0184 0.0501,-0.0646 z m 15.48794,0.007 c -0.0392,0.0213 -0.0306,0.11074 0.12557,0.30334 0.13708,-0.1846 -0.0603,-0.33884 -0.12557,-0.30334 z m -8.72867,0.0243 c -0.009,0.0119 -0.0168,0.0168 -0.0258,0.03 0.0126,-7.6e-4 0.0254,-0.002 0.0388,-0.002 h 0.0248 c -0.0126,-0.008 -0.0253,-0.0178 -0.0377,-0.0284 z m 0.79531,0.003 c -0.0131,-0.005 -0.0346,0.006 -0.0605,0.0258 h 0.0724 c -0.004,-0.009 -0.005,-0.0229 -0.0119,-0.0258 z m -7.2037,0.22118 c -0.0219,-0.001 -0.0469,0.0393 -0.0687,0.15968 0.17088,0.2303 0.13454,-0.15544 0.0687,-0.15968 z m 12.52378,0.14624 c -0.0166,0.006 -0.0373,0.0202 -0.062,0.046 0.10725,0.29082 0.17843,-0.0858 0.062,-0.046 z m -12.92117,0.0181 c -0.0201,-0.009 -0.051,0.0188 -0.0946,0.1173 0.11482,0.26126 0.1548,-0.0911 0.0946,-0.1173 z m 4.65708,0.031 c -0.0288,-0.006 -0.053,0.0347 -0.0563,0.16588 0.27097,0.29579 0.14303,-0.14721 0.0563,-0.16588 z m 10.88357,0.0584 c -0.003,-0.007 -0.008,-0.007 -0.0155,5.1e-4 -0.008,0.009 -0.0196,0.0291 -0.0346,0.0641 0.003,0.31161 0.0721,-0.0186 0.0501,-0.0646 z m -8.21397,0.0186 c 0.032,0.0265 0.065,0.02 0.0977,0 z m 8.25221,0.23151 c -0.0201,-0.009 -0.0515,0.0188 -0.0951,0.11731 0.11488,0.2613 0.15537,-0.0911 0.0951,-0.11731 z m -17.473866,0.54932 c -0.04183,0.0127 -0.08245,0.0819 -0.101286,0.25115 0.0101,0.005 0.01598,0.005 0.02532,0.009 0.04672,-0.0792 0.09123,-0.15946 0.135909,-0.23978 -0.01911,-0.0161 -0.03937,-0.0268 -0.05994,-0.0207 z m -3.164148,0.0367 c 0.451177,0.0193 0.753625,0.19037 0.744657,0.70642 -0.762051,3.16547 -3.505293,5.27648 -4.564579,8.30595 -1.246489,2.41593 -0.287254,-2.42866 -0.387573,-2.87786 0.506381,-1.93721 -0.670844,-4.64701 0.969966,-6.0079 0.713182,0.40002 2.101516,-0.088 3.035474,-0.12609 0.07005,-0.003 0.137601,-0.003 0.202055,-5.2e-4 z m 4.160474,0.0677 c -0.0867,-0.002 -0.21444,0.051 -0.38034,0.20567 0.53352,0.29603 0.64038,-0.20017 0.38034,-0.20567 z m 3.98993,0.0165 c -0.0355,-7.7e-4 -0.11594,0.037 -0.2651,0.14728 0.0726,0.2059 0.37169,-0.14494 0.2651,-0.14728 z m -0.63717,0.0734 c -0.0312,-0.005 -0.0934,0.015 -0.19947,0.0796 0.10894,0.15986 0.29317,-0.0659 0.19947,-0.0796 z m 5.58778,0.0853 c -0.0312,-0.005 -0.0929,0.0151 -0.19896,0.0796 0.10894,0.15985 0.29261,-0.0659 0.19896,-0.0796 z m 0.79736,0 c -0.0207,-0.006 -0.087,0.0118 -0.22944,0.077 -0.0582,0.17664 0.29139,-0.0585 0.22944,-0.077 z m -5.20588,0.062 c -0.001,0.0109 -0.003,0.0223 -0.005,0.0331 0.003,-0.005 0.009,-0.009 0.0114,-0.0155 -0.002,-0.006 -0.003,-0.0117 -0.006,-0.0176 z m -4.54546,0.11111 c -0.0211,-0.002 -0.0543,0.0326 -0.10129,0.13539 0.1182,0.20362 0.16466,-0.12955 0.10129,-0.13539 z m 5.89835,0.28163 c -0.0247,-0.008 -0.0661,0.0167 -0.12816,0.10336 0.1255,0.22929 0.20228,-0.0804 0.12816,-0.10336 z m -0.41393,0.2403 c -0.0201,-0.009 -0.0515,0.0183 -0.0951,0.11679 0.11482,0.26125 0.15542,-0.0906 0.0951,-0.11679 z m -2.10271,0.0775 c -0.0192,0.003 -0.0413,0.0157 -0.0662,0.0403 0.19394,0.34634 0.20031,-0.0642 0.0662,-0.0403 z m 0.76222,0.36122 c -0.0534,0.0949 -0.11067,0.18771 -0.1695,0.27957 0.18918,0.0966 0.21136,-0.10773 0.1695,-0.27957 z m -3.71243,0.11576 c -0.0728,-0.0212 -0.16177,0.0526 -0.17932,0.34106 0.37678,-0.007 0.30066,-0.30566 0.17932,-0.34106 z m -0.75448,0.21807 c -0.0136,-0.0193 -0.0424,0.003 -0.0935,0.11266 0.0385,0.38214 0.1345,-0.0547 0.0935,-0.11266 z m 17.20825,0.0222 c -0.0894,0.0203 -0.1967,0.75045 -0.15089,1.3994 0.29523,0.48043 0.2598,-0.33492 0.2558,-0.49816 -0.004,-0.66996 -0.0513,-0.91341 -0.10491,-0.90124 z m -18.837606,0.0631 c -0.01811,-0.0123 -0.03835,0.022 -0.05478,0.14831 0.14433,0.34534 0.109106,-0.11143 0.05478,-0.14831 z m 5.126816,0.0491 c -0.0135,0.007 -0.0358,0.0586 -0.0682,0.17053 0.0269,-0.0293 0.0535,-0.0588 0.0796,-0.0889 -10e-4,-0.0394 4.4e-4,-0.0875 -0.0114,-0.0816 z m -4.547523,0.13281 c -0.01963,-0.0115 -0.03977,0.009 -0.05323,0.094 0.164243,0.26334 0.112106,-0.0591 0.05323,-0.094 z m 1.476913,0.14263 c -0.15662,-0.008 -0.3886,0.15593 -0.64131,0.66869 0.96582,0.19855 0.98588,-0.65124 0.64131,-0.66869 z m -0.0341,0.74569 c -0.0164,-0.001 -0.0219,0.0255 -0.0114,0.0889 0.0162,-0.0162 0.0347,-0.0315 0.0548,-0.047 -0.0154,-0.0166 -0.0338,-0.0411 -0.0434,-0.0418 z m -1.466058,0.0486 c -0.01193,-0.0108 -0.04259,0.0198 -0.102836,0.13074 0.0061,0.30325 0.138625,-0.0984 0.102836,-0.13074 z m 2.248438,0.0357 c -0.0382,0.0283 -0.0757,0.0579 -0.1142,0.0858 -0.002,0.005 -0.003,0.005 -0.005,0.0103 0.1021,0.26719 0.14776,0.007 0.11937,-0.0951 z m -1.63194,0.0951 c -0.0113,-0.0173 -0.0714,0.0125 -0.217039,0.13798 -0.15346,0.39141 0.250979,-0.0862 0.217039,-0.13798 z m 3.34708,0.0372 c -0.006,-0.003 -0.0128,8.1e-4 -0.0191,5.2e-4 -0.0132,0.007 -0.0258,0.0133 -0.0393,0.0186 -0.0274,0.0243 -0.0566,0.0696 -0.0827,0.16382 0.20472,0.0351 0.20215,-0.14943 0.14107,-0.18294 z m -4.48551,0.15968 c -0.01522,-0.009 -0.04624,0.0137 -0.100769,0.0992 0.04799,0.23624 0.146437,-0.0735 0.100769,-0.0992 z m 2.74092,0.0124 c -0.0154,0.0112 -0.009,0.0624 0.0439,0.18346 0.24366,0.10999 0.002,-0.21716 -0.0439,-0.18346 z m -0.48731,0.0579 c -0.0332,0.0189 -0.0655,0.0349 -0.0956,0.0444 0.11462,0.10564 0.13329,0.0653 0.0956,-0.0444 z m -1.64021,0.11421 c -0.02544,-0.005 -0.05329,-0.005 -0.08165,5.1e-4 -0.136102,0.0258 -0.287153,0.17769 -0.273885,0.5395 0.600286,-0.24026 0.533585,-0.50613 0.355534,-0.54001 z m 1.50637,0.20308 c -0.0166,0.006 -0.0368,0.0202 -0.0615,0.046 0.1073,0.29087 0.17787,-0.0858 0.0615,-0.046 z m 16.7013,0.37207 c -0.0441,0.004 -0.10933,0.19244 -0.2005,0.6594 0.16514,2.01636 -0.54983,3.92853 -0.75706,5.90661 0.46605,-1.19917 0.74137,-2.46568 0.8909,-3.74137 0.1173,-0.48689 0.22409,-2.83739 0.0667,-2.82464 z m -20.079907,0.0972 c 0.02102,-0.0113 0.05379,0.0194 0.09973,0.13229 -0.119108,0.31178 -0.162836,-0.0984 -0.09973,-0.13229 z m 1.346687,0.0387 c -0.01662,0.006 -0.03679,0.0202 -0.0615,0.046 0.107184,0.29077 0.1778,-0.0858 0.0615,-0.046 z m 2.19832,0.0357 c -0.0152,-0.009 -0.0462,0.0142 -0.10077,0.0997 0.0479,0.23622 0.14642,-0.074 0.10077,-0.0997 z m -2.321309,0.13178 c -0.02056,-0.005 -0.0666,0.0287 -0.150379,0.13745 0.04653,0.24602 0.212042,-0.12176 0.150379,-0.13745 z m -0.361219,0.2222 c -0.02838,0.0136 -0.0789,0.0992 -0.158646,0.31265 0.12892,0.25349 0.243795,-0.35349 0.158646,-0.31265 z m 3.097488,1.19941 c -0.0353,-0.0128 -0.0853,0.0654 -0.13488,0.33383 0.21946,0.16121 0.21244,-0.30568 0.13488,-0.33383 z m -4.998147,1.54203 c -0.0929,0.0164 -0.191936,0.14348 -0.26355,0.4687 0.762915,0.42839 0.542244,-0.51777 0.26355,-0.4687 z m -0.519865,0.77515 c -0.07165,0.016 -0.182898,0.13867 -0.313676,0.46043 0.437487,-0.0145 0.471298,-0.49566 0.313676,-0.46043 z m 11.304732,1.10587 c -0.0256,0.009 -0.0547,0.0675 -0.0796,0.21342 0.20119,0.17446 0.15633,-0.24099 0.0796,-0.21342 z m 9.90638,0.0951 c -0.0171,0.004 -0.0437,0.0568 -0.0801,0.19792 0.0984,0.21288 0.13131,-0.21079 0.0801,-0.19792 z m -3.06028,0.31315 c 0.24116,0.0207 0.57993,0.28365 0.7152,0.90073 0.36369,0.40066 -0.40894,0.0635 -0.51986,-0.0155 -0.65362,-0.53788 -0.5054,-0.91178 -0.19534,-0.88522 z m 2.88819,0.6656 c -0.0252,0.004 -0.0181,0.0813 0.0605,0.293 0.38385,0.34383 0.0153,-0.30465 -0.0605,-0.293 z m -4.64364,0.17053 c 0.0196,0.0156 0.0507,0.082 0.0971,0.22893 -0.0499,0.58781 -0.18236,-0.29677 -0.0971,-0.22893 z m -10.37869,1.45779 c -0.0225,0.008 -0.0621,0.0539 -0.12558,0.1633 -0.002,0.50453 0.22299,-0.19586 0.12558,-0.1633 z m -4.955775,2.16421 c -0.08847,0.0115 -0.140626,0.1352 0.0047,0.46044 0.391799,-0.18775 0.143038,-0.4797 -0.0047,-0.46044 z m 3.372925,0.45475 c -0.0292,-0.006 -0.0783,0.026 -0.15142,0.13178 0.14865,0.24874 0.23899,-0.11353 0.15142,-0.13178 z m -2.351282,0.0579 c -0.899758,0.49599 0.20682,0.54458 0.527617,0.61288 0.173479,0.88631 1.149196,0.0651 1.297595,-0.39429 -0.460678,0.47681 -1.217472,0.55698 -1.825212,-0.21859 z m 5.342822,0.12661 c -0.0201,-0.009 -0.0515,0.0188 -0.0951,0.1173 0.11482,0.26126 0.15537,-0.0911 0.0951,-0.1173 z m 1.23559,0.13539 c -0.18512,-0.0221 -0.31067,0.18248 -0.16588,0.8568 1.2678,0.33847 0.57314,-0.80816 0.16588,-0.8568 z m -2.38332,0.16433 c -0.0661,-0.0434 -0.20367,0.11069 -0.25786,0.5302 l 0.0853,0.12661 c 0.23284,-0.37211 0.23866,-0.61338 0.1726,-0.65681 z m -1.04903,0.0548 c -0.034,0.0181 0.0281,0.16418 0.30489,0.54622 l 0.0527,0.0589 c 0.26216,-0.0576 -0.28121,-0.64324 -0.3576,-0.60513 z m 5.72161,0.0403 v 5.1e-4 c -0.0807,0.003 -0.11387,0.0843 -0.0248,0.31058 l 0.0129,0.0191 c 0.9237,0.36369 0.25397,-0.33827 0.0119,-0.33021 z m 5.38624,0.0951 c -0.39709,-0.0162 -0.91652,0.0612 -0.49816,0.24236 l 0.26251,0.077 c 0.90739,-0.19336 0.63274,-0.30311 0.23565,-0.31936 z" /></g></svg>
