<?xml version="1.0" standalone="no"?>
<!DOCTYPE svg PUBLIC "-//W3C//DTD SVG 20010904//EN"
 "http://www.w3.org/TR/2001/REC-SVG-20010904/DTD/svg10.dtd">
<svg version="1.0" xmlns="http://www.w3.org/2000/svg"
 width="549.000000pt" height="432.000000pt" viewBox="0 0 549.000000 432.000000"
 preserveAspectRatio="xMidYMid meet">

<g transform="translate(0.000000,432.000000) scale(0.100000,-0.100000)"
fill="#000000" stroke="none">
<path d="M1790 4301 c0 -19 23 -35 34 -24 14 15 5 43 -14 43 -13 0 -20 -7 -20
-19z"/>
<path d="M3651 4304 c0 -11 3 -14 6 -6 3 7 2 16 -1 19 -3 4 -6 -2 -5 -13z"/>
<path d="M1875 4273 c20 -80 63 -131 53 -63 -7 47 8 46 56 -4 48 -51 81 -59
96 -23 13 31 31 52 58 66 12 7 20 16 17 21 -8 14 -75 -30 -88 -57 -10 -23 -32
-31 -39 -14 -8 21 -92 81 -114 81 -13 0 -24 5 -24 10 0 6 -5 10 -11 10 -7 0
-9 -10 -4 -27z"/>
<path d="M2178 4268 c9 -9 15 -9 24 0 9 9 7 12 -12 12 -19 0 -21 -3 -12 -12z"/>
<path d="M2275 4255 c4 -11 8 -26 9 -33 3 -17 74 -102 86 -102 15 0 51 68 56
106 8 62 -24 16 -41 -59 -7 -35 -25 -31 -46 11 -22 42 -73 104 -64 77z"/>
<path d="M2540 4250 c0 -5 5 -10 10 -10 6 0 10 5 10 10 0 6 -4 10 -10 10 -5 0
-10 -4 -10 -10z"/>
<path d="M2681 4215 c12 -19 16 -35 11 -35 -15 0 -48 -95 -59 -175 -3 -22 -14
-47 -24 -56 -13 -11 -18 -28 -16 -56 1 -26 -5 -46 -16 -57 -9 -10 -15 -21 -12
-26 3 -4 -2 -13 -10 -20 -8 -7 -15 -21 -15 -32 0 -18 -43 -89 -78 -130 -13
-15 -17 -16 -35 -3 -18 13 -22 12 -38 -10 -24 -29 -24 -35 -1 -35 28 0 33 -10
18 -39 -15 -29 -131 -147 -158 -162 -37 -20 -16 12 57 87 41 42 75 81 75 86 0
18 -29 6 -51 -21 -13 -16 -27 -27 -31 -25 -4 3 -8 1 -8 -4 0 -5 -8 -18 -17
-30 -10 -11 -25 -31 -33 -43 -8 -13 -26 -35 -40 -49 -14 -14 -34 -43 -45 -65
-25 -51 -237 -263 -276 -277 -16 -5 -29 -15 -29 -21 0 -12 -77 -87 -90 -87 -5
0 -11 -8 -15 -19 -7 -25 -187 -206 -272 -274 -37 -30 -97 -83 -133 -116 -35
-34 -68 -61 -72 -61 -5 0 -8 -7 -8 -15 0 -9 -9 -15 -22 -15 -17 0 -19 3 -10
12 17 17 -4 51 -29 43 -16 -5 -19 -1 -19 29 0 20 5 36 11 36 6 0 3 7 -5 16
-13 13 -16 44 -16 188 l0 173 93 6 c51 3 97 1 103 -4 8 -6 53 -6 120 0 60 5
116 10 124 10 41 0 136 13 141 19 4 4 9 24 12 45 4 28 2 37 -9 37 -10 0 -13
-7 -8 -24 7 -29 -11 -43 -25 -19 -7 12 -13 14 -18 7 -21 -29 -112 -39 -333
-38 -96 1 -166 6 -185 14 l-30 12 31 26 c29 25 30 28 16 42 -15 14 -15 15 1
18 9 2 17 10 17 17 0 9 -6 12 -15 9 -16 -6 -21 11 -6 20 4 3 11 25 15 48 3 24
9 57 12 73 12 72 6 241 -10 297 -19 63 -52 112 -68 102 -7 -5 -5 -11 6 -19 19
-14 17 -55 -8 -185 -14 -71 -14 -75 5 -88 10 -7 19 -21 19 -30 0 -11 5 -8 14
9 9 18 11 40 6 67 -5 27 -3 45 7 57 12 17 13 16 15 -16 2 -37 2 -44 -5 -140
-5 -67 -19 -109 -38 -109 -6 0 -9 8 -7 18 2 9 10 16 17 14 7 -1 11 5 9 15 -2
10 -8 18 -13 18 -18 0 -35 16 -29 26 4 6 10 6 18 0 7 -6 16 -8 19 -4 15 14 6
23 -23 23 -23 0 -30 -4 -30 -20 0 -11 7 -23 15 -26 8 -4 15 -10 15 -15 0 -5
-7 -9 -15 -9 -8 0 -15 -4 -15 -10 0 -5 5 -10 10 -10 13 0 13 -27 1 -32 -5 -1
-11 -21 -13 -43 -3 -35 0 -40 20 -43 12 -2 22 -10 22 -18 0 -17 -12 -18 -27
-3 -14 14 -36 2 -29 -17 3 -7 1 -16 -5 -20 -5 -3 -7 -14 -4 -23 4 -12 -7 -29
-32 -52 -70 -65 -148 -145 -178 -184 -16 -22 -57 -69 -90 -105 -33 -37 -68
-77 -78 -89 -12 -15 -24 -20 -38 -16 -11 4 -26 1 -34 -5 -8 -7 -21 -10 -28 -7
-10 4 -11 28 -5 113 12 181 14 419 3 421 -6 2 -9 -18 -7 -50 1 -28 -2 -92 -8
-142 -5 -49 -13 -146 -16 -215 -3 -69 -7 -131 -10 -138 -2 -7 1 -23 7 -34 13
-24 -1 -38 -39 -38 -32 0 -19 -17 19 -25 31 -7 31 -7 25 -59 -3 -28 -9 -109
-12 -181 -3 -71 -9 -154 -15 -184 -13 -78 -11 -117 6 -131 10 -8 12 -17 6 -24
-6 -7 -9 -49 -7 -94 3 -69 0 -87 -15 -107 -11 -13 -19 -28 -19 -34 0 -6 -7
-11 -15 -11 -8 0 -15 -4 -15 -10 0 -5 -8 -18 -17 -28 -10 -10 -25 -30 -33 -44
-16 -27 -50 -72 -88 -116 -13 -15 -30 -41 -37 -58 -17 -37 -36 -55 -65 -57
-55 -4 69 -47 136 -47 14 0 33 -4 43 -9 43 -23 697 -36 705 -14 5 13 -48 28
-64 18 -5 -3 -16 -3 -22 1 -19 12 -246 14 -297 3 -26 -6 -48 -6 -53 -1 -5 5
-27 6 -48 2 -39 -7 -69 7 -57 28 3 4 2 14 -4 22 -7 13 -9 13 -10 0 -1 -8 -2
-22 -3 -30 -1 -12 -14 -14 -66 -12 -79 3 -110 7 -131 16 -9 4 -20 6 -25 4 -5
-2 -10 0 -12 5 -10 30 35 56 55 30 10 -12 19 -9 64 23 32 22 55 32 57 25 2 -6
8 -11 13 -11 4 0 6 7 3 15 -4 9 1 17 12 21 11 3 28 10 39 14 11 5 34 12 51 15
18 3 40 15 49 25 10 11 21 17 26 15 4 -3 14 1 21 9 8 7 25 17 38 21 13 4 35
18 49 31 14 13 31 22 37 20 6 -2 16 4 22 15 13 20 52 44 52 31 0 -4 -9 -18
-20 -30 -11 -12 -20 -26 -20 -32 0 -5 -6 -10 -13 -10 -15 0 -61 -49 -53 -57 2
-3 11 0 18 6 7 6 29 24 48 39 40 30 128 110 175 158 41 42 74 59 88 45 17 -17
27 -13 27 9 0 11 -6 20 -14 20 -7 0 -19 7 -26 15 -16 20 -50 -2 -50 -32 0 -25
-27 -32 -46 -13 -6 6 -18 8 -27 4 -13 -5 -14 -10 -6 -25 7 -14 6 -20 -3 -23
-7 -1 -28 -8 -45 -14 -36 -11 -41 -8 -18 14 24 24 17 33 -15 21 -16 -6 -30
-15 -30 -20 0 -5 -9 -6 -19 -2 -11 3 -22 2 -25 -4 -8 -13 -77 -10 -73 3 2 6
16 10 31 8 14 -2 34 2 44 8 14 9 12 10 -10 5 -33 -6 -37 9 -8 25 16 8 19 17
14 33 -3 12 -3 19 2 14 11 -11 54 33 47 49 -7 20 -31 18 -29 -2 0 -9 -5 -19
-13 -22 -9 -3 -11 0 -6 8 6 10 4 12 -9 7 -10 -4 -22 -7 -27 -7 -6 0 -7 -9 -4
-20 3 -11 2 -20 -3 -20 -6 0 -12 5 -14 12 -3 8 -11 7 -28 -5 -14 -9 -36 -17
-50 -17 -14 0 -20 4 -14 8 6 4 16 17 22 29 8 14 18 20 32 16 15 -4 20 0 20 15
0 12 -5 24 -12 28 -6 4 -8 3 -5 -3 4 -5 -4 -16 -17 -23 -14 -7 -27 -21 -29
-31 -3 -11 -13 -19 -22 -19 -11 0 -15 -5 -12 -14 4 -10 1 -13 -9 -9 -21 8 -18
17 27 69 53 61 66 74 75 74 5 0 19 12 32 27 23 27 23 27 2 35 -22 8 -60 -20
-60 -46 0 -10 -7 -12 -22 -8 -16 4 -20 2 -15 -10 3 -10 -7 -27 -29 -46 -19
-17 -34 -35 -34 -41 0 -6 -9 -15 -20 -21 -11 -6 -18 -15 -15 -21 4 -5 -3 -9
-14 -9 -11 0 -22 -8 -25 -17 -3 -10 -3 -2 0 17 3 19 8 56 11 83 3 26 10 47 15
47 6 0 5 6 -2 15 -7 8 -10 28 -8 45 3 16 1 30 -4 30 -4 0 -8 -6 -8 -14 0 -8
-5 -18 -10 -21 -14 -9 -2 174 13 200 7 11 17 83 22 160 10 140 10 140 35 140
14 1 45 -9 70 -21 66 -33 116 -46 148 -40 15 3 59 8 97 10 39 3 90 12 114 20
24 9 46 15 48 13 9 -9 -10 -35 -33 -46 -13 -6 -34 -27 -45 -46 -12 -19 -25
-35 -30 -35 -5 0 -9 -6 -9 -14 0 -7 -7 -20 -16 -27 -9 -8 -25 -32 -35 -55 -9
-23 -22 -45 -28 -48 -6 -4 -11 -19 -11 -34 -1 -27 -30 -72 -48 -72 -11 0 -25
-26 -27 -52 -2 -19 20 -25 30 -8 3 6 14 10 24 10 18 0 18 -2 3 -35 -9 -19 -24
-38 -34 -41 -10 -3 -18 -10 -18 -15 0 -5 -7 -9 -16 -9 -8 0 -12 -5 -9 -11 4
-6 -1 -17 -11 -24 -18 -14 -18 -14 -1 -15 10 0 20 7 23 15 4 8 12 15 19 15 7
0 15 9 18 20 3 12 14 20 26 20 42 0 58 83 19 94 -18 4 -20 8 -10 18 9 9 15 9
24 0 7 -7 19 -12 27 -12 8 0 12 3 8 6 -6 6 8 24 56 75 15 16 27 33 27 39 0 5
7 10 15 10 15 0 21 -31 8 -43 -9 -9 -15 -67 -7 -67 4 0 12 7 19 17 17 23 30
10 33 -32 2 -29 -3 -41 -23 -57 -24 -19 -25 -22 -11 -37 22 -24 20 -28 -14
-28 -21 0 -29 4 -26 13 4 10 -2 10 -25 2 l-29 -10 22 -17 c28 -22 58 -33 58
-22 0 11 63 10 77 -2 7 -5 13 -6 13 -1 1 5 7 -2 14 -15 10 -18 15 -20 21 -10
5 7 8 124 8 261 0 144 4 245 9 242 5 -3 6 5 3 18 -7 31 7 50 39 51 18 2 26 8
26 20 0 17 195 218 204 210 3 -3 15 4 27 16 13 12 26 21 30 21 4 0 14 6 21 14
7 8 47 49 88 93 41 43 100 105 131 138 31 33 82 83 114 110 117 100 187 171
242 242 30 40 65 75 77 79 28 9 91 57 144 111 24 25 47 41 50 38 13 -12 10
-67 -4 -72 -9 -3 -10 -11 -4 -28 5 -13 9 -36 9 -51 -1 -16 5 -51 11 -79 18
-81 24 -213 10 -230 -7 -9 -8 -15 -2 -15 18 0 -14 -275 -40 -339 -14 -35 -20
-231 -7 -231 13 0 1 -63 -12 -68 -5 -2 -15 -10 -22 -17 -8 -7 -45 -33 -83 -57
-62 -40 -134 -107 -134 -126 0 -4 -30 -38 -65 -77 -36 -38 -65 -72 -65 -75 0
-3 -34 -41 -75 -84 -50 -51 -81 -76 -91 -72 -10 4 -14 0 -12 -11 2 -11 -12
-25 -39 -41 -24 -13 -43 -27 -43 -32 0 -21 35 -16 87 13 62 35 99 43 120 25
10 -8 13 -7 13 5 0 9 9 15 23 15 12 1 49 3 82 6 54 5 155 6 242 2 33 -1 73
-30 59 -43 -4 -4 -11 -2 -15 6 -6 9 -9 8 -13 -7 -4 -15 -1 -18 19 -14 20 4 23
9 19 28 -4 13 -3 24 1 25 45 6 181 8 193 2 8 -3 26 -7 40 -8 91 -6 207 -28
248 -48 20 -9 25 -8 33 6 10 17 40 23 53 10 4 -5 20 -8 34 -9 15 0 52 -4 82
-7 30 -4 88 -9 128 -12 40 -3 84 -10 98 -15 14 -6 29 -8 33 -5 9 5 104 15 156
17 61 2 65 0 65 -34 0 -23 3 -29 9 -19 5 8 7 20 4 27 -3 8 5 18 20 23 33 13
44 31 19 31 -11 0 -22 9 -25 20 -5 20 -37 29 -37 10 0 -5 -7 -10 -16 -10 -10
0 -14 6 -10 15 6 18 -2 45 -15 45 -4 0 -6 -7 -3 -15 4 -8 2 -15 -3 -15 -16 0
-32 22 -26 39 4 13 3 14 -5 2 -9 -12 -13 -13 -27 -1 -9 7 -14 19 -11 27 3 7
-1 13 -8 13 -8 0 -17 7 -20 16 -3 8 -11 12 -17 8 -7 -4 -19 3 -29 16 -9 12
-22 21 -28 19 -12 -4 46 -67 94 -104 14 -11 42 -34 61 -51 l35 -31 -41 -7
c-23 -3 -52 -4 -64 -1 -13 4 -35 1 -51 -4 -30 -12 -79 -4 -70 10 3 5 -2 9 -10
9 -10 0 -13 -6 -10 -15 8 -19 -10 -19 -39 0 -14 9 -39 13 -64 11 -45 -3 -57 1
-66 24 -4 11 -6 11 -6 -4 -1 -16 -6 -17 -48 -11 -27 4 -50 10 -53 14 -3 4 -14
8 -25 8 -11 1 -37 4 -59 8 -28 6 -40 4 -47 -6 -6 -10 -9 -10 -9 -1 0 18 -18
15 -22 -5 -3 -15 -4 -15 -19 -1 -9 10 -43 19 -85 23 -38 4 -73 10 -79 14 -5 3
-26 7 -45 9 -102 7 -133 12 -144 21 -7 6 -16 8 -20 4 -10 -11 -119 -16 -241
-12 -38 1 -84 -1 -102 -5 -17 -4 -53 -9 -80 -11 -26 -2 -60 -6 -75 -10 -41
-11 -35 6 27 66 30 30 55 57 55 62 0 4 17 26 38 49 20 23 58 64 83 92 25 28
48 59 52 68 8 23 107 94 159 114 56 22 70 34 63 52 -3 8 0 21 7 29 7 9 13 53
14 111 1 59 6 98 13 100 7 2 9 18 5 43 -5 30 -3 40 9 45 12 4 14 11 7 29 -5
13 -7 25 -4 28 3 3 7 49 8 103 2 55 4 111 5 127 1 20 6 27 20 27 11 0 23 5 27
11 4 7 -2 9 -17 7 -20 -2 -24 2 -25 22 -4 88 -15 192 -23 214 -12 29 -11 27
-10 185 0 104 4 130 21 163 11 21 28 43 39 48 10 6 28 28 40 50 14 25 30 40
42 40 15 0 17 3 8 13 -13 16 6 67 25 67 6 0 17 7 24 15 11 13 10 18 -3 28 -11
9 -13 18 -6 35 9 24 28 29 47 10 9 -9 12 -9 12 0 0 6 -9 17 -20 24 -11 7 -20
16 -20 19 0 4 9 9 20 12 15 4 20 0 20 -14 0 -10 5 -19 10 -19 13 0 9 32 -5 43
-6 4 -5 10 4 16 7 5 10 14 6 20 -5 9 -10 9 -20 1 -24 -20 -25 6 -3 74 20 63
34 81 42 54 2 -7 11 -37 20 -66 8 -29 13 -66 10 -82 -9 -42 3 -80 25 -80 38 0
68 -180 75 -448 1 -20 8 -37 18 -43 23 -13 28 8 17 82 -14 99 -26 224 -23 228
7 8 34 -22 34 -38 0 -9 7 -29 15 -45 9 -16 13 -36 11 -43 -3 -7 -1 -13 4 -13
16 0 56 -44 62 -67 7 -27 0 -29 -29 -8 -33 23 -41 -3 -9 -29 l26 -21 -15 -64
c-9 -36 -20 -70 -26 -77 -6 -8 -8 -48 -4 -111 4 -54 6 -105 6 -113 -4 -38 -2
-68 7 -105 5 -22 9 -134 8 -248 -1 -164 -4 -210 -15 -216 -8 -5 -9 -10 -3 -12
13 -5 19 -90 8 -108 -6 -9 -11 -9 -22 0 -8 6 -18 9 -21 5 -4 -4 -2 -11 5 -15
7 -4 12 -12 10 -17 -2 -5 2 -11 7 -13 6 -3 26 -36 45 -74 19 -38 46 -79 58
-91 13 -11 35 -33 50 -48 14 -16 31 -28 39 -28 7 0 18 -11 23 -25 5 -14 16
-25 25 -25 8 0 25 -11 37 -25 12 -14 27 -25 35 -25 7 0 20 -11 29 -26 11 -15
21 -21 26 -16 13 13 -13 54 -29 47 -7 -2 -13 0 -13 5 0 6 -6 10 -13 10 -8 0
-19 11 -25 25 -8 17 -20 25 -36 25 -19 0 -29 9 -42 40 -10 22 -23 41 -28 42
-6 0 -18 2 -26 2 -8 1 -15 8 -15 16 0 20 -30 62 -38 53 -4 -3 -7 7 -7 24 0 17
-8 38 -20 48 -26 23 -28 85 -3 85 15 0 15 2 -1 19 -15 16 -16 25 -6 60 6 23 8
46 4 52 -3 6 -8 133 -11 282 -4 260 -9 396 -13 407 -7 19 -6 57 2 67 5 7 7 16
5 20 -5 7 14 94 28 131 6 17 84 -40 151 -110 158 -164 354 -399 354 -424 0 -8
5 -14 10 -14 6 0 10 -9 10 -19 0 -11 6 -22 13 -25 9 -5 9 -7 -1 -12 -16 -8 -5
-25 12 -18 8 3 30 -15 52 -43 22 -26 42 -50 45 -53 4 -3 15 -18 25 -35 11 -16
33 -45 49 -64 93 -105 129 -141 138 -141 6 0 -13 26 -42 58 -88 97 -239 296
-254 334 -3 10 1 26 11 38 15 17 30 21 112 22 72 2 102 -1 125 -14 46 -25 121
-30 203 -15 60 12 74 12 83 0 6 -7 20 -13 30 -13 10 0 20 -3 22 -7 3 -5 -2
-46 -11 -93 -15 -85 -20 -264 -9 -309 4 -13 2 -32 -4 -42 -8 -16 -6 -19 12
-19 15 0 19 4 13 13 -11 14 -11 37 -2 52 5 8 14 63 23 130 1 6 4 17 7 25 24
58 61 203 64 249 4 79 16 82 63 17 23 -31 62 -79 86 -106 25 -28 54 -69 66
-92 27 -53 142 -229 163 -250 19 -20 21 -35 4 -40 -9 -3 -4 -17 15 -46 27 -42
27 -42 8 -59 -20 -16 -20 -17 -1 -30 15 -10 17 -19 11 -36 -5 -12 -12 -53 -16
-92 -4 -38 -12 -78 -17 -89 -7 -12 -6 -22 1 -29 8 -8 11 -8 11 0 0 6 9 13 20
16 12 3 20 0 20 -8 0 -7 -8 -12 -17 -11 -16 1 -18 -13 -20 -156 -1 -87 2 -160
7 -163 4 -2 7 10 5 27 -3 43 10 87 31 103 10 7 14 17 9 25 -6 10 -9 9 -16 -1
-4 -7 -11 -11 -14 -8 -9 10 6 39 20 39 8 0 13 15 13 40 0 22 4 44 7 50 3 5 3
15 -1 22 -12 19 -14 61 -3 74 6 8 5 14 -6 18 -14 5 -15 20 -11 99 6 107 12
127 35 127 18 0 44 47 31 55 -5 3 -11 -4 -15 -15 -9 -27 -19 -25 -40 8 -10 15
-24 31 -32 35 -7 5 -11 13 -7 18 5 9 -13 44 -38 74 -20 23 -98 148 -103 166
-4 10 -10 19 -15 19 -4 0 -15 17 -23 38 -8 20 -39 62 -67 92 -29 30 -64 71
-79 90 -53 70 -108 120 -130 120 -19 0 -23 -4 -19 -24 4 -18 0 -26 -16 -30
-11 -3 -23 -3 -26 0 -3 3 -3 74 -1 157 7 293 2 417 -20 444 -21 24 -27 0 -18
-72 12 -97 11 -523 -1 -545 -11 -20 -42 -27 -150 -36 -58 -4 -91 -1 -148 15
-61 17 -83 18 -145 10 -39 -5 -80 -10 -89 -10 -10 0 -18 -7 -18 -15 0 -26 -14
-13 -86 77 -197 247 -385 441 -446 461 -9 3 -9 11 1 35 14 35 7 52 -41 104
-15 16 -35 51 -44 77 -10 26 -23 56 -30 67 -7 11 -20 48 -29 82 -8 35 -27 84
-41 110 -15 27 -26 63 -25 81 0 20 -7 40 -19 52 -11 11 -20 28 -20 38 0 11 -9
27 -20 37 -22 20 -27 60 -7 69 6 4 -5 4 -25 2 -21 -3 -40 0 -43 5 -4 5 -10 9
-15 9 -5 0 0 -16 11 -35z m-1508 -811 c8 -8 -3 -34 -14 -34 -5 0 -9 9 -9 20 0
19 11 26 23 14z m6 -260 c-14 -18 -24 -11 -15 11 3 9 11 13 16 10 8 -5 7 -11
-1 -21z m3056 -228 c-6 -86 -38 -210 -56 -222 -18 -10 0 150 28 263 22 89 36
69 28 -41z m-3085 23 c0 -6 -8 -13 -19 -16 -22 -5 -23 -40 -1 -53 12 -7 12
-12 -4 -29 -15 -17 -16 -23 -6 -36 7 -8 14 -57 16 -121 3 -58 6 -123 8 -145 3
-37 2 -39 -26 -39 -26 0 -29 3 -25 21 4 15 2 18 -7 10 -7 -6 -30 -9 -52 -7
-21 2 -49 4 -62 5 -16 1 -21 5 -16 14 6 8 3 8 -9 -2 -9 -7 -23 -11 -31 -8 -7
3 -17 2 -22 -3 -12 -11 -111 -15 -153 -5 -34 7 -34 7 -13 24 12 9 33 32 47 51
14 19 54 65 88 101 34 37 91 99 126 138 35 39 70 71 77 71 7 0 18 9 24 20 11
21 60 28 60 9z m3020 1 c0 -5 -7 -10 -16 -10 -8 0 -12 5 -9 10 3 6 10 10 16
10 5 0 9 -4 9 -10z m-1754 -307 c-10 -10 -19 5 -10 18 6 11 8 11 12 0 2 -7 1
-15 -2 -18z m-1726 -82 c0 -16 -41 -61 -51 -56 -13 9 19 65 36 65 8 0 15 -4
15 -9z m327 -63 c18 -14 -7 -70 -32 -75 -21 -4 -97 -4 -152 0 -35 2 -53 24
-27 34 8 3 43 3 76 -1 53 -5 59 -4 48 9 -7 8 -21 15 -30 15 -25 0 -50 10 -50
21 0 18 142 16 167 -3z m-219 1 c-4 -12 -24 -14 -86 -10 -43 2 -14 17 38 20
38 1 51 -1 48 -10z m352 -19 c0 -7 -14 -8 -37 -4 -52 9 -54 14 -5 14 23 0 42
-5 42 -10z m-66 -24 c22 -11 24 -15 11 -20 -30 -11 -65 -7 -65 8 0 8 6 17 13
19 6 3 13 6 13 6 1 1 14 -5 28 -13z m26 -146 c-12 -16 -26 -30 -31 -30 -5 0
-9 -13 -9 -29 0 -16 -3 -31 -7 -33 -10 -4 -63 -82 -63 -92 0 -12 -40 -66 -50
-66 -9 0 10 57 37 112 24 49 137 191 141 179 2 -6 -6 -24 -18 -41z m60 5 c0
-8 -4 -15 -10 -15 -5 0 -10 7 -10 15 0 8 5 15 10 15 6 0 10 -7 10 -15z m-27
-77 c-6 -30 -5 -32 10 -19 14 11 17 11 18 0 11 -265 11 -275 -8 -249 -21 29
-43 158 -32 188 5 13 3 25 -7 32 -19 16 -18 39 3 62 22 24 24 23 16 -14z
m3524 -120 c-3 -8 -6 -5 -6 6 -1 11 2 17 5 13 3 -3 4 -12 1 -19z m13 -153 c0
-8 -4 -15 -10 -15 -5 0 -7 7 -4 15 4 8 8 15 10 15 2 0 4 -7 4 -15z m-3550 -29
c0 -3 -4 -8 -10 -11 -5 -3 -10 -1 -10 4 0 6 5 11 10 11 6 0 10 -2 10 -4z
m1780 -96 c0 -5 -9 -10 -21 -10 -11 0 -17 5 -14 10 3 6 13 10 21 10 8 0 14 -4
14 -10z m-2040 -100 c0 -5 -4 -10 -10 -10 -5 0 -10 5 -10 10 0 6 5 10 10 10 6
0 10 -4 10 -10z m-190 -10 c0 -6 -7 -13 -15 -16 -8 -4 -15 -15 -15 -25 0 -10
-4 -19 -10 -19 -5 0 -10 -9 -10 -20 0 -11 -5 -20 -12 -20 -6 0 -8 3 -5 7 4 3
2 12 -3 18 -7 8 -1 23 18 48 26 35 52 48 52 27z m84 -12 c-7 -11 -34 -10 -34
1 0 6 9 9 19 8 11 0 17 -5 15 -9z m-169 -79 c-14 -42 -12 -99 2 -99 8 0 17 8
20 18 9 21 43 51 61 52 13 0 17 16 5 23 -5 2 -2 2 5 0 8 -1 21 -3 30 -3 14 -1
14 -3 -4 -18 -30 -26 -44 -55 -38 -83 4 -17 3 -20 -4 -10 -7 10 -14 11 -31 2
-12 -7 -26 -9 -31 -6 -6 3 -10 -1 -10 -10 0 -11 -5 -15 -16 -11 -8 3 -12 2 -9
-4 11 -18 -6 -32 -23 -18 -13 11 -15 10 -9 -4 4 -11 2 -15 -7 -12 -15 6 -56
-28 -56 -47 0 -12 -2 -11 -9 0 -8 12 -12 12 -25 2 -14 -12 -16 -10 -16 10 0
29 49 101 66 95 6 -2 22 6 34 19 13 14 27 22 31 19 5 -3 6 2 3 10 -5 14 -9 13
-30 -2 -13 -9 -24 -20 -24 -24 0 -5 -5 -8 -10 -8 -6 0 -1 14 12 30 12 17 28
30 35 30 7 0 16 12 19 28 9 35 13 42 25 42 6 0 7 -9 4 -21z m187 -1 c-7 -7
-12 -8 -12 -2 0 14 12 26 19 19 2 -3 -1 -11 -7 -17z m145 6 c-3 -3 -12 -4 -19
-1 -8 3 -5 6 6 6 11 1 17 -2 13 -5z m-87 -44 c0 -5 -4 -10 -10 -10 -5 0 -10 5
-10 10 0 6 5 10 10 10 6 0 10 -4 10 -10z m-45 -20 c3 -5 -3 -10 -14 -10 -12 0
-21 5 -21 10 0 6 6 10 14 10 8 0 18 -4 21 -10z m-45 -10 c0 -5 -4 -10 -10 -10
-5 0 -10 5 -10 10 0 6 5 10 10 10 6 0 10 -4 10 -10z m-30 -32 c0 -12 -1 -19
-3 -17 -1 2 -9 12 -16 22 -12 14 -11 17 3 17 10 0 16 -8 16 -22z"/>
<path d="M955 2460 c-3 -6 1 -7 9 -4 18 7 21 14 7 14 -6 0 -13 -4 -16 -10z"/>
<path d="M3636 4226 c-10 -40 -38 -49 -95 -32 -27 8 -59 20 -71 26 -12 6 -24
10 -26 7 -9 -9 49 -39 102 -53 64 -16 99 -7 106 30 7 34 -8 55 -16 22z"/>
<path d="M2940 4223 c0 -11 11 -30 25 -43 21 -20 27 -21 42 -9 39 30 46 58 8
33 -23 -15 -25 -15 -50 12 -22 24 -25 25 -25 7z"/>
<path d="M2764 3848 c3 -24 7 -48 8 -55 1 -7 5 -10 10 -7 4 3 13 -5 18 -18 9
-19 9 -17 4 12 -3 19 -5 50 -5 69 2 30 0 33 -14 21 -13 -11 -14 -10 -9 4 4 9
1 16 -6 16 -8 0 -10 -13 -6 -42z"/>
<path d="M2620 3740 c0 -5 -11 -12 -25 -16 -14 -3 -25 -11 -25 -16 0 -6 -8
-17 -17 -25 -17 -13 -16 -14 5 -10 30 7 28 -11 -2 -19 -16 -4 -23 -11 -19 -20
3 -8 -4 -18 -18 -23 -16 -6 -18 -10 -8 -10 9 -1 22 -8 29 -16 17 -20 31 -19
23 1 -5 13 -2 15 14 10 18 -6 21 -3 19 19 -1 23 -16 37 -16 15 0 -5 -4 -10
-10 -10 -18 0 -10 22 10 27 11 3 21 12 22 19 0 8 1 20 2 27 1 6 3 14 6 17 21
21 31 40 21 40 -6 0 -11 -4 -11 -10z"/>
<path d="M2780 3738 c0 -9 -6 -19 -12 -21 -7 -3 -8 -6 -3 -6 6 0 17 4 25 9 12
7 12 12 2 22 -9 9 -12 9 -12 -4z"/>
<path d="M1215 3680 c-3 -5 -1 -10 4 -10 6 0 11 5 11 10 0 6 -2 10 -4 10 -3 0
-8 -4 -11 -10z"/>
<path d="M2780 3675 c-7 -9 -10 -18 -7 -21 3 -3 10 4 17 15 13 25 8 27 -10 6z"/>
<path d="M1754 3614 c3 -9 6 -18 6 -20 0 -3 5 -2 10 1 16 10 12 35 -6 35 -11
0 -14 -5 -10 -16z"/>
<path d="M2650 3620 c-18 -11 -10 -21 19 -23 11 -1 21 -7 21 -14 0 -7 5 -13
10 -13 6 0 10 7 10 15 0 8 5 15 12 15 8 0 9 3 2 10 -15 15 -57 21 -74 10z"/>
<path d="M2765 3610 c-3 -5 -2 -10 4 -10 5 0 18 -3 28 -7 16 -6 16 -5 4 10
-15 19 -27 22 -36 7z"/>
<path d="M1810 3586 c0 -9 7 -16 16 -16 9 0 14 5 12 12 -6 18 -28 21 -28 4z"/>
<path d="M3348 3593 c7 -3 16 -2 19 1 4 3 -2 6 -13 5 -11 0 -14 -3 -6 -6z"/>
<path d="M2650 3570 c0 -5 5 -10 11 -10 5 0 7 5 4 10 -3 6 -8 10 -11 10 -2 0
-4 -4 -4 -10z"/>
<path d="M1760 3549 c0 -5 5 -7 10 -4 6 3 10 8 10 11 0 2 -4 4 -10 4 -5 0 -10
-5 -10 -11z"/>
<path d="M1845 3550 c3 -5 8 -10 11 -10 2 0 4 5 4 10 0 6 -5 10 -11 10 -5 0
-7 -4 -4 -10z"/>
<path d="M1804 3493 c-11 -92 -9 -402 3 -414 14 -14 28 7 16 24 -8 11 -9 79
-2 345 2 107 -6 130 -17 45z"/>
<path d="M3591 3534 c0 -11 3 -14 6 -6 3 7 2 16 -1 19 -3 4 -6 -2 -5 -13z"/>
<path d="M1758 3518 c0 -7 -2 -95 -3 -196 -2 -100 -6 -189 -9 -198 -8 -20 3
-66 14 -59 5 3 7 24 5 48 -2 23 0 46 3 51 9 15 9 357 0 362 -4 3 -9 -1 -10 -8z"/>
<path d="M2520 3505 c-8 -21 -6 -30 9 -46 18 -20 18 -20 13 7 -3 18 0 30 12
36 19 10 12 28 -10 28 -8 0 -19 -11 -24 -25z"/>
<path d="M2640 3518 c0 -17 18 -44 24 -37 8 7 -5 49 -15 49 -5 0 -9 -6 -9 -12z"/>
<path d="M2680 3519 c0 -5 9 -9 20 -9 11 0 20 2 20 4 0 2 -9 6 -20 9 -11 3
-20 1 -20 -4z"/>
<path d="M3597 3491 c-9 -16 -17 -40 -17 -52 0 -40 -9 -209 -14 -261 -5 -51 8
-66 19 -20 5 26 12 103 19 217 2 28 7 71 11 98 4 26 6 47 4 47 -3 0 -12 -13
-22 -29z"/>
<path d="M2660 3446 c0 -9 -6 -15 -12 -13 -7 1 -13 -4 -13 -10 0 -20 19 -17
33 5 9 14 10 22 3 27 -6 3 -11 -1 -11 -9z"/>
<path d="M2524 3354 c4 -10 -1 -22 -11 -31 -13 -10 -15 -16 -5 -19 6 -3 12
-19 12 -35 0 -20 4 -28 11 -23 6 3 9 19 5 35 -4 21 -2 29 9 29 11 0 12 6 4 30
-6 17 -15 30 -21 30 -6 0 -7 -7 -4 -16z"/>
<path d="M1135 3320 c3 -5 8 -10 11 -10 2 0 4 5 4 10 0 6 -5 10 -11 10 -5 0
-7 -4 -4 -10z"/>
<path d="M2815 3200 c-3 -5 -1 -10 4 -10 6 0 11 5 11 10 0 6 -2 10 -4 10 -3 0
-8 -4 -11 -10z"/>
<path d="M2820 3120 c0 -5 5 -10 10 -10 6 0 10 5 10 10 0 6 -4 10 -10 10 -5 0
-10 -4 -10 -10z"/>
<path d="M3571 3094 c0 -11 3 -14 6 -6 3 7 2 16 -1 19 -3 4 -6 -2 -5 -13z"/>
<path d="M2825 3080 c3 -5 14 -10 23 -10 15 0 15 2 2 10 -20 13 -33 13 -25 0z"/>
<path d="M2824 3035 c-4 -8 -14 -15 -23 -16 -10 0 -11 -2 -3 -6 6 -2 12 -11
12 -19 0 -18 10 -17 34 1 10 8 24 12 30 9 6 -3 3 1 -6 9 -10 8 -18 19 -18 26
0 16 -20 14 -26 -4z"/>
<path d="M3547 3043 c-14 -13 -6 -43 13 -53 18 -10 20 -8 20 25 0 33 -15 46
-33 28z"/>
<path d="M1558 3033 c7 -3 16 -2 19 1 4 3 -2 6 -13 5 -11 0 -14 -3 -6 -6z"/>
<path d="M2180 3026 c0 -9 30 -14 35 -6 4 6 -3 10 -14 10 -12 0 -21 -2 -21 -4z"/>
<path d="M4770 3021 c0 -6 5 -13 10 -16 6 -3 10 1 10 9 0 9 -4 16 -10 16 -5 0
-10 -4 -10 -9z"/>
<path d="M2558 3008 c9 -9 15 -9 24 0 9 9 7 12 -12 12 -19 0 -21 -3 -12 -12z"/>
<path d="M2648 3013 c7 -3 16 -2 19 1 4 3 -2 6 -13 5 -11 0 -14 -3 -6 -6z"/>
<path d="M2748 3013 c6 -2 18 -2 25 0 6 3 1 5 -13 5 -14 0 -19 -2 -12 -5z"/>
<path d="M1200 2999 c0 -5 5 -7 10 -4 6 3 10 8 10 11 0 2 -4 4 -10 4 -5 0 -10
-5 -10 -11z"/>
<path d="M4779 2990 c-23 -13 -27 -130 -5 -130 12 0 14 7 10 30 -4 19 -2 30 5
30 6 0 11 11 11 24 0 13 5 26 12 28 6 2 8 10 4 16 -9 14 -16 15 -37 2z"/>
<path d="M2507 2833 c-4 -3 -2 -13 5 -20 9 -11 9 -16 -2 -23 -8 -5 -11 -12 -7
-16 14 -14 39 22 32 45 -6 21 -16 26 -28 14z"/>
<path d="M3561 2816 c-11 -13 -11 -20 -3 -28 8 -8 13 -7 18 5 10 27 0 41 -15
23z"/>
<path d="M4760 2810 c0 -5 5 -10 10 -10 6 0 10 5 10 10 0 6 -4 10 -10 10 -5 0
-10 -4 -10 -10z"/>
<path d="M3540 2754 c0 -6 3 -14 8 -18 4 -4 7 -17 7 -29 0 -11 6 -22 13 -24
20 -7 14 36 -8 59 -11 12 -20 17 -20 12z"/>
<path d="M3560 2655 c0 -8 5 -15 10 -15 6 0 10 7 10 15 0 8 -4 15 -10 15 -5 0
-10 -7 -10 -15z"/>
<path d="M1791 2594 c0 -11 3 -14 6 -6 3 7 2 16 -1 19 -3 4 -6 -2 -5 -13z"/>
<path d="M1359 2454 c-25 -14 -11 -17 31 -5 19 5 21 8 9 13 -8 3 -26 0 -40 -8z"/>
<path d="M1746 2455 c-4 -12 -1 -16 11 -13 18 3 21 20 5 26 -5 1 -12 -4 -16
-13z"/>
<path d="M1435 2450 c-16 -7 -13 -9 17 -9 20 -1 40 4 43 9 7 12 -32 12 -60 0z"/>
<path d="M1620 2450 c-12 -8 -11 -10 8 -10 12 0 22 5 22 10 0 13 -11 13 -30 0z"/>
<path d="M1790 2449 c0 -5 5 -7 10 -4 6 3 10 8 10 11 0 2 -4 4 -10 4 -5 0 -10
-5 -10 -11z"/>
<path d="M1835 2450 c-3 -6 1 -7 9 -4 18 7 21 14 7 14 -6 0 -13 -4 -16 -10z"/>
<path d="M3918 2441 c12 -10 22 -22 22 -27 0 -12 40 -37 47 -30 7 7 -67 76
-80 76 -6 0 0 -8 11 -19z"/>
<path d="M2609 2440 c-11 -7 -10 -10 4 -16 10 -4 23 -2 28 3 14 14 -13 24 -32
13z"/>
<path d="M2723 2443 c-7 -3 -13 -14 -12 -26 0 -12 3 -16 6 -9 2 6 11 12 19 12
15 0 19 16 7 23 -5 2 -14 2 -20 0z"/>
<path d="M4702 2441 c2 -7 7 -12 11 -12 12 1 9 15 -3 20 -7 2 -11 -2 -8 -8z"/>
<path d="M2228 2433 c7 -3 16 -2 19 1 4 3 -2 6 -13 5 -11 0 -14 -3 -6 -6z"/>
<path d="M2355 2430 c3 -5 13 -10 21 -10 8 0 12 5 9 10 -3 6 -13 10 -21 10 -8
0 -12 -4 -9 -10z"/>
<path d="M3060 2430 c-12 -7 -10 -9 7 -7 12 0 19 5 17 9 -6 10 -6 10 -24 -2z"/>
<path d="M4584 2430 c-18 -17 -122 -38 -133 -27 -13 13 -14 -2 -1 -23 7 -12
17 -12 57 -3 26 7 65 14 86 18 20 3 37 10 37 15 0 14 -36 30 -46 20z"/>
<path d="M3270 2420 c0 -5 7 -10 15 -10 8 0 15 5 15 10 0 6 -7 10 -15 10 -8 0
-15 -4 -15 -10z"/>
<path d="M3481 2420 c-9 -5 -8 -9 5 -14 9 -4 21 -3 26 2 12 12 -15 23 -31 12z"/>
<path d="M3565 2420 c-3 -5 1 -13 10 -16 22 -9 29 1 11 15 -10 8 -16 9 -21 1z"/>
<path d="M1600 2410 c0 -5 7 -10 16 -10 8 0 12 5 9 10 -3 6 -10 10 -16 10 -5
0 -9 -4 -9 -10z"/>
<path d="M1690 2410 c-19 -4 -29 -8 -22 -9 6 0 12 -6 12 -12 0 -8 -17 -10 -55
-5 -30 3 -55 2 -55 -2 0 -5 14 -9 31 -10 18 0 49 -4 69 -7 23 -4 41 -2 45 4 3
6 1 11 -4 11 -6 0 -11 5 -11 10 0 6 9 10 20 10 11 0 20 5 20 10 0 6 -3 9 -7 9
-5 -1 -24 -5 -43 -9z"/>
<path d="M1785 2410 c-7 -11 19 -20 34 -10 9 5 7 9 -8 13 -12 3 -23 2 -26 -3z"/>
<path d="M3648 2413 c6 -2 18 -2 25 0 6 3 1 5 -13 5 -14 0 -19 -2 -12 -5z"/>
<path d="M4127 2414 c-2 -2 -19 -5 -37 -7 -25 -2 -34 -8 -36 -22 -2 -11 -6
-32 -10 -47 -4 -17 -1 -34 9 -48 10 -15 13 -34 10 -57 -4 -24 -2 -38 8 -44 8
-5 9 -9 3 -9 -10 0 -14 -22 -29 -155 -2 -16 -6 -56 -10 -87 -4 -38 -3 -58 4
-58 10 0 19 28 20 63 1 51 4 67 12 67 10 0 4 -163 -6 -180 -3 -5 3 -10 15 -10
19 0 21 5 20 63 0 34 2 97 4 140 3 42 1 77 -4 77 -11 0 -20 -26 -20 -56 0 -13
-5 -24 -11 -24 -7 0 -8 11 -3 33 4 17 7 42 7 53 -1 16 4 20 17 17 16 -4 18 3
17 59 0 44 -5 68 -16 78 -9 8 -18 24 -19 34 -3 18 -2 18 13 6 15 -13 16 -11
11 21 -4 21 -1 40 6 49 13 15 78 23 78 10 0 -4 17 -7 38 -8 29 -1 33 1 20 9
-23 13 -106 38 -111 33z m-68 -98 c-9 -8 -10 -7 -5 7 3 10 7 24 7 30 1 7 3 4
6 -7 3 -10 -1 -23 -8 -30z m31 -156 c0 -5 -4 -10 -10 -10 -5 0 -10 5 -10 10 0
6 5 10 10 10 6 0 10 -4 10 -10z"/>
<path d="M3698 2403 c6 -2 18 -2 25 0 6 3 1 5 -13 5 -14 0 -19 -2 -12 -5z"/>
<path d="M2002 2386 c2 -13 12 -20 31 -20 16 -1 31 2 33 6 3 4 -5 8 -18 8 -13
0 -30 6 -37 13 -10 10 -12 8 -9 -7z"/>
<path d="M2153 2388 c3 -9 1 -19 -6 -22 -7 -2 -1 -5 12 -5 21 -1 22 1 10 17
-21 27 -23 28 -16 10z"/>
<path d="M1920 2380 c-7 -5 -2 -9 14 -12 15 -3 29 -2 31 2 7 11 -30 19 -45 10z"/>
<path d="M4369 2374 c-9 -11 -6 -14 20 -14 34 0 42 15 11 23 -10 3 -24 -1 -31
-9z"/>
<path d="M1755 2370 c-25 -6 -21 -8 25 -9 39 0 51 2 40 9 -17 11 -22 11 -65 0z"/>
<path d="M2090 2370 c-13 -8 -13 -10 2 -10 9 0 20 5 23 10 8 13 -5 13 -25 0z"/>
<path d="M3560 2370 c0 -5 5 -10 10 -10 6 0 10 5 10 10 0 6 -4 10 -10 10 -5 0
-10 -4 -10 -10z"/>
<path d="M4115 2371 c-3 -5 -1 -12 5 -16 5 -3 10 1 10 9 0 18 -6 21 -15 7z"/>
<path d="M4280 2370 c0 -12 21 -17 47 -12 35 7 28 18 -12 19 -19 1 -35 -3 -35
-7z"/>
<path d="M3375 2360 c-3 -5 -1 -10 4 -10 6 0 11 5 11 10 0 6 -2 10 -4 10 -3 0
-8 -4 -11 -10z"/>
<path d="M942 2330 c-6 -11 -12 -22 -12 -25 0 -11 20 6 30 26 14 25 -2 25 -18
-1z"/>
<path d="M1782 2315 c-1 -21 3 -33 8 -30 12 7 13 35 1 53 -5 8 -8 0 -9 -23z"/>
<path d="M4740 2304 c0 -8 5 -12 10 -9 6 3 10 10 10 16 0 5 -4 9 -10 9 -5 0
-10 -7 -10 -16z"/>
<path d="M2680 2270 c0 -5 5 -10 10 -10 6 0 10 5 10 10 0 6 -4 10 -10 10 -5 0
-10 -4 -10 -10z"/>
<path d="M4225 2260 c10 -11 23 -20 28 -20 6 0 2 9 -8 20 -10 11 -23 20 -28
20 -6 0 -2 -9 8 -20z"/>
<path d="M4151 2205 c1 -35 6 -62 11 -59 5 3 8 13 7 22 -3 37 1 42 26 36 16
-4 25 -2 25 6 0 6 -4 9 -9 5 -5 -3 -12 -1 -16 5 -4 6 -11 8 -16 5 -5 -4 -9 5
-9 19 0 14 -5 26 -11 26 -6 0 -9 -25 -8 -65z"/>
<path d="M897 2253 c-4 -3 -7 -13 -7 -22 1 -13 3 -13 11 2 11 19 8 33 -4 20z"/>
<path d="M1708 2223 c7 -3 16 -2 19 1 4 3 -2 6 -13 5 -11 0 -14 -3 -6 -6z"/>
<path d="M4270 2206 c0 -10 -4 -14 -10 -11 -5 3 -10 1 -10 -4 0 -6 9 -11 19
-11 14 0 18 -5 14 -20 -3 -11 4 -30 16 -46 12 -15 21 -23 21 -18 0 4 6 2 12
-4 10 -10 10 -14 0 -21 -17 -10 33 -45 54 -37 8 3 14 0 14 -8 0 -23 -13 -26
-37 -11 -28 19 -29 11 -4 -21 12 -16 22 -21 26 -14 10 16 58 -39 58 -67 0 -13
5 -23 12 -23 13 0 30 -44 26 -67 -1 -7 7 -13 17 -13 11 0 22 -8 26 -17 3 -10
10 -26 16 -35 26 -46 31 -55 41 -80 6 -16 15 -28 19 -28 4 0 13 -13 19 -30 18
-52 38 -35 32 28 -1 12 2 22 6 22 11 0 35 -39 29 -48 -2 -4 4 -8 15 -8 10 0
19 5 19 11 0 11 -44 68 -77 101 -13 11 -23 27 -23 34 0 8 -7 22 -17 32 -9 11
-11 18 -5 18 7 0 12 4 12 9 0 5 -8 8 -17 7 -9 0 -27 14 -40 33 -13 19 -23 30
-23 26 0 -4 -9 0 -20 10 -14 13 -17 22 -10 30 16 19 0 45 -27 45 -18 0 -24 4
-19 15 3 9 -3 23 -14 32 -10 9 -16 21 -13 27 3 6 2 8 -2 3 -5 -4 -15 7 -22 24
-7 17 -17 28 -23 24 -6 -3 -13 2 -17 12 -4 10 -13 24 -20 31 -7 7 -13 20 -13
28 0 8 -4 13 -9 9 -5 -3 -19 7 -30 21 -16 20 -21 23 -21 10z m45 -66 c3 -5 1
-10 -4 -10 -6 0 -11 5 -11 10 0 6 2 10 4 10 3 0 8 -4 11 -10z m165 -196 c0 -8
-4 -12 -10 -9 -5 3 -10 10 -10 16 0 5 5 9 10 9 6 0 10 -7 10 -16z m131 -247
c-8 -8 -11 -7 -11 4 0 20 13 34 18 19 3 -7 -1 -17 -7 -23z m21 -29 c-7 -7 -12
-8 -12 -2 0 14 12 26 19 19 2 -3 -1 -11 -7 -17z"/>
<path d="M4610 2160 c0 -5 5 -10 10 -10 6 0 10 5 10 10 0 6 -4 10 -10 10 -5 0
-10 -4 -10 -10z"/>
<path d="M2200 2125 c-11 -13 -10 -14 4 -9 9 3 16 10 16 15 0 13 -6 11 -20 -6z"/>
<path d="M4602 2085 c0 -16 2 -22 5 -12 2 9 2 23 0 30 -3 6 -5 -1 -5 -18z"/>
<path d="M4151 2071 c-1 -24 -1 -24 -16 -5 -14 17 -14 15 0 -14 9 -18 13 -36
11 -41 -3 -5 5 -25 19 -45 14 -20 25 -41 25 -46 0 -6 3 -10 6 -10 9 0 33 33
34 45 0 6 -5 3 -10 -5 -7 -11 -12 -12 -20 -4 -8 8 -8 14 -2 18 12 7 4 46 -10
46 -5 0 -6 -10 -3 -21 5 -15 4 -19 -4 -15 -6 4 -11 19 -10 34 0 15 -4 41 -9
57 -10 28 -10 28 -11 6z"/>
<path d="M4240 2073 c0 -7 33 -32 43 -33 16 0 5 16 -18 27 -14 6 -25 9 -25 6z"/>
<path d="M1000 2015 c-43 -55 -49 -71 -24 -57 36 19 74 61 74 82 0 30 -11 24
-50 -25z"/>
<path d="M4602 2034 c-8 -8 -11 -23 -7 -32 6 -16 7 -16 16 1 6 10 9 24 7 31
-2 12 -5 12 -16 0z"/>
<path d="M605 2020 c-3 -5 -1 -10 4 -10 6 0 11 5 11 10 0 6 -2 10 -4 10 -3 0
-8 -4 -11 -10z"/>
<path d="M4318 1950 c16 -29 16 -31 0 -41 -23 -13 -23 -21 3 -37 18 -12 20
-11 17 5 -2 10 3 23 10 29 12 9 12 14 1 35 -8 13 -18 27 -24 31 -21 16 -23 7
-7 -22z"/>
<path d="M4287 1940 c3 -11 9 -20 15 -20 5 0 4 9 -2 20 -6 11 -12 20 -14 20
-2 0 -2 -9 1 -20z"/>
<path d="M4223 1909 c-17 -17 5 -82 43 -125 18 -21 34 -43 34 -48 0 -5 7 -18
17 -28 9 -10 13 -21 9 -25 -9 -9 -136 124 -163 172 -11 20 -12 20 -21 -5 -8
-21 -6 -27 14 -37 12 -7 25 -22 29 -33 3 -11 15 -25 26 -31 12 -6 18 -17 15
-25 -9 -23 102 -113 118 -96 3 3 6 -2 6 -10 0 -9 8 -22 17 -29 15 -12 16 -12
8 1 -5 9 0 8 13 -4 12 -11 22 -24 22 -31 0 -6 13 -25 30 -41 16 -16 30 -34 30
-40 0 -16 39 -48 48 -39 4 4 2 10 -4 12 -16 5 -5 53 12 53 17 0 17 4 2 33 -7
12 -14 24 -15 26 -3 6 -29 -23 -36 -39 -4 -10 -6 -8 -6 7 -1 12 -5 25 -11 28
-12 7 -14 26 -2 24 4 -1 15 -1 25 0 16 1 17 3 3 16 -8 8 -19 15 -25 15 -13 0
-36 41 -33 60 1 8 -11 24 -27 34 -36 25 -75 102 -54 110 24 10 58 -11 77 -48
11 -20 23 -36 28 -36 5 0 8 -6 6 -12 -3 -18 24 -58 40 -58 9 0 12 -6 8 -15 -3
-9 0 -15 9 -15 17 0 20 16 6 25 -5 3 -12 19 -16 35 -4 17 -10 30 -15 30 -4 0
-11 11 -14 25 -4 14 -10 23 -15 21 -5 -3 -11 3 -14 14 -3 11 -1 23 4 26 16 10
-1 24 -29 24 -19 0 -23 3 -15 11 9 9 4 18 -18 37 -32 26 -44 26 -33 -2 3 -9
10 -13 16 -10 5 3 4 -3 -4 -15 -18 -30 -32 -32 -77 -13 -36 15 -41 21 -41 50
0 33 -8 40 -27 21z m92 -127 c-8 -8 -25 10 -19 20 4 6 9 5 15 -3 4 -7 6 -15 4
-17z m42 -57 c-4 -8 -2 -17 3 -20 6 -4 10 -10 10 -16 0 -5 -9 0 -20 11 -24 24
-26 40 -4 40 10 0 14 -6 11 -15z"/>
<path d="M949 1854 c-21 -22 -21 -24 -4 -18 21 8 45 29 45 38 0 13 -18 4 -41
-20z"/>
<path d="M1780 1865 c0 -8 4 -15 10 -15 5 0 7 7 4 15 -4 8 -8 15 -10 15 -2 0
-4 -7 -4 -15z"/>
<path d="M1697 1859 c7 -7 15 -10 18 -7 3 3 -2 9 -12 12 -14 6 -15 5 -6 -5z"/>
<path d="M955 1823 c-19 -15 -19 -15 10 -8 37 8 57 25 30 25 -11 0 -29 -8 -40
-17z"/>
<path d="M3645 1830 c-3 -6 1 -7 9 -4 18 7 21 14 7 14 -6 0 -13 -4 -16 -10z"/>
<path d="M3920 1829 c0 -5 9 -9 20 -9 11 0 20 2 20 4 0 2 -9 6 -20 9 -11 3
-20 1 -20 -4z"/>
<path d="M3748 1823 c7 -3 16 -2 19 1 4 3 -2 6 -13 5 -11 0 -14 -3 -6 -6z"/>
<path d="M4018 1823 c7 -3 16 -2 19 1 4 3 -2 6 -13 5 -11 0 -14 -3 -6 -6z"/>
<path d="M1143 1805 c-17 -19 -16 -28 1 -22 7 3 19 0 25 -6 15 -15 14 5 -1 25
-11 14 -15 15 -25 3z"/>
<path d="M2100 1810 c0 -5 4 -10 9 -10 6 0 13 5 16 10 3 6 -1 10 -9 10 -9 0
-16 -4 -16 -10z"/>
<path d="M2291 1804 c0 -11 3 -14 6 -6 3 7 2 16 -1 19 -3 4 -6 -2 -5 -13z"/>
<path d="M970 1771 c0 -12 5 -21 10 -21 6 0 10 6 10 14 0 8 -4 18 -10 21 -5 3
-10 -3 -10 -14z"/>
<path d="M2086 1774 c-9 -22 3 -32 14 -14 12 19 12 30 1 30 -5 0 -12 -7 -15
-16z"/>
<path d="M942 1761 c-11 -6 -10 -10 0 -19 11 -8 14 -7 14 9 0 10 0 19 -1 19 0
0 -6 -4 -13 -9z"/>
<path d="M2306 1762 c-2 -4 4 -8 15 -8 10 0 19 4 19 8 0 4 -6 8 -14 8 -8 0
-17 -4 -20 -8z"/>
<path d="M4385 1750 c3 -5 14 -10 23 -10 15 0 15 2 2 10 -20 13 -33 13 -25 0z"/>
<path d="M2367 1718 c-10 -17 -16 -33 -13 -35 7 -7 38 45 34 56 -1 6 -11 -3
-21 -21z"/>
<path d="M2961 1734 c0 -11 3 -14 6 -6 3 7 2 16 -1 19 -3 4 -6 -2 -5 -13z"/>
<path d="M900 1729 c0 -5 5 -7 10 -4 6 3 10 8 10 11 0 2 -4 4 -10 4 -5 0 -10
-5 -10 -11z"/>
<path d="M4140 1725 c0 -8 4 -15 10 -15 5 0 7 7 4 15 -4 8 -8 15 -10 15 -2 0
-4 -7 -4 -15z"/>
<path d="M2070 1698 c0 -25 3 -29 10 -18 13 20 13 50 0 50 -5 0 -10 -15 -10
-32z"/>
<path d="M3878 1673 c6 -2 18 -2 25 0 6 3 1 5 -13 5 -14 0 -19 -2 -12 -5z"/>
<path d="M2155 1659 c-4 -6 -5 -12 -2 -15 2 -3 7 2 10 11 7 17 1 20 -8 4z"/>
<path d="M2371 1654 c0 -11 3 -14 6 -6 3 7 2 16 -1 19 -3 4 -6 -2 -5 -13z"/>
<path d="M3460 1654 c0 -8 5 -12 10 -9 6 4 8 11 5 16 -9 14 -15 11 -15 -7z"/>
<path d="M3970 1660 c0 -5 5 -10 10 -10 6 0 10 5 10 10 0 6 -4 10 -10 10 -5 0
-10 -4 -10 -10z"/>
<path d="M2075 1650 c-3 -5 3 -10 15 -10 12 0 18 5 15 10 -3 6 -10 10 -15 10
-5 0 -12 -4 -15 -10z"/>
<path d="M4100 1650 c0 -5 5 -10 10 -10 6 0 10 5 10 10 0 6 -4 10 -10 10 -5 0
-10 -4 -10 -10z"/>
<path d="M4140 1636 c0 -14 5 -28 10 -31 6 -3 10 5 10 19 0 14 -4 28 -10 31
-6 3 -10 -5 -10 -19z"/>
<path d="M4455 1650 c-3 -5 -1 -10 4 -10 6 0 11 5 11 10 0 6 -2 10 -4 10 -3 0
-8 -4 -11 -10z"/>
<path d="M2672 1633 c2 -9 8 -18 15 -20 7 -3 9 3 6 16 -6 25 -26 28 -21 4z"/>
<path d="M3695 1610 c4 -6 11 -8 16 -5 14 9 11 15 -7 15 -8 0 -12 -5 -9 -10z"/>
<path d="M3730 1610 c0 -5 5 -10 11 -10 5 0 7 5 4 10 -3 6 -8 10 -11 10 -2 0
-4 -4 -4 -10z"/>
<path d="M3830 1594 c0 -8 5 -12 10 -9 6 3 10 10 10 16 0 5 -4 9 -10 9 -5 0
-10 -7 -10 -16z"/>
<path d="M4528 1604 c-9 -9 25 -64 40 -64 6 0 12 5 12 10 0 6 -5 10 -10 10 -6
0 -8 11 -4 25 5 20 2 25 -13 25 -11 0 -22 -3 -25 -6z"/>
<path d="M2370 1573 c0 -22 2 -25 10 -13 13 20 13 40 0 40 -5 0 -10 -12 -10
-27z"/>
<path d="M3923 1593 c-20 -8 -15 -23 7 -23 11 0 20 7 20 15 0 15 -6 17 -27 8z"/>
<path d="M4724 1591 c10 -16 16 -91 8 -91 -16 0 -51 49 -39 53 9 3 8 8 -2 21
-9 11 -18 13 -24 7 -16 -16 107 -221 134 -221 14 0 10 15 -10 37 -30 32 -50
78 -44 102 4 17 8 19 19 10 18 -15 18 -10 -6 45 -12 25 -25 46 -31 46 -6 0 -8
-4 -5 -9z"/>
<path d="M4035 1570 c-3 -5 -1 -10 4 -10 6 0 11 5 11 10 0 6 -2 10 -4 10 -3 0
-8 -4 -11 -10z"/>
<path d="M4140 1560 c0 -6 -5 -8 -11 -4 -8 4 -8 0 0 -15 7 -11 16 -21 21 -21
13 0 13 37 0 45 -5 3 -10 1 -10 -5z"/>
<path d="M4614 1563 c3 -6 0 -15 -7 -20 -19 -11 -27 -37 -17 -53 7 -11 11 -11
24 -1 13 11 14 17 4 28 -9 11 -9 16 3 23 12 8 12 11 0 22 -9 8 -12 9 -7 1z"/>
<path d="M3720 1530 c0 -15 21 -23 32 -12 6 6 2 11 -11 15 -12 3 -21 1 -21 -3z"/>
<path d="M2656 1513 c-6 -14 -5 -15 5 -6 7 7 10 15 7 18 -3 3 -9 -2 -12 -12z"/>
<path d="M3777 1523 c-14 -13 -6 -18 36 -21 144 -10 183 -15 190 -25 5 -9 10
-8 16 3 13 20 11 21 -61 27 -34 2 -67 8 -72 13 -5 5 -18 5 -30 1 -11 -5 -30
-5 -41 0 -26 10 -30 10 -38 2z"/>
<path d="M4650 1484 c6 -14 19 -33 29 -43 25 -21 66 -99 58 -107 -10 -11 -47
27 -62 63 -8 18 -19 33 -25 33 -6 0 -15 10 -20 23 -6 15 -9 17 -9 6 -1 -9 6
-22 14 -29 16 -13 21 -40 7 -40 -5 0 -22 20 -40 45 -29 41 -62 60 -62 35 0 -5
5 -10 11 -10 6 0 9 -6 7 -12 -6 -17 19 -41 34 -32 7 5 9 2 6 -8 -4 -9 6 -26
23 -42 36 -34 36 -39 2 -61 -21 -14 -25 -15 -20 -3 5 15 -20 21 -78 19 -22 -1
-159 0 -244 2 -30 0 -56 -3 -58 -9 -2 -5 14 -9 35 -10 20 0 78 -4 127 -9 50
-4 111 -8 138 -9 26 0 47 -4 47 -8 0 -12 48 -9 56 3 3 6 18 9 32 6 17 -3 31 1
39 11 12 16 14 15 28 -2 14 -19 15 -19 15 7 0 17 5 27 15 27 25 0 17 19 -40
92 -30 38 -55 74 -55 79 0 5 -4 9 -10 9 -6 0 -6 -9 0 -26z"/>
<path d="M3550 1488 c0 -7 -3 -23 -6 -35 -4 -14 -2 -23 5 -23 6 0 11 9 11 19
0 11 4 21 9 23 5 2 3 9 -5 16 -11 10 -14 10 -14 0z"/>
<path d="M4040 1490 c0 -5 9 -10 21 -10 11 0 17 5 14 10 -3 6 -13 10 -21 10
-8 0 -14 -4 -14 -10z"/>
<path d="M4135 1490 c-3 -5 -13 -6 -22 -3 -11 4 -14 3 -9 -5 4 -7 14 -12 23
-12 13 0 14 -15 11 -100 -2 -55 -1 -100 4 -100 4 0 7 3 7 8 -4 23 4 32 26 32
14 0 25 5 25 10 0 10 -3 11 -32 14 -16 1 -21 82 -7 108 10 18 49 26 49 9 0 -4
11 -6 25 -3 14 2 25 0 25 -6 0 -5 9 -12 19 -15 13 -3 21 1 24 15 4 15 1 18
-14 13 -13 -4 -19 -2 -19 9 0 10 -10 16 -27 17 -45 2 -70 6 -87 12 -8 3 -18 2
-21 -3z"/>
<path d="M2660 1481 c0 -5 -3 -17 -7 -26 -5 -16 -4 -15 15 1 26 22 28 34 7 34
-8 0 -15 -4 -15 -9z"/>
<path d="M3303 1475 c-3 -9 -3 -18 -1 -21 3 -3 8 4 11 16 6 23 -1 27 -10 5z"/>
<path d="M4400 1479 c0 -5 5 -7 10 -4 6 3 10 8 10 11 0 2 -4 4 -10 4 -5 0 -10
-5 -10 -11z"/>
<path d="M4431 1464 c0 -11 3 -14 6 -6 3 7 2 16 -1 19 -3 4 -6 -2 -5 -13z"/>
<path d="M3655 1460 c-4 -6 3 -10 14 -10 25 0 27 6 6 13 -8 4 -17 2 -20 -3z"/>
<path d="M2365 1440 c-3 -5 -1 -10 4 -10 6 0 11 5 11 10 0 6 -2 10 -4 10 -3 0
-8 -4 -11 -10z"/>
<path d="M3710 1439 c0 -5 5 -7 10 -4 6 3 10 8 10 11 0 2 -4 4 -10 4 -5 0 -10
-5 -10 -11z"/>
<path d="M1173 1427 c-13 -5 -23 -14 -23 -19 0 -5 4 -7 9 -3 5 3 12 1 16 -5 9
-14 22 -13 28 3 9 24 -6 35 -30 24z"/>
<path d="M2480 1430 c0 -5 5 -10 10 -10 6 0 10 5 10 10 0 6 -4 10 -10 10 -5 0
-10 -4 -10 -10z"/>
<path d="M4820 1430 c0 -5 5 -10 10 -10 6 0 10 5 10 10 0 6 -4 10 -10 10 -5 0
-10 -4 -10 -10z"/>
<path d="M1100 1420 c0 -5 5 -10 10 -10 6 0 10 5 10 10 0 6 -4 10 -10 10 -5 0
-10 -4 -10 -10z"/>
<path d="M745 1400 c-4 -6 -22 -10 -41 -10 -19 0 -34 -4 -34 -10 0 -5 10 -9
23 -9 50 2 244 -10 267 -16 14 -4 39 -8 55 -10 17 -2 59 -6 94 -10 83 -9 73
10 -11 20 -35 5 -70 10 -78 11 -8 1 -62 7 -118 13 -57 7 -115 16 -128 21 -14
6 -26 6 -29 0z"/>
<path d="M1240 1400 c0 -5 5 -10 11 -10 5 0 7 5 4 10 -3 6 -8 10 -11 10 -2 0
-4 -4 -4 -10z"/>
<path d="M2370 1396 c0 -8 -3 -23 -6 -33 -5 -12 -4 -15 3 -8 16 15 26 55 14
55 -6 0 -11 -6 -11 -14z"/>
<path d="M3445 1400 c-3 -5 -2 -10 4 -10 5 0 13 5 16 10 3 6 2 10 -4 10 -5 0
-13 -4 -16 -10z"/>
<path d="M3537 1396 c-3 -8 0 -22 7 -31 12 -16 13 -16 19 -1 7 18 -1 46 -13
46 -4 0 -10 -6 -13 -14z"/>
<path d="M3845 1400 c3 -5 8 -10 11 -10 2 0 4 5 4 10 0 6 -5 10 -11 10 -5 0
-7 -4 -4 -10z"/>
<path d="M3480 1391 c0 -5 6 -14 14 -20 11 -9 15 -8 20 5 9 23 8 24 -14 24
-11 0 -20 -4 -20 -9z"/>
<path d="M591 1376 c-20 -11 -21 -14 -7 -25 9 -8 16 -9 16 -4 0 6 10 14 22 20
17 7 18 11 7 15 -8 3 -25 0 -38 -6z"/>
<path d="M1330 1382 c0 -4 12 -9 28 -10 21 -1 23 0 12 8 -18 12 -40 13 -40 2z"/>
<path d="M1746 1363 c-6 -14 -5 -15 5 -6 7 7 10 15 7 18 -3 3 -9 -2 -12 -12z"/>
<path d="M3590 1369 c0 -5 5 -7 10 -4 6 3 10 8 10 11 0 2 -4 4 -10 4 -5 0 -10
-5 -10 -11z"/>
<path d="M1430 1359 c25 -5 56 -11 70 -13 14 -2 33 -7 43 -11 10 -4 17 -3 17
4 0 6 -6 12 -12 13 -7 0 -24 3 -38 4 -14 2 -47 6 -75 8 l-50 5 45 -10z"/>
<path d="M1180 1339 c0 -11 43 -17 160 -25 58 -4 101 -3 97 2 -14 14 -257 36
-257 23z"/>
<path d="M1585 1340 c3 -5 12 -10 19 -10 20 0 56 -35 56 -54 0 -10 5 -14 11
-11 13 9 38 -23 39 -50 0 -11 7 -29 15 -39 13 -18 15 -18 21 -2 4 9 13 15 20
12 8 -3 15 0 15 7 1 7 3 22 4 34 4 41 13 52 35 46 20 -5 22 -10 16 -57 -6 -44
-5 -49 7 -36 7 8 19 34 26 57 11 39 13 42 44 38 17 -2 86 -6 152 -10 66 -3
145 -9 175 -12 30 -3 64 -6 75 -7 50 -4 75 -18 75 -42 0 -13 -6 -24 -12 -24
-13 0 10 -20 23 -20 11 0 21 69 14 91 -6 17 -15 20 -58 19 -29 -1 -60 -1 -69
-1 -25 1 -22 21 3 21 12 0 19 5 16 13 -2 6 -13 11 -23 10 -10 -1 -41 -2 -69
-3 -58 0 -49 1 -182 -3 -65 -1 -99 2 -95 8 3 6 -5 3 -19 -6 -22 -15 -28 -15
-54 -2 -25 12 -27 12 -12 0 9 -8 17 -17 17 -21 0 -13 -52 -5 -67 10 -12 11
-18 12 -23 4 -6 -9 -10 -8 -16 3 -10 17 -84 40 -84 26 0 -5 6 -9 13 -9 20 -1
49 -28 42 -40 -4 -7 -23 1 -53 23 -47 34 -110 58 -97 37z m651 -62 c-10 -6
-22 -6 -26 -2 -5 5 3 10 18 11 22 1 24 0 8 -9z m-496 -60 c0 -19 -2 -20 -10
-8 -13 19 -13 30 0 30 6 0 10 -10 10 -22z"/>
<path d="M2372 1315 c0 -16 2 -22 5 -12 2 9 2 23 0 30 -3 6 -5 -1 -5 -18z"/>
<path d="M3970 1330 c0 -5 7 -10 15 -10 8 0 15 5 15 10 0 6 -7 10 -15 10 -8 0
-15 -4 -15 -10z"/>
<path d="M4015 1330 c3 -5 10 -10 16 -10 5 0 9 5 9 10 0 6 -7 10 -16 10 -8 0
-12 -4 -9 -10z"/>
<path d="M4060 1328 c0 -4 14 -8 32 -8 17 0 28 3 24 8 -10 10 -56 10 -56 0z"/>
<path d="M4775 1330 c-7 -12 12 -50 25 -50 6 0 10 -9 10 -20 0 -22 -15 -27
-23 -7 -4 9 -8 8 -17 -3 -9 -12 -13 -12 -17 -2 -4 10 -9 10 -23 -3 -12 -11
-38 -16 -83 -16 -43 -1 -66 -5 -64 -12 1 -6 -7 -13 -17 -15 -14 -3 -17 0 -13
12 4 9 2 16 -4 16 -5 0 -12 -7 -15 -15 -7 -16 -43 -11 -55 7 -3 5 -6 -5 -6
-22 0 -18 5 -30 14 -30 7 0 13 5 13 12 0 9 3 9 12 0 16 -16 52 -15 120 3 31 8
94 17 140 21 46 3 88 7 95 9 7 2 -5 21 -28 43 -21 22 -39 49 -39 61 0 22 -14
28 -25 11z"/>
<path d="M660 1316 c0 -17 16 -30 23 -19 3 5 -1 14 -9 21 -12 10 -14 10 -14
-2z"/>
<path d="M3363 1323 c9 -2 23 -2 30 0 6 3 -1 5 -18 5 -16 0 -22 -2 -12 -5z"/>
<path d="M3710 1321 c0 -5 9 -7 20 -4 11 3 20 7 20 9 0 2 -9 4 -20 4 -11 0
-20 -4 -20 -9z"/>
<path d="M3876 1321 c-3 -5 5 -8 19 -7 14 0 25 4 25 9 0 10 -38 9 -44 -2z"/>
<path d="M1468 1313 c7 -3 16 -2 19 1 4 3 -2 6 -13 5 -11 0 -14 -3 -6 -6z"/>
<path d="M3546 1311 c-4 -7 -5 -15 -2 -18 9 -9 19 4 14 18 -4 11 -6 11 -12 0z"/>
<path d="M710 1300 c0 -5 5 -10 11 -10 5 0 7 5 4 10 -3 6 -8 10 -11 10 -2 0
-4 -4 -4 -10z"/>
<path d="M760 1290 c20 -13 33 -13 25 0 -3 6 -14 10 -23 10 -15 0 -15 -2 -2
-10z"/>
<path d="M2914 1281 c3 -5 -15 -6 -39 -3 -25 2 -45 1 -45 -4 0 -5 -34 -8 -75
-6 -49 2 -75 0 -75 -7 0 -6 7 -11 15 -11 8 0 15 -5 15 -11 0 -6 9 -8 20 -4 11
4 39 8 63 10 23 3 58 6 77 9 54 6 83 -3 77 -25 -6 -24 9 -35 17 -13 9 25 7 33
-14 54 -20 20 -46 28 -36 11z"/>
<path d="M1460 1271 c0 -5 -8 -12 -17 -14 -11 -3 -7 -5 10 -6 27 -1 36 12 17
24 -5 3 -10 2 -10 -4z"/>
<path d="M1527 1273 c-15 -2 -25 -8 -22 -13 3 -5 22 -4 42 2 20 5 49 8 65 6
16 -3 31 -1 34 4 5 8 -67 9 -119 1z"/>
<path d="M2437 1258 c-12 -8 5 -11 48 -11 40 1 48 3 41 11 -10 9 -74 9 -89 0z"/>
<path d="M2567 1263 c-3 -5 1 -14 9 -20 8 -8 15 -9 19 -3 4 6 11 8 16 5 5 -4
9 -2 9 3 0 17 -45 29 -53 15z"/>
<path d="M1178 1254 c-3 -5 -2 -20 2 -34 5 -22 7 -23 13 -7 7 19 -6 56 -15 41z"/>
<path d="M1275 1249 c-30 -5 -22 -6 35 -7 41 0 84 3 95 8 22 10 -60 10 -130
-1z"/>
<path d="M2650 1245 c7 -8 17 -15 22 -15 6 0 5 7 -2 15 -7 8 -17 15 -22 15 -6
0 -5 -7 2 -15z"/>
<path d="M3198 1253 c7 -3 16 -2 19 1 4 3 -2 6 -13 5 -11 0 -14 -3 -6 -6z"/>
<path d="M1670 1219 c0 -16 4 -28 9 -25 8 5 3 56 -5 56 -2 0 -4 -14 -4 -31z"/>
<path d="M3807 1239 c7 -7 15 -10 18 -7 3 3 -2 9 -12 12 -14 6 -15 5 -6 -5z"/>
<path d="M3845 1241 c-4 -7 5 -11 22 -12 15 0 47 -1 71 -2 23 -1 42 1 42 6 0
4 -22 7 -49 7 -27 0 -56 3 -64 6 -8 3 -18 1 -22 -5z"/>
<path d="M4041 1241 c-8 -5 -21 -7 -29 -4 -11 5 -13 1 -7 -15 5 -19 2 -22 -22
-23 -15 -1 -32 -1 -36 0 -4 1 -17 -3 -28 -9 -15 -9 -21 -7 -25 5 -4 9 -13 14
-22 10 -8 -3 -20 -1 -27 5 -9 8 -15 8 -20 0 -3 -6 -10 -8 -15 -5 -5 3 -12 1
-15 -5 -5 -8 -11 -7 -22 1 -12 10 -16 10 -24 -2 -5 -9 -9 -10 -9 -2 0 8 -23
11 -72 11 -40 -1 -83 4 -95 10 -30 17 -37 2 -28 -64 l7 -55 -79 2 c-43 1 -82
4 -87 7 -17 10 -176 8 -173 -2 2 -5 10 -10 18 -11 34 -5 189 -18 247 -20 35
-2 65 -5 67 -7 2 -1 0 -73 -5 -158 -4 -87 -4 -159 1 -164 5 -6 9 6 9 30 0 21
5 55 10 75 6 22 7 46 2 60 -8 21 4 90 26 149 3 8 4 31 4 50 -3 75 1 80 71 76
34 -3 64 -6 67 -7 9 -4 25 -7 50 -8 l25 -2 -29 -15 c-15 -9 -39 -14 -52 -11
-13 2 -21 0 -18 -4 11 -19 114 -4 114 16 0 10 28 13 121 11 66 -1 125 2 132 6
13 8 12 10 -26 26 -40 17 -24 32 34 32 27 0 49 5 49 10 0 12 -70 13 -89 1z"/>
<path d="M4140 1229 c0 -9 -9 -19 -20 -22 -26 -7 -26 -24 0 -32 16 -5 19 -12
14 -27 -4 -15 -2 -19 7 -16 8 3 13 12 11 21 -1 8 2 18 8 22 12 7 83 8 115 1
11 -2 39 -5 63 -5 67 -1 40 -21 -31 -22 l-62 -2 45 -7 c51 -9 178 -1 186 11 3
5 -2 9 -11 9 -11 0 -15 6 -10 19 7 24 -10 28 -107 24 -74 -3 -111 9 -67 20 46
12 5 27 -67 25 -61 -3 -74 -6 -74 -19z m98 -8 c6 -1 12 -5 12 -11 0 -5 -10 -8
-22 -6 -13 3 -36 5 -51 5 -16 1 -26 5 -23 10 3 5 20 7 38 5 18 -1 39 -3 46 -3z
m192 -55 c0 -3 -4 -8 -10 -11 -5 -3 -10 -1 -10 4 0 6 5 11 10 11 6 0 10 -2 10
-4z"/>
<path d="M3034 1221 c-14 -14 2 -21 41 -19 57 4 61 26 4 24 -22 0 -42 -3 -45
-5z"/>
<path d="M3136 1221 c-3 -5 5 -11 18 -13 17 -4 23 -1 19 9 -6 15 -29 18 -37 4z"/>
<path d="M3197 1216 c-4 -10 0 -12 14 -9 10 3 16 9 13 14 -8 13 -21 11 -27 -5z"/>
<path d="M3277 1223 c-31 -4 -36 -7 -27 -18 8 -10 18 -11 36 -5 13 5 32 6 41
3 16 -6 16 -5 4 10 -7 9 -14 16 -15 15 0 -1 -18 -3 -39 -5z"/>
<path d="M4890 1219 c0 -5 5 -7 10 -4 6 3 10 8 10 11 0 2 -4 4 -10 4 -5 0 -10
-5 -10 -11z"/>
<path d="M4948 1223 c7 -3 16 -2 19 1 4 3 -2 6 -13 5 -11 0 -14 -3 -6 -6z"/>
<path d="M3350 1209 c0 -5 19 -10 43 -9 23 0 61 -1 85 -3 29 -3 42 -1 39 7 -5
14 -167 20 -167 5z"/>
<path d="M2068 1203 c7 -3 16 -2 19 1 4 3 -2 6 -13 5 -11 0 -14 -3 -6 -6z"/>
<path d="M2158 1193 c6 -2 18 -2 25 0 6 3 1 5 -13 5 -14 0 -19 -2 -12 -5z"/>
<path d="M2740 1180 c0 -5 7 -10 16 -10 8 0 12 5 9 10 -3 6 -10 10 -16 10 -5
0 -9 -4 -9 -10z"/>
<path d="M2948 1184 c-5 -4 -8 -23 -8 -43 0 -25 3 -32 11 -24 6 6 9 25 7 43
-2 17 -6 28 -10 24z"/>
<path d="M1820 1146 c0 -8 -3 -22 -7 -32 -4 -11 -3 -15 4 -11 15 9 23 46 12
53 -5 3 -9 -1 -9 -10z"/>
<path d="M3625 1136 c-17 -13 -17 -13 8 -13 15 0 27 3 27 8 0 16 -17 18 -35 5z"/>
<path d="M4198 1143 c6 -2 18 -2 25 0 6 3 1 5 -13 5 -14 0 -19 -2 -12 -5z"/>
<path d="M3105 1120 c-3 -5 -1 -10 4 -10 6 0 11 5 11 10 0 6 -2 10 -4 10 -3 0
-8 -4 -11 -10z"/>
<path d="M3158 1103 c7 -3 16 -2 19 1 4 3 -2 6 -13 5 -11 0 -14 -3 -6 -6z"/>
<path d="M2940 1075 c1 -26 2 -28 11 -12 8 14 8 22 0 30 -8 8 -11 3 -11 -18z"/>
<path d="M3688 1092 c-43 -2 -78 -7 -78 -11 0 -12 99 -18 238 -15 120 3 143 6
129 21 -8 7 -163 10 -289 5z"/>
<path d="M2400 1071 c0 -11 5 -23 10 -26 6 -4 10 5 10 19 0 14 -4 26 -10 26
-5 0 -10 -9 -10 -19z"/>
<path d="M1772 930 c0 -14 2 -19 5 -12 2 6 2 18 0 25 -3 6 -5 1 -5 -13z"/>
<path d="M2930 931 c0 -12 5 -21 10 -21 6 0 10 6 10 14 0 8 -4 18 -10 21 -5 3
-10 -3 -10 -14z"/>
<path d="M1768 855 c-12 -61 -10 -111 3 -98 5 5 9 38 7 74 -3 61 -3 62 -10 24z"/>
<path d="M2937 883 c-9 -18 -7 -82 3 -88 6 -4 10 12 10 44 0 48 -4 61 -13 44z"/>
<path d="M2390 845 c0 -8 5 -15 10 -15 6 0 10 7 10 15 0 8 -4 15 -10 15 -5 0
-10 -7 -10 -15z"/>
<path d="M1760 721 c0 -11 -4 -22 -9 -26 -6 -3 -9 -14 -8 -25 1 -16 8 -20 32
-19 23 1 25 3 8 6 -23 4 -33 23 -13 23 6 0 10 11 10 24 0 14 -4 28 -10 31 -5
3 -10 -3 -10 -14z"/>
<path d="M3516 674 c-12 -26 -14 -40 -7 -47 6 -6 13 -8 17 -5 5 5 14 88 9 88
-1 0 -9 -16 -19 -36z"/>
<path d="M1568 683 c7 -3 16 -2 19 1 4 3 -2 6 -13 5 -11 0 -14 -3 -6 -6z"/>
<path d="M2600 670 c0 -5 5 -10 10 -10 6 0 10 5 10 10 0 6 -4 10 -10 10 -5 0
-10 -4 -10 -10z"/>
<path d="M2650 670 c0 -5 7 -10 16 -10 8 0 12 5 9 10 -3 6 -10 10 -16 10 -5 0
-9 -4 -9 -10z"/>
<path d="M2712 671 c-20 -12 24 -22 51 -11 16 6 18 9 5 9 -9 1 -22 3 -30 6 -7
3 -19 1 -26 -4z"/>
<path d="M2795 669 c-10 -15 1 -23 20 -15 9 3 13 10 10 16 -8 13 -22 13 -30
-1z"/>
<path d="M2905 660 c-3 -5 1 -10 9 -10 9 0 16 5 16 10 0 6 -4 10 -9 10 -6 0
-13 -4 -16 -10z"/>
<path d="M3090 640 c0 -5 11 -10 25 -10 14 0 25 5 25 10 0 6 -11 10 -25 10
-14 0 -25 -4 -25 -10z"/>
<path d="M3175 641 c-7 -12 12 -24 25 -16 11 7 4 25 -10 25 -5 0 -11 -4 -15
-9z"/>
<path d="M3360 634 c0 -8 5 -12 10 -9 6 3 10 10 10 16 0 5 -4 9 -10 9 -5 0
-10 -7 -10 -16z"/>
<path d="M3450 640 c0 -5 7 -10 16 -10 8 0 12 5 9 10 -3 6 -10 10 -16 10 -5 0
-9 -4 -9 -10z"/>
<path d="M3260 630 c19 -13 30 -13 30 0 0 6 -10 10 -22 10 -19 0 -20 -2 -8
-10z"/>
<path d="M3315 630 c4 -6 11 -8 16 -5 14 9 11 15 -7 15 -8 0 -12 -5 -9 -10z"/>
<path d="M4458 633 c7 -3 16 -2 19 1 4 3 -2 6 -13 5 -11 0 -14 -3 -6 -6z"/>
</g>
</svg>
