<?xml version="1.0" ?>
<!DOCTYPE svg  PUBLIC '-//W3C//DTD SVG 1.1//EN'  'http://www.w3.org/Graphics/SVG/1.1/DTD/svg11.dtd'>
<!-- Uploaded to: SVG Repo, www.svgrepo.com, Generator: SVG Repo Mixer Tools -->
<svg width="800px" height="800px" viewBox="0 0 48 48" enable-background="new 0 0 48 48" id="_x3C_Layer_x3E_" version="1.1" xml:space="preserve" xmlns="http://www.w3.org/2000/svg" xmlns:xlink="http://www.w3.org/1999/xlink">
<g id="vision_x2C__view">
<g>
<g id="XMLID_812_">
<g>
<path d="M45.303,23.367c0.263,0.387,0.263,0.879-0.005,1.264C43.455,27.296,35.638,37.5,24,37.5      S4.545,27.296,2.702,24.631c-0.268-0.385-0.268-0.877-0.005-1.264C4.528,20.697,12.284,10.5,24,10.5      S43.472,20.697,45.303,23.367z" fill="#FFFFFF" id="XMLID_12_"/>
<path d="M24,38C12.255,38,4.414,27.985,2.291,24.916c-0.384-0.552-0.388-1.271-0.007-1.83      C4.39,20.015,12.177,10,24,10s19.61,10.015,21.715,13.084l0.001,0.001c0.38,0.559,0.377,1.278-0.008,1.831      C43.586,27.985,35.745,38,24,38z M24,11C12.666,11,5.145,20.683,3.109,23.65c-0.146,0.215-0.146,0.482,0.003,0.695      C5.167,27.315,12.742,37,24,37s18.833-9.685,20.887-12.654c0.149-0.214,0.15-0.48,0.003-0.697C42.854,20.681,35.334,11,24,11z" fill="#0277BD"/>
</g>
</g>
<g id="XMLID_588_">
<g>
<circle cx="24" cy="24" fill="#87D6FA" id="XMLID_11_" r="10.5"/>
<path d="M24,35c-6.065,0-11-4.935-11-11s4.935-11,11-11s11,4.935,11,11S30.065,35,24,35z M24,14      c-5.514,0-10,4.486-10,10s4.486,10,10,10s10-4.486,10-10S29.514,14,24,14z" fill="#0277BD"/>
</g>
</g>
<g id="XMLID_612_">
<path d="M24,32.5c-4.688,0-8.501-3.813-8.501-8.5s3.814-8.5,8.501-8.5s8.501,3.813,8.501,8.5S28.688,32.5,24,32.5     z M24,16.5c-4.136,0-7.501,3.364-7.501,7.5s3.365,7.5,7.501,7.5s7.501-3.364,7.501-7.5S28.136,16.5,24,16.5z" fill="#B3E5FC"/>
</g>
<g id="XMLID_836_">
<g>
<circle cx="24" cy="24" fill="#455A64" id="XMLID_3_" r="4.5"/>
<path d="M24,29c-2.757,0-5-2.243-5-5s2.243-5,5-5s5,2.243,5,5S26.757,29,24,29z M24,20c-2.206,0-4,1.794-4,4      s1.794,4,4,4s4-1.794,4-4S26.206,20,24,20z" fill="#0277BD"/>
</g>
</g>
<g id="XMLID_838_">
<circle cx="30.858" cy="30.75" fill="#FFFFFF" id="XMLID_839_" r="2.5"/>
</g>
<g id="XMLID_677_">
<circle cx="18.285" cy="18.375" fill="#FFFFFF" id="XMLID_843_" r="4.5"/>
</g>
</g>
<g>
<path d="M30.445,43.479c-0.231,0-0.438-0.161-0.489-0.396l-0.832-3.913c-0.057-0.27,0.115-0.536,0.385-0.593    c0.273-0.055,0.536,0.116,0.593,0.385l0.832,3.913c0.057,0.27-0.115,0.536-0.385,0.593C30.514,43.476,30.479,43.479,30.445,43.479    z" fill="#0277BD"/>
<path d="M36.609,41.477c-0.192,0-0.375-0.11-0.457-0.297l-1.627-3.654c-0.113-0.252,0.001-0.547,0.253-0.66    c0.253-0.113,0.548,0.001,0.66,0.253l1.627,3.654c0.113,0.252-0.001,0.547-0.253,0.66C36.746,41.463,36.677,41.477,36.609,41.477z    " fill="#0277BD"/>
<path d="M42.222,38.236c-0.155,0-0.307-0.071-0.405-0.206l-2.351-3.236c-0.163-0.224-0.113-0.536,0.11-0.698    c0.225-0.162,0.536-0.113,0.698,0.11l2.351,3.236c0.163,0.224,0.113,0.536-0.11,0.698C42.426,38.205,42.323,38.236,42.222,38.236z    " fill="#0277BD"/>
<path d="M5.778,38.236c-0.102,0-0.205-0.031-0.293-0.096c-0.223-0.162-0.273-0.475-0.11-0.698l2.351-3.236    c0.161-0.224,0.474-0.274,0.698-0.11c0.223,0.162,0.273,0.475,0.11,0.698L6.183,38.03C6.085,38.165,5.933,38.236,5.778,38.236z" fill="#0277BD"/>
<path d="M11.391,41.477c-0.068,0-0.137-0.014-0.203-0.043c-0.252-0.112-0.366-0.408-0.253-0.66l1.627-3.654    c0.112-0.252,0.408-0.367,0.66-0.253c0.252,0.112,0.366,0.408,0.253,0.66l-1.627,3.654C11.765,41.366,11.583,41.477,11.391,41.477    z" fill="#0277BD"/>
<path d="M17.555,43.479c-0.035,0-0.069-0.003-0.104-0.011c-0.27-0.058-0.442-0.323-0.385-0.593l0.832-3.913    c0.058-0.271,0.322-0.441,0.593-0.385c0.27,0.058,0.442,0.323,0.385,0.593l-0.832,3.913    C17.994,43.318,17.786,43.479,17.555,43.479z" fill="#0277BD"/>
<path d="M24,44.156c-0.276,0-0.5-0.224-0.5-0.5v-4c0-0.276,0.224-0.5,0.5-0.5s0.5,0.224,0.5,0.5v4    C24.5,43.933,24.276,44.156,24,44.156z" fill="#0277BD"/>
</g>
<g>
<path d="M29.614,9.59c-0.035,0-0.069-0.003-0.104-0.011c-0.27-0.058-0.442-0.323-0.385-0.593l0.832-3.913    c0.058-0.27,0.324-0.443,0.593-0.385c0.27,0.058,0.442,0.323,0.385,0.593l-0.832,3.913C30.053,9.429,29.845,9.59,29.614,9.59z" fill="#0277BD"/>
<path d="M34.981,11.334c-0.068,0-0.137-0.014-0.203-0.043c-0.252-0.112-0.366-0.408-0.253-0.66l1.627-3.654    c0.112-0.252,0.409-0.367,0.66-0.253c0.252,0.112,0.366,0.408,0.253,0.66l-1.627,3.654C35.356,11.224,35.173,11.334,34.981,11.334    z" fill="#0277BD"/>
<path d="M39.87,14.156c-0.102,0-0.205-0.031-0.293-0.096c-0.223-0.162-0.273-0.475-0.11-0.698l2.351-3.236    c0.162-0.224,0.474-0.273,0.698-0.11c0.223,0.162,0.273,0.475,0.11,0.698l-2.351,3.236C40.177,14.085,40.024,14.156,39.87,14.156z    " fill="#0277BD"/>
<path d="M8.13,14.156c-0.155,0-0.307-0.071-0.405-0.206l-2.351-3.236c-0.163-0.224-0.113-0.536,0.11-0.698    c0.223-0.163,0.537-0.113,0.698,0.11l2.351,3.236c0.163,0.224,0.113,0.536-0.11,0.698C8.335,14.125,8.232,14.156,8.13,14.156z" fill="#0277BD"/>
<path d="M13.019,11.334c-0.192,0-0.375-0.11-0.457-0.297l-1.627-3.654c-0.113-0.252,0.001-0.547,0.253-0.66    c0.252-0.114,0.548,0.001,0.66,0.253l1.627,3.654c0.113,0.252-0.001,0.547-0.253,0.66C13.155,11.321,13.086,11.334,13.019,11.334z    " fill="#0277BD"/>
<path d="M18.386,9.59c-0.231,0-0.438-0.161-0.489-0.396l-0.832-3.913c-0.057-0.27,0.115-0.536,0.385-0.593    c0.273-0.054,0.536,0.116,0.593,0.385l0.832,3.913c0.057,0.27-0.115,0.536-0.385,0.593C18.455,9.586,18.42,9.59,18.386,9.59z" fill="#0277BD"/>
<path d="M24,9c-0.276,0-0.5-0.224-0.5-0.5v-4C23.5,4.224,23.724,4,24,4s0.5,0.224,0.5,0.5v4    C24.5,8.776,24.276,9,24,9z" fill="#0277BD"/>
</g>
</g>
</svg>