<?xml version="1.0" standalone="no"?>
<!DOCTYPE svg PUBLIC "-//W3C//DTD SVG 20010904//EN"
 "http://www.w3.org/TR/2001/REC-SVG-20010904/DTD/svg10.dtd">
<svg version="1.0" xmlns="http://www.w3.org/2000/svg"
 width="966.000000pt" height="951.000000pt" viewBox="0 0 966.000000 951.000000"
 preserveAspectRatio="xMidYMid meet">

<g transform="translate(0.000000,951.000000) scale(0.100000,-0.100000)"
fill="#000000" stroke="none">
<path d="M3217 8799 c-2 -8 -9 -30 -15 -49 -6 -21 -9 -120 -6 -250 3 -221 0
-233 -32 -135 -9 28 -25 66 -35 85 -11 19 -19 38 -19 41 0 4 -20 37 -44 74
l-44 66 -20 -28 c-44 -62 -102 -199 -136 -320 -10 -37 -32 -76 -100 -180 -20
-31 -44 -39 -38 -14 1 7 -2 41 -8 76 -6 35 -12 87 -14 114 -3 28 -8 56 -12 62
-5 8 -3 9 5 4 10 -6 12 11 6 81 -4 49 -11 107 -15 129 -4 22 -9 73 -9 114 -1
41 -4 77 -6 80 -11 11 -18 -12 -17 -53 2 -34 -2 -48 -15 -55 -10 -6 -13 -11
-6 -11 7 0 13 -40 17 -117 4 -65 12 -158 18 -208 24 -196 27 -248 17 -255 -12
-8 1 -50 15 -50 11 1 70 75 92 115 6 11 23 40 39 65 15 24 50 104 76 176 50
140 94 234 108 234 5 0 18 -19 30 -42 12 -24 28 -54 35 -68 8 -14 18 -36 24
-50 5 -14 15 -38 21 -54 35 -85 73 -224 75 -274 4 -68 25 -172 40 -190 6 -9 6
-16 -1 -20 -11 -8 -25 -102 -14 -102 25 1 30 23 32 150 1 131 -7 226 -20 234
-3 2 -4 69 -1 148 3 78 1 146 -3 149 -5 4 -4 10 2 13 6 4 9 11 6 16 -3 5 -7
75 -9 155 -4 136 -10 179 -19 144z"/>
<path d="M6470 8660 c0 -12 -13 -40 -28 -63 -16 -23 -35 -58 -42 -77 -8 -19
-22 -48 -32 -65 -10 -16 -22 -39 -27 -50 -5 -12 -16 -27 -25 -34 -9 -7 -16
-17 -16 -22 0 -4 -14 -29 -31 -54 -17 -25 -29 -50 -27 -57 4 -11 75 90 114
162 10 19 22 37 25 40 10 8 50 90 44 90 -3 0 9 23 27 52 l32 51 27 -32 c41
-50 171 -347 185 -421 2 -14 7 -40 10 -59 7 -45 7 -391 -1 -512 -4 -61 -3 -99
4 -103 5 -4 12 2 16 13 3 10 15 21 25 24 22 6 37 -8 18 -16 -8 -3 -6 -6 5 -6
24 -1 21 -21 -4 -21 -12 0 -17 -4 -14 -11 4 -6 13 -8 20 -6 6 3 20 -4 29 -15
22 -25 26 -21 31 35 4 44 3 46 -23 49 -26 3 -27 6 -27 58 -1 30 3 61 8 67 5 7
7 56 3 110 -3 54 -7 133 -8 176 -2 55 -6 77 -15 77 -7 0 -13 5 -13 10 0 6 5
10 10 10 6 0 10 9 10 20 0 11 -4 20 -10 20 -5 0 -10 10 -10 22 0 12 -3 18 -7
15 -14 -14 -33 17 -33 54 0 21 -4 40 -9 44 -5 3 -17 29 -25 58 -8 29 -36 94
-61 145 -25 51 -45 95 -45 99 0 3 -15 26 -32 52 -18 25 -38 55 -44 65 -15 28
-34 31 -34 6z m300 -1060 c0 -5 -4 -10 -10 -10 -5 0 -10 5 -10 10 0 6 5 10 10
10 6 0 10 -4 10 -10z"/>
<path d="M6150 8241 c0 -10 -3 -40 -7 -66 -4 -35 -3 -46 5 -41 7 4 12 2 12 -3
0 -6 -6 -11 -14 -11 -16 0 -29 -27 -17 -35 5 -2 7 -26 5 -52 -2 -27 -6 -86 -8
-133 -2 -47 -8 -118 -12 -159 -6 -60 -5 -73 7 -69 18 6 32 77 19 93 -8 10 -8
15 0 20 25 16 34 -16 31 -108 -1 -50 0 -89 4 -85 9 9 14 110 18 364 3 160 6
196 20 217 22 34 21 40 -2 27 -22 -11 -25 -8 -35 33 -7 31 -26 37 -26 8z m20
-221 c0 -5 -5 -10 -11 -10 -5 0 -7 5 -4 10 3 6 8 10 11 10 2 0 4 -4 4 -10z m4
-125 c2 -76 -1 -95 -12 -95 -12 0 -14 12 -9 59 3 33 1 63 -4 68 -6 6 -5 22 2
42 6 17 14 30 17 27 3 -3 6 -49 6 -101z"/>
<path d="M2644 7945 c-14 -11 -15 -14 -4 -15 11 0 15 -11 15 -40 0 -22 -3 -40
-7 -40 -5 0 -8 -5 -8 -11 0 -5 5 -7 10 -4 6 3 10 0 10 -9 0 -8 -6 -16 -12 -18
-10 -4 -10 -10 0 -32 8 -18 10 -45 6 -77 -5 -37 -3 -49 6 -49 10 0 9 -5 -2
-17 -9 -10 -18 -35 -20 -56 -3 -31 -1 -37 11 -32 11 3 9 0 -3 -10 -16 -12 -17
-19 -8 -39 8 -17 7 -27 -1 -36 -9 -10 -9 -14 0 -17 9 -3 7 -15 -7 -43 -25 -49
-25 -48 5 -42 32 6 45 -25 40 -94 -11 -157 -14 -306 -5 -274 5 19 11 69 15
110 3 41 7 91 10 110 2 19 6 66 9 103 3 38 11 75 17 83 17 20 26 174 10 174
-6 0 -11 -18 -11 -45 0 -32 -4 -45 -14 -45 -18 0 -25 47 -12 78 6 15 6 26 -2
34 -8 8 -8 17 -1 31 8 13 8 22 1 29 -7 7 -7 19 -1 35 5 14 6 29 3 34 -3 6 4
19 16 29 22 19 22 22 10 97 -11 69 -30 113 -50 113 -3 0 -15 -7 -26 -15z m76
-150 c0 -8 -4 -15 -10 -15 -5 0 -10 7 -10 15 0 8 5 15 10 15 6 0 10 -7 10 -15z
m-40 -295 c0 -5 -4 -10 -10 -10 -5 0 -10 5 -10 10 0 6 5 10 10 10 6 0 10 -4
10 -10z"/>
<path d="M3243 7783 c-17 -6 -17 -23 0 -23 8 0 14 7 14 15 0 8 -1 15 -1 14 -1
0 -7 -3 -13 -6z"/>
<path d="M3224 7739 c-2 -4 4 -10 13 -13 14 -6 15 -9 3 -16 -9 -5 -15 -33 -17
-83 -3 -69 -2 -76 17 -82 11 -4 18 -11 14 -16 -3 -6 -13 -8 -21 -5 -11 5 -13
2 -9 -10 3 -8 6 -19 6 -24 0 -4 8 -7 18 -6 13 2 18 15 20 59 3 49 1 57 -15 57
-11 0 -14 3 -7 8 15 10 27 62 14 62 -5 0 -10 7 -10 15 0 8 3 15 8 15 4 0 8 10
8 23 1 16 -4 23 -18 23 -11 0 -21 -3 -24 -7z"/>
<path d="M2728 7695 c-6 -30 -3 -43 8 -33 3 4 4 19 2 35 l-3 28 -7 -30z"/>
<path d="M6113 7625 c3 -19 0 -36 -10 -47 -13 -14 -13 -22 -2 -52 17 -48 28
-45 24 7 -2 26 2 48 11 58 13 14 12 19 -6 40 l-21 24 4 -30z"/>
<path d="M2058 7613 c-7 -32 -10 -614 -4 -688 2 -18 9 -31 19 -33 15 -3 16 23
17 265 1 147 0 275 0 283 -1 8 -4 52 -7 98 -2 45 -9 82 -14 82 -5 0 -10 -3
-11 -7z"/>
<path d="M2726 7612 c-3 -6 -1 -14 5 -17 15 -10 25 3 12 16 -7 7 -13 7 -17 1z"/>
<path d="M6170 7560 c0 -11 2 -20 4 -20 2 0 6 9 9 20 3 11 1 20 -4 20 -5 0 -9
-9 -9 -20z"/>
<path d="M3826 7525 c-11 -31 25 -532 41 -557 9 -16 -19 -7 -47 14 -16 12 -33
18 -37 14 -5 -5 0 -13 11 -20 10 -6 30 -21 44 -33 14 -13 29 -23 33 -23 16 0
150 -128 261 -249 31 -34 81 -88 110 -119 29 -32 69 -76 90 -98 20 -23 50 -52
68 -66 l32 -25 -2 -174 c-4 -253 -4 -281 2 -309 9 -38 19 -60 28 -60 22 0 22
736 0 750 -7 4 -8 10 -3 13 12 8 4 321 -8 325 -5 2 -9 22 -9 43 0 23 -4 38
-10 34 -5 -3 -8 -110 -8 -266 2 -205 5 -262 15 -266 15 -6 18 -33 3 -33 -5 0
-10 -7 -10 -15 0 -8 -2 -15 -5 -15 -13 0 -55 33 -55 44 0 6 -12 22 -25 35 -14
13 -25 27 -25 32 0 5 -5 9 -11 9 -12 0 -13 0 -103 105 -38 44 -79 88 -92 97
-12 10 -25 27 -29 37 -3 10 -17 24 -30 31 -14 7 -25 17 -25 21 0 7 -48 56
-100 102 -14 12 -20 30 -21 65 0 26 -2 61 -4 77 -16 113 -26 228 -25 273 1 28
-3 52 -7 52 -5 0 -8 12 -9 28 -1 115 -5 142 -18 142 -8 0 -17 -7 -20 -15z"/>
<path d="M6170 7491 c0 -17 18 -21 24 -6 3 9 0 15 -9 15 -8 0 -15 -4 -15 -9z"/>
<path d="M3255 7461 c-3 -6 3 -9 14 -8 11 0 17 5 15 9 -7 11 -22 10 -29 -1z"/>
<path d="M6113 7382 c-2 -118 -2 -114 -11 -108 -5 3 -9 23 -10 44 -2 47 -29
115 -42 107 -15 -9 -12 -23 11 -46 12 -12 18 -27 14 -38 -3 -10 -1 -31 5 -45
14 -39 16 -356 2 -365 -14 -9 -10 -35 9 -58 27 -32 22 -76 -11 -108 -16 -16
-30 -34 -30 -40 0 -6 -30 -42 -68 -81 -37 -38 -87 -91 -112 -119 -25 -27 -78
-79 -117 -115 -40 -36 -73 -71 -73 -77 0 -7 -8 -13 -19 -13 -10 0 -24 -7 -31
-15 -9 -10 -9 -15 -1 -15 6 0 1 -10 -11 -22 -13 -13 -28 -22 -34 -20 -6 1 -14
-7 -17 -19 -3 -12 -10 -18 -16 -14 -6 3 -11 2 -11 -3 0 -14 -62 -72 -71 -66
-4 2 -16 -9 -25 -26 -10 -16 -23 -30 -29 -30 -15 0 -55 -43 -55 -59 0 -6 42
25 94 71 51 46 119 106 151 133 91 78 225 205 275 259 80 88 192 210 218 239
29 31 57 34 84 10 12 -10 18 -12 18 -4 0 7 5 9 10 6 6 -4 8 -28 5 -56 -3 -29
-1 -49 5 -49 6 0 10 -7 10 -16 0 -13 -3 -14 -14 -5 -8 7 -16 8 -18 4 -6 -13
-2 -79 6 -91 4 -7 4 -18 -1 -24 -4 -7 -8 -28 -8 -47 0 -20 -6 -36 -14 -39 -9
-3 -11 1 -7 14 3 11 -3 29 -15 44 -12 14 -19 18 -16 10 3 -9 11 -58 18 -109
l13 -94 -42 -36 c-23 -20 -42 -41 -42 -46 0 -6 -16 -28 -35 -50 -56 -64 -57
-66 -51 -72 7 -8 37 5 34 14 -3 11 52 69 63 66 9 -3 13 18 10 44 -1 8 5 10 14
7 11 -4 18 3 26 25 12 34 27 41 28 14 3 -78 9 -144 13 -149 3 -3 3 -23 1 -46
-4 -27 -2 -43 7 -48 10 -6 11 -12 2 -22 -9 -11 -5 -21 14 -43 17 -20 21 -31
13 -34 -7 -2 -19 5 -27 15 -14 18 -14 18 -8 1 3 -10 6 -43 6 -73 0 -41 4 -54
15 -54 8 0 15 -5 15 -11 0 -6 -6 -9 -13 -6 -10 4 -13 -2 -9 -19 2 -13 8 -21
13 -18 5 3 9 0 9 -5 0 -6 -4 -11 -10 -11 -12 0 -12 -74 0 -110 6 -18 8 -10 5
28 -3 30 -1 52 5 52 15 0 18 -53 5 -113 -4 -23 -4 -42 2 -48 7 -7 6 -23 -2
-47 -8 -23 -10 -43 -4 -54 5 -9 9 -29 9 -45 l1 -28 20 25 c12 14 16 26 10 28
-6 2 -11 13 -11 23 0 11 5 17 10 14 6 -3 10 -1 10 4 0 17 -18 13 -29 -6 -9
-16 -10 -16 -11 3 0 12 7 28 16 35 12 10 14 23 10 51 -4 23 -2 38 4 38 14 0
12 57 -2 64 -10 5 -10 7 0 12 6 3 9 11 5 17 -13 21 -11 37 4 37 12 0 13 3 4
13 -6 8 -8 17 -4 20 3 4 1 7 -5 7 -16 0 -15 33 0 48 9 9 9 12 0 12 -7 0 -12 9
-12 21 0 16 4 19 20 14 29 -9 34 13 15 69 -9 25 -13 50 -10 55 3 5 0 11 -7 13
-6 2 -12 21 -12 41 -1 20 -4 37 -8 37 -6 0 -12 173 -8 220 1 8 2 29 2 47 1 18
5 30 9 27 5 -2 13 6 20 18 7 13 19 28 28 35 15 10 14 12 -1 18 -23 9 -38 -2
-38 -26 0 -12 -4 -17 -11 -14 -6 4 -8 13 -5 20 2 7 2 15 0 18 -9 8 -10 147 -2
147 10 0 11 54 1 63 -11 11 -12 58 -2 55 6 -2 11 -8 11 -13 1 -10 71 -51 131
-77 17 -8 25 -18 22 -26 -3 -10 0 -12 10 -9 8 4 17 2 20 -3 4 -6 0 -10 -7 -10
-7 0 3 -14 21 -31 27 -24 36 -28 43 -17 6 9 7 6 3 -10 -6 -21 -4 -22 21 -16
23 6 26 4 21 -10 -5 -13 6 -31 35 -62 24 -24 48 -44 54 -44 7 0 15 -7 18 -16
3 -8 10 -12 16 -9 5 3 7 0 5 -8 -7 -16 22 -43 50 -49 28 -5 26 -42 -2 -46 -30
-4 -29 -16 4 -47 31 -28 66 -34 57 -10 -4 10 0 15 11 15 10 0 15 6 13 18 -2
10 -11 16 -21 14 -19 -3 -22 9 -7 24 7 7 4 17 -10 32 -11 12 -17 28 -14 37 5
11 2 14 -11 9 -12 -5 -34 11 -79 57 -144 147 -236 230 -318 288 -49 34 -88 65
-88 69 0 12 -59 44 -69 37 -5 -3 -12 -1 -16 5 -3 5 -1 10 6 10 8 0 6 7 -5 19
-17 18 -16 20 4 26 21 7 21 7 2 25 -17 16 -19 30 -16 142 2 67 6 142 9 166 3
29 1 42 -8 42 -9 0 -9 2 0 8 16 10 29 72 15 72 -5 0 -8 9 -5 20 3 11 0 20 -6
20 -6 0 -11 -16 -11 -35 0 -19 -4 -35 -9 -35 -15 0 -17 42 -4 87 10 38 10 44
-5 52 -14 8 -15 13 -5 30 11 17 10 22 -5 30 -15 8 -17 1 -19 -77z m527 -1004
c0 -5 -4 -8 -10 -8 -5 0 -10 10 -10 23 0 18 2 19 10 7 5 -8 10 -18 10 -22z
m-420 -28 c0 -5 -5 -10 -11 -10 -5 0 -7 5 -4 10 3 6 8 10 11 10 2 0 4 -4 4
-10z m534 -151 c-3 -5 -10 -7 -15 -3 -5 3 -7 10 -3 15 3 5 10 7 15 3 5 -3 7
-10 3 -15z"/>
<path d="M6182 7435 c0 -16 2 -22 5 -12 2 9 2 23 0 30 -3 6 -5 -1 -5 -18z"/>
<path d="M6783 7453 c-15 -6 -18 -63 -3 -63 6 0 10 -10 9 -22 0 -22 -1 -22 -9
-3 -11 25 -10 28 -16 -75 -3 -47 -2 -82 2 -77 9 9 33 -44 26 -57 -3 -6 -6 -46
-6 -90 l-1 -81 -30 -5 c-18 -3 -30 -11 -31 -21 -1 -12 4 -15 19 -11 23 6 18
-7 -16 -45 -19 -22 -19 -22 1 -16 16 4 21 0 24 -18 2 -12 9 -24 16 -27 9 -3
13 3 10 18 -2 13 2 25 8 27 14 5 25 -32 13 -44 -4 -4 -4 -14 1 -22 7 -12 10
-12 22 0 14 14 18 56 7 74 -4 6 -8 46 -9 90 0 44 -2 117 -3 163 -2 62 1 81 11
77 13 -5 17 31 4 39 -5 3 -7 24 -6 48 3 67 31 54 114 -53 42 -54 84 -96 108
-109 36 -18 37 -6 2 23 -16 14 -30 30 -30 36 0 6 -9 11 -21 11 -14 0 -19 5
-16 14 9 23 -178 228 -200 219z m8 -173 c-2 -31 -7 -48 -12 -43 -10 10 0 105
10 99 3 -2 4 -27 2 -56z m9 -340 c0 -11 -2 -20 -4 -20 -2 0 -6 9 -9 20 -3 11
-1 20 4 20 5 0 9 -9 9 -20z"/>
<path d="M1950 7443 c0 -5 4 -14 9 -21 7 -11 9 -11 14 1 3 8 3 18 0 21 -9 8
-23 7 -23 -1z"/>
<path d="M3212 7401 c-10 -6 -10 -10 3 -21 8 -7 15 -21 15 -32 0 -11 5 -28 11
-40 17 -32 21 -65 23 -223 1 -82 6 -157 9 -165 6 -11 -11 -24 -65 -51 -40 -20
-72 -41 -70 -48 1 -6 -4 -11 -12 -11 -8 0 -51 -40 -97 -90 -45 -49 -87 -90
-94 -90 -6 0 -38 24 -70 54 -33 30 -63 52 -68 49 -10 -6 48 -63 64 -63 5 0 9
-6 9 -13 0 -7 9 -19 20 -27 11 -8 20 -19 20 -25 -1 -14 -86 -102 -138 -142
-24 -18 -53 -44 -64 -56 l-19 -22 6 45 c4 25 9 52 11 62 3 9 0 19 -6 23 -6 4
-10 -4 -10 -19 0 -14 -4 -27 -9 -30 -4 -3 -11 41 -15 97 -3 56 -9 134 -12 172
-6 81 6 112 30 80 11 -15 15 -16 15 -5 0 8 -6 23 -14 33 -12 16 -11 23 7 53
24 40 9 46 -21 8 -15 -20 -21 -22 -21 -10 0 9 5 16 10 16 6 0 10 7 10 15 0 12
-4 13 -19 5 -17 -8 -35 -53 -35 -85 -1 -18 -52 -88 -104 -142 -28 -29 -49 -53
-46 -53 3 0 -4 -10 -16 -22 -11 -12 -20 -25 -20 -30 0 -4 -6 -8 -13 -8 -15 0
-136 -123 -177 -179 -14 -18 -35 -43 -47 -54 -13 -11 -23 -29 -23 -39 0 -10
-7 -18 -15 -18 -8 0 -15 -4 -15 -9 0 -5 -3 -17 -6 -25 -11 -29 21 -8 41 27 47
81 191 237 219 237 11 0 17 2 14 5 -3 3 14 27 38 53 24 26 44 51 44 56 0 4 22
34 48 65 27 31 51 64 55 74 7 20 26 23 32 5 2 -7 6 -62 9 -123 3 -60 9 -156
12 -213 l7 -102 -140 -138 c-77 -75 -222 -228 -322 -339 l-183 -203 -57 -1
c-117 -1 -171 -6 -185 -18 -8 -7 -17 -8 -20 -3 -5 9 -46 8 -95 -3 -29 -6 -44
6 -22 19 5 3 11 14 14 25 8 31 -17 15 -30 -19 -6 -17 -16 -30 -22 -30 -16 0
-10 52 8 73 14 17 14 20 -2 28 -15 9 -17 22 -11 125 5 81 3 114 -5 114 -7 0
-11 -20 -11 -52 -1 -115 -9 -211 -19 -221 -8 -8 -11 34 -11 150 0 156 7 194
29 156 10 -18 10 8 -4 178 -4 52 -2 60 28 97 17 21 54 59 82 83 84 75 175 164
175 172 0 5 -39 -28 -87 -72 -49 -44 -104 -92 -124 -108 -20 -15 -44 -41 -53
-57 -13 -22 -20 -26 -28 -18 -18 18 -34 -33 -33 -105 0 -35 -2 -63 -5 -63 -3
0 -5 -51 -5 -112 0 -62 -3 -156 -6 -208 -4 -52 -3 -100 2 -105 12 -16 4 -50
-12 -50 -8 0 -13 8 -11 17 2 12 -2 16 -13 12 -8 -3 -13 -10 -10 -14 3 -5 0
-10 -7 -12 -21 -7 0 -40 24 -38 41 4 49 0 46 -18 -2 -11 2 -19 7 -19 6 0 9 9
7 20 -2 12 1 17 7 13 6 -4 11 -18 11 -32 0 -13 5 -24 10 -24 6 0 10 13 10 29
0 28 27 50 47 38 5 -3 74 0 155 7 81 6 159 8 175 5 15 -4 54 -10 86 -14 50 -6
59 -10 68 -31 12 -33 10 -175 -3 -191 -6 -8 -6 -18 1 -30 6 -10 11 -12 11 -5
0 6 5 12 11 12 6 0 9 -7 6 -15 -4 -8 -2 -17 3 -20 17 -11 11 -23 -15 -29 -14
-4 -25 -11 -25 -16 0 -14 18 -12 23 3 7 19 22 -2 23 -34 3 -62 4 -69 15 -69 6
0 9 6 6 14 -3 8 -9 88 -12 178 -4 103 -12 181 -22 213 -9 28 -17 56 -19 63 -2
8 -12 10 -29 6 -14 -3 -25 -2 -25 3 0 11 60 79 172 198 37 39 80 87 95 106 84
105 301 319 324 319 6 0 8 -9 4 -20 -3 -11 -3 -24 0 -30 6 -9 13 -189 18 -428
1 -78 5 -101 14 -97 7 2 13 -3 13 -11 0 -10 -6 -14 -15 -11 -23 9 -29 -13 -7
-28 14 -11 18 -23 15 -47 -5 -41 -5 -63 1 -163 3 -44 7 -113 8 -152 2 -40 6
-73 9 -73 10 0 8 700 -2 705 -4 3 -5 14 -2 24 3 13 -1 21 -14 24 -16 4 -16 5
0 6 9 0 17 9 18 19 4 65 -4 164 -18 203 -30 85 1 146 124 248 34 28 68 58 75
68 7 10 23 26 35 36 21 18 22 18 42 -2 12 -12 21 -25 21 -30 0 -5 7 -11 15
-15 9 -3 15 0 15 9 0 14 -10 25 -44 49 -19 13 -18 15 21 62 23 27 78 84 122
128 68 66 83 77 96 66 8 -7 15 -23 15 -36 0 -13 4 -24 9 -24 5 0 9 21 8 48 -2
36 2 47 13 47 8 0 16 -10 18 -22 2 -13 7 -23 11 -23 14 0 162 -120 168 -136 3
-8 17 -21 32 -29 14 -8 42 -28 61 -45 19 -17 55 -45 80 -63 50 -35 88 -66 135
-112 17 -16 44 -38 59 -49 39 -25 106 -89 106 -101 0 -5 14 -21 31 -34 17 -14
56 -52 87 -85 31 -33 100 -103 152 -156 88 -89 136 -140 183 -198 19 -23 19
-24 -2 -46 -20 -21 -54 -31 -136 -39 -11 -1 -25 -6 -32 -10 -6 -4 -14 -3 -17
1 -3 5 -98 9 -210 9 -113 0 -203 -4 -200 -8 2 -4 -1 -11 -8 -15 -7 -5 -4 -10
11 -16 16 -5 21 -13 17 -24 -8 -22 4 -40 15 -23 7 11 9 10 9 -4 0 -10 -7 -20
-15 -23 -19 -8 -20 -24 -1 -24 16 0 24 -54 16 -115 -4 -30 -9 -40 -22 -39 -10
1 -18 -4 -18 -12 0 -8 6 -14 14 -14 10 0 15 -16 18 -56 1 -31 0 -58 -3 -60 -4
-2 -4 -21 0 -41 3 -21 5 -50 3 -65 -3 -24 -6 -26 -38 -21 -20 3 -60 -1 -92
-10 -84 -23 -278 -47 -427 -53 -207 -8 -527 -7 -562 0 -19 5 -33 4 -33 -2 0
-5 -22 -10 -48 -10 -27 -1 -82 -9 -122 -17 -82 -17 -225 -18 -251 -2 -13 8
-22 7 -34 -3 -14 -12 -18 -12 -26 1 -5 8 -9 17 -9 22 0 16 -22 6 -27 -13 -3
-11 -9 -18 -13 -15 -21 13 -38 -7 -34 -38 16 -113 23 -357 10 -357 -4 0 -6
-10 -2 -23 16 -67 24 -438 12 -652 -5 -103 -1 -140 15 -130 11 7 12 -5 9 -161
-1 -67 2 -163 5 -213 6 -75 10 -91 23 -89 19 4 27 65 25 198 -4 278 -3 451 2
460 8 12 -4 70 -13 70 -4 0 -8 -32 -10 -72 -2 -79 -21 -120 -24 -53 -3 87 -3
117 3 121 4 2 5 16 2 31 -3 27 -3 27 8 5 32 -60 33 2 3 99 -14 43 -14 66 0
237 3 31 0 42 -10 42 -8 0 -14 8 -14 18 -7 234 -6 369 3 380 7 9 5 16 -7 25
-11 8 -17 23 -14 37 l3 24 179 3 c100 1 195 8 214 14 20 7 135 13 281 16 410
7 584 11 619 17 18 3 58 10 89 16 31 5 73 10 94 10 21 0 39 5 41 11 4 13 105
25 166 20 6 -1 12 -10 12 -22 0 -29 -18 -59 -33 -54 -16 6 -40 -46 -27 -59 6
-6 13 0 20 15 13 27 76 63 92 53 23 -14 361 -22 598 -14 69 2 154 1 190 -3 36
-4 108 -10 160 -13 52 -3 124 -7 160 -10 219 -16 257 -15 395 12 11 3 49 9 85
14 36 5 90 14 120 19 30 5 58 7 61 5 3 -1 27 3 54 11 36 11 51 12 62 4 10 -9
18 -8 31 4 10 9 54 19 107 26 50 6 127 15 172 21 85 10 112 7 115 -14 1 -13 5
-29 8 -36 7 -18 19 -422 12 -438 -3 -9 -8 -10 -18 -2 -7 7 -10 18 -7 25 3 9
-5 19 -21 26 -14 7 -26 20 -26 30 0 10 -13 28 -30 41 -16 12 -32 30 -35 39 -7
20 -128 119 -146 119 -7 0 -22 11 -35 25 -13 14 -30 25 -39 25 -8 0 -15 5 -15
10 0 6 -4 10 -10 10 -25 0 -5 -22 57 -61 137 -86 183 -133 310 -318 52 -75 79
-105 90 -98 7 5 6 20 -3 48 -13 38 -18 89 -15 177 1 30 3 32 21 22 19 -10 20
-8 20 74 0 47 -4 88 -10 91 -6 4 -10 -18 -10 -59 0 -37 -4 -66 -10 -66 -5 0
-11 6 -11 13 -3 29 -7 67 -13 147 -3 47 -9 99 -12 116 -5 26 -2 32 16 37 12 3
19 10 15 16 -8 13 -25 13 513 16 232 1 422 -1 422 -4 0 -9 8 -10 159 -11 91 0
131 3 154 15 16 8 36 15 42 15 7 0 18 6 24 13 9 11 2 14 -33 14 -38 1 -43 -1
-39 -18 4 -12 0 -19 -9 -19 -15 0 -29 49 -44 155 -4 28 -9 59 -11 70 -11 62
-13 140 -5 220 7 70 7 93 -3 104 -18 18 -35 6 -35 -25 0 -23 -2 -24 -15 -10
-9 8 -22 13 -30 10 -10 -4 -15 0 -15 13 0 10 -13 27 -30 36 -29 18 -30 18 -30
-2 0 -14 5 -19 15 -15 10 4 18 -3 25 -20 5 -14 16 -26 23 -26 7 0 23 -10 35
-23 18 -20 21 -35 22 -112 0 -50 2 -103 4 -120 3 -16 8 -64 11 -105 4 -41 12
-81 17 -88 6 -7 9 -15 6 -17 -4 -4 -271 -8 -373 -6 -39 1 -40 15 -1 23 34 6
31 28 -4 28 -17 0 -29 -4 -25 -9 13 -22 -131 -45 -203 -34 -30 5 -33 9 -30 37
3 30 2 31 -32 28 -50 -5 -63 -22 -17 -22 36 0 46 -12 29 -35 -4 -6 -64 -10
-142 -10 -74 0 -168 -4 -209 -9 -49 -5 -72 -5 -67 2 3 5 23 13 43 17 21 4 33
9 27 12 -6 2 -48 -5 -94 -16 -46 -11 -87 -18 -91 -15 -4 2 -10 0 -14 -6 -11
-18 -23 -11 -36 23 l-13 32 -3 -32 c-3 -26 -9 -33 -26 -33 -209 -4 -317 -16
-410 -42 -50 -15 -85 3 -89 46 -3 27 -7 31 -33 32 -16 1 -41 5 -54 9 -56 19
-178 90 -243 142 -37 31 -115 79 -171 107 -59 29 -102 57 -100 63 3 7 12 9 21
6 14 -4 14 -3 2 5 -8 6 -19 8 -24 5 -15 -10 -56 -10 -56 0 0 4 -5 5 -10 2 -6
-4 -34 11 -63 32 -29 22 -69 50 -89 64 -38 24 -50 49 -24 49 7 0 26 -9 42 -21
l29 -21 -29 27 c-23 21 -36 26 -58 21 -15 -3 -28 -1 -28 4 0 5 -12 13 -27 16
-57 14 -55 5 -48 299 3 149 3 279 -1 288 -8 22 -34 22 -35 0 0 -10 -2 -83 -4
-163 -2 -80 -4 -145 -4 -145 -1 0 -4 -72 -7 -160 -5 -128 -9 -162 -21 -169 -8
-4 -23 -16 -33 -26 -10 -10 -20 -16 -23 -14 -2 2 -21 -7 -41 -21 -20 -14 -41
-25 -46 -25 -5 0 -15 -8 -22 -18 -16 -21 -73 -64 -114 -85 -17 -9 -105 -91
-196 -182 -91 -91 -172 -165 -181 -165 -8 0 -18 -6 -20 -12 -4 -9 -6 -8 -6 3
-1 8 10 25 24 37 14 13 23 27 20 32 -3 5 3 11 12 14 21 7 69 86 53 86 -6 0
-13 -7 -16 -15 -3 -8 -14 -17 -25 -20 -10 -4 -19 -12 -19 -18 -1 -20 -79 -96
-104 -103 -19 -4 -26 -1 -31 17 -8 24 -9 109 -1 116 3 3 1 16 -4 29 -6 14 -6
26 0 29 5 3 6 15 1 27 -4 13 -2 37 6 61 8 22 11 47 8 54 -3 8 -2 20 1 25 9 15
17 73 18 130 1 46 2 47 37 53 20 4 63 6 95 5 72 -2 249 8 287 16 27 6 32 -1
28 -33 -1 -7 0 -13 3 -13 10 0 81 44 88 54 5 7 11 7 20 -2 17 -17 45 -15 52 5
6 15 -8 32 -27 33 -5 0 -7 10 -5 23 2 16 -2 22 -15 22 -10 0 -23 9 -30 20 -6
11 -24 34 -41 51 -154 153 -431 440 -471 486 -27 32 -57 61 -68 64 -10 3 -51
34 -90 67 -39 34 -94 78 -123 97 -63 42 -110 79 -185 145 -32 28 -74 64 -95
82 -20 18 -42 47 -49 66 -7 20 -12 107 -13 211 -1 97 -4 181 -7 186 -15 24 19
16 65 -15 56 -37 89 -48 47 -15 -14 11 -28 20 -32 20 -3 0 -16 11 -28 23 -12
13 -27 22 -32 20 -6 -2 -16 17 -23 42 -7 28 -18 45 -27 45 -8 0 -15 5 -15 10
0 12 -10 13 -28 1z m1208 -1631 c0 -5 -4 -10 -10 -10 -5 0 -10 5 -10 10 0 6 5
10 10 10 6 0 10 -4 10 -10z m280 -56 c0 -8 -4 -14 -10 -14 -5 0 -10 9 -10 21
0 11 5 17 10 14 6 -3 10 -13 10 -21z m68 -25 c18 -22 20 -29 8 -29 -19 0 -46
27 -46 46 0 21 13 16 38 -17z m-42 -36 c3 -10 23 -56 45 -103 21 -47 45 -110
53 -140 37 -137 46 -163 60 -186 18 -26 12 -73 -8 -75 -178 -20 -356 -26 -378
-13 -4 3 -3 15 4 27 6 12 13 40 14 62 2 22 13 65 25 95 11 30 35 97 54 148 38
105 41 110 57 94 20 -20 31 -13 24 14 -14 55 34 128 50 77z m130 -56 c102 -55
192 -122 206 -153 7 -14 20 -24 32 -25 12 0 35 -10 52 -22 114 -80 187 -128
215 -142 41 -22 34 -26 -101 -55 -103 -22 -172 -30 -279 -33 -60 -2 -55 -10
-101 138 -53 172 -75 232 -97 267 -23 38 -30 68 -15 68 5 0 44 -19 88 -43z
m-226 19 c0 -2 -14 -36 -31 -76 -49 -116 -119 -323 -119 -352 0 -16 -4 -28
-10 -28 -5 0 -10 -6 -10 -14 0 -7 -10 -16 -22 -18 -36 -6 -378 -1 -385 6 -4 3
35 47 86 96 63 61 91 95 87 106 -4 9 -2 12 5 8 6 -3 32 14 57 38 26 25 88 73
137 107 50 34 112 77 139 96 43 32 66 42 66 31z m-750 -32 c0 -8 -4 -12 -10
-9 -5 3 -10 10 -10 16 0 5 5 9 10 9 6 0 10 -7 10 -16z m1575 -344 c3 -5 -1
-10 -9 -10 -9 0 -16 5 -16 10 0 6 4 10 9 10 6 0 13 -4 16 -10z m33 -67 c35
-22 82 -64 82 -75 0 -4 -10 -8 -22 -8 -13 0 -77 -10 -143 -21 -137 -24 -235
-29 -385 -17 -58 4 -150 10 -205 13 -55 4 -111 8 -125 9 -14 2 -43 4 -65 5
-83 3 -7 18 155 31 91 7 170 16 175 19 6 4 35 8 65 9 81 4 195 20 280 42 85
20 147 18 188 -7z m135 18 c28 -11 38 -30 30 -59 -9 -35 -40 -33 -73 4 -16 19
-30 38 -30 43 0 22 32 27 73 12z m1835 -23 c-3 -7 -14 -13 -25 -14 -14 -1 -20
3 -16 12 7 18 46 19 41 2z m-108 -8 c0 -5 -11 -10 -25 -10 -14 0 -25 5 -25 10
0 6 11 10 25 10 14 0 25 -4 25 -10z m-3450 -50 c0 -5 -2 -10 -4 -10 -3 0 -8 5
-11 10 -3 6 -1 10 4 10 6 0 11 -4 11 -10z m519 -14 c59 -13 22 -17 -157 -15
-106 1 -195 5 -197 9 -3 5 9 10 27 12 47 5 298 0 327 -6z m156 -6 c3 -5 -1
-10 -9 -10 -9 0 -16 5 -16 10 0 6 4 10 9 10 6 0 13 -4 16 -10z m-2411 -1165
c-4 -8 -8 -15 -10 -15 -2 0 -4 7 -4 15 0 8 4 15 10 15 5 0 7 -7 4 -15z m22
-382 c-17 -31 -19 -23 -10 27 6 26 9 29 16 16 6 -10 4 -25 -6 -43z"/>
<path d="M6173 7383 c-18 -7 -16 -33 2 -33 8 0 15 9 15 20 0 11 -1 20 -2 19
-2 0 -9 -3 -15 -6z"/>
<path d="M6000 7364 c0 -14 3 -14 15 -4 8 7 15 14 15 16 0 2 -7 4 -15 4 -8 0
-15 -7 -15 -16z"/>
<path d="M2509 7279 c-46 -39 -157 -144 -246 -232 -185 -183 -188 -187 -202
-187 -6 0 -8 -7 -5 -15 10 -25 33 -17 58 23 20 31 230 239 436 430 79 74 58
64 -41 -19z"/>
<path d="M2641 7332 c-13 -25 -14 -52 -2 -52 10 0 26 58 18 67 -3 2 -10 -4
-16 -15z"/>
<path d="M5957 7320 c-8 -11 -17 -17 -22 -12 -5 4 -4 1 0 -7 6 -11 4 -13 -8
-8 -10 4 -18 0 -21 -11 -3 -10 -16 -24 -27 -32 -40 -28 -73 -61 -75 -77 -2
-14 -41 -48 -55 -48 -20 0 -180 -167 -174 -182 2 -7 0 -13 -6 -13 -12 0 -58
-51 -59 -66 0 -5 -13 -23 -30 -39 -16 -16 -30 -35 -30 -42 0 -7 -6 -13 -13
-13 -18 0 -51 -38 -68 -78 -8 -18 -19 -30 -26 -28 -7 3 -24 -9 -38 -27 -15
-18 -33 -40 -41 -50 -8 -10 -14 -23 -12 -29 4 -11 67 49 132 124 40 46 157
178 179 200 9 10 17 22 17 28 0 5 92 101 205 213 113 112 205 207 205 210 0
14 -19 6 -33 -13z"/>
<path d="M3436 7201 c25 -23 118 -81 122 -76 6 6 10 4 -59 48 -51 34 -87 49
-63 28z"/>
<path d="M6839 7118 c4 -28 6 -29 9 -9 2 13 0 27 -5 32 -6 6 -7 -3 -4 -23z"/>
<path d="M7060 7124 c0 -13 87 -83 98 -79 9 3 11 -1 8 -13 -5 -13 6 -30 33
-55 22 -20 45 -37 51 -37 7 0 9 -8 5 -19 -5 -15 0 -21 24 -26 16 -3 32 -13 35
-21 3 -8 12 -14 21 -14 8 0 14 -3 13 -7 -2 -5 8 -21 22 -36 24 -28 38 -97 20
-97 -15 0 -50 33 -44 41 2 4 -5 11 -17 14 -11 4 -18 12 -16 19 3 6 -3 13 -13
13 -36 3 -7 -36 130 -176 76 -78 155 -164 175 -191 20 -27 50 -59 66 -71 16
-11 29 -27 29 -35 0 -8 4 -14 9 -14 6 0 31 -18 56 -40 38 -33 50 -38 61 -29
13 10 12 14 -1 29 -9 9 -13 23 -10 31 3 8 -4 21 -16 29 -12 8 -32 24 -44 35
-13 11 -53 44 -89 74 -64 53 -82 81 -51 81 8 0 25 -12 38 -26 12 -15 27 -31
32 -35 6 -5 39 -33 75 -64 36 -30 69 -55 73 -55 19 0 89 -83 102 -120 8 -22
16 -73 18 -112 3 -40 8 -81 12 -90 4 -9 4 -22 0 -28 -4 -6 -2 -16 3 -23 9 -12
14 -34 32 -132 16 -84 21 -109 27 -130 l6 -20 -23 20 c-13 11 -39 35 -58 53
-18 17 -40 32 -48 32 -8 0 -17 7 -20 15 -4 8 -11 15 -18 15 -6 0 -16 10 -21
22 -6 13 -20 28 -33 34 -12 6 -26 15 -30 19 -4 5 -1 5 6 1 6 -4 12 -3 12 2 0
5 -12 15 -27 23 -36 18 -53 34 -53 51 0 10 -3 9 -10 -2 -8 -13 -11 -11 -16 8
-7 23 -19 29 -29 12 -6 -10 54 -72 171 -175 37 -33 75 -69 83 -79 9 -10 26
-28 39 -39 48 -44 33 -47 -168 -33 -41 3 -118 8 -171 10 -53 3 -101 6 -105 7
-20 3 -25 -2 -12 -14 7 -7 27 -14 43 -14 17 0 86 -6 155 -12 69 -6 166 -13
215 -16 50 -3 92 -10 93 -15 6 -18 50 -11 57 9 6 20 -8 130 -24 191 -20 73
-70 380 -75 455 0 11 -5 23 -10 26 -5 4 -8 29 -8 55 0 44 -1 46 -10 24 -6 -14
-11 -28 -10 -31 3 -18 -36 -1 -60 27 -16 18 -43 36 -59 39 -24 5 -30 11 -26
26 4 15 0 19 -19 19 -16 0 -22 4 -18 14 6 15 -30 41 -56 41 -8 0 -15 5 -16 10
0 13 -174 189 -174 176 0 -5 7 -16 15 -25 17 -17 20 -36 5 -36 -5 0 -10 7 -10
15 0 8 -4 15 -10 15 -5 0 -10 15 -10 33 0 17 -9 43 -20 57 -11 14 -20 30 -20
36 0 20 -46 55 -64 48 -13 -5 -17 -2 -14 9 3 17 -50 70 -93 92 -15 8 -29 21
-33 30 -3 9 -11 13 -17 9 -8 -4 -9 -3 -5 4 9 14 -17 43 -83 95 -47 36 -81 54
-81 41z m370 -314 c0 -5 -4 -10 -10 -10 -5 0 -10 5 -10 10 0 6 5 10 10 10 6 0
10 -4 10 -10z m30 -135 c10 -12 10 -19 2 -27 -8 -8 -16 -5 -31 13 -26 31 -28
53 -3 40 10 -5 25 -17 32 -26z m135 -124 c-3 -6 -11 -11 -17 -11 -6 0 -6 6 2
15 14 17 26 13 15 -4z m141 -68 c-6 -6 -36 9 -36 18 0 5 9 4 20 -3 10 -7 18
-14 16 -15z"/>
<path d="M3590 7111 c0 -12 86 -71 104 -71 6 0 22 -9 36 -20 14 -11 29 -20 33
-20 18 0 -7 20 -66 54 -34 20 -72 44 -84 52 -15 10 -23 12 -23 5z"/>
<path d="M1980 7089 c0 -5 5 -7 10 -4 6 3 10 8 10 11 0 2 -4 4 -10 4 -5 0 -10
-5 -10 -11z"/>
<path d="M1530 6918 c-1 -40 -2 -85 -3 -100 0 -16 -3 -28 -7 -28 -4 0 -7 -15
-8 -32 -1 -18 -5 -82 -10 -143 -7 -93 -9 -190 -3 -242 0 -7 5 -13 9 -13 4 0 9
28 10 63 2 82 12 247 17 277 13 98 19 126 24 135 6 9 7 60 2 133 0 12 -7 22
-15 22 -10 0 -14 -19 -16 -72z"/>
<path d="M6680 6943 c0 -15 18 -35 23 -27 3 5 -1 15 -9 22 -8 7 -14 9 -14 5z"/>
<path d="M6652 6908 c-15 -15 -16 -31 0 -22 7 5 9 2 5 -9 -4 -10 -2 -14 7 -11
6 2 12 16 12 29 0 28 -6 31 -24 13z"/>
<path d="M6611 6851 c-12 -21 -6 -27 16 -13 7 5 9 13 4 21 -7 11 -11 9 -20 -8z"/>
<path d="M6846 6843 c11 -45 36 -73 59 -66 16 5 18 3 8 -9 -10 -12 -3 -24 42
-71 30 -31 55 -61 55 -65 0 -13 50 -77 60 -77 4 0 12 -4 17 -9 5 -5 3 -6 -4
-2 -15 8 -18 -10 -3 -19 6 -3 10 0 10 7 0 7 10 2 21 -12 23 -28 16 -9 -13 33
-11 15 -24 25 -29 22 -5 -4 -6 1 -3 9 3 9 1 16 -5 16 -6 0 -11 5 -11 11 0 19
-105 149 -117 144 -6 -2 -11 4 -10 15 1 17 -60 97 -76 99 -4 1 -4 -11 -1 -26z"/>
<path d="M6749 6785 c-2 -44 -2 -47 -13 -64 -5 -8 -4 -16 2 -20 8 -5 8 -18 -1
-46 -9 -30 -9 -39 1 -43 8 -2 10 -16 6 -42 -4 -22 -2 -40 5 -44 7 -5 10 36 10
134 0 78 3 145 6 150 4 6 1 10 -4 10 -6 0 -12 -16 -12 -35z"/>
<path d="M2041 6775 c-19 -20 -31 -39 -27 -43 4 -4 15 2 25 14 9 12 27 26 39
33 12 6 22 16 22 21 0 20 -26 9 -59 -25z"/>
<path d="M6584 6774 c-35 -45 -45 -69 -14 -34 55 59 63 70 54 70 -6 0 -24 -16
-40 -36z"/>
<path d="M2705 6790 c-3 -5 -2 -10 4 -10 5 0 13 5 16 10 3 6 2 10 -4 10 -5 0
-13 -4 -16 -10z"/>
<path d="M3181 6773 c1 -10 5 -31 9 -48 7 -27 8 -25 9 18 0 26 -3 47 -9 47 -5
0 -9 -8 -9 -17z"/>
<path d="M7360 6780 c0 -5 5 -10 10 -10 6 0 10 5 10 10 0 6 -4 10 -10 10 -5 0
-10 -4 -10 -10z"/>
<path d="M2751 6756 c7 -14 17 -25 21 -24 17 6 13 21 -10 36 -23 15 -23 15
-11 -12z"/>
<path d="M3234 6744 c3 -9 6 -20 6 -25 0 -5 4 -9 9 -9 4 0 6 11 3 25 -2 14 -9
25 -14 25 -6 0 -7 -7 -4 -16z"/>
<path d="M6128 6716 c-21 -16 -24 -38 -4 -30 10 4 32 46 23 44 -1 0 -10 -7
-19 -14z"/>
<path d="M1988 6703 c-9 -10 -34 -36 -55 -58 -21 -23 -46 -53 -56 -68 -29 -44
4 -20 48 35 22 28 51 63 64 79 26 31 25 40 -1 12z"/>
<path d="M6512 6700 c9 -13 16 -16 23 -9 7 7 5 13 -5 19 -24 15 -31 11 -18
-10z"/>
<path d="M3190 6678 c0 -9 5 -20 10 -23 13 -8 13 5 0 25 -8 13 -10 13 -10 -2z"/>
<path d="M3244 6663 c2 -16 4 -34 5 -41 0 -7 5 -11 9 -8 10 6 3 64 -9 71 -4 3
-6 -7 -5 -22z"/>
<path d="M6150 6681 c0 -5 -9 -11 -20 -14 -15 -4 -19 -12 -17 -36 2 -36 8 -38
31 -12 19 21 29 71 15 71 -5 0 -9 -4 -9 -9z"/>
<path d="M6478 6663 c6 -2 18 -2 25 0 6 3 1 5 -13 5 -14 0 -19 -2 -12 -5z"/>
<path d="M3186 6593 c-4 -8 -1 -22 5 -30 7 -7 13 -53 15 -101 4 -145 6 -149
37 -117 17 17 12 50 -12 80 -15 18 -15 19 0 7 26 -20 32 45 8 77 -11 13 -19
35 -19 48 0 13 -6 31 -14 38 -12 12 -15 12 -20 -2z"/>
<path d="M2697 6593 c-10 -10 -8 -63 2 -63 13 0 24 51 13 62 -4 4 -11 5 -15 1z"/>
<path d="M3248 6565 c-2 -20 -1 -38 3 -40 10 -7 20 58 10 68 -5 5 -10 -6 -13
-28z"/>
<path d="M6130 6548 c0 -15 4 -29 9 -33 17 -10 20 10 5 35 l-13 25 -1 -27z"/>
<path d="M5157 6469 c-30 -36 -46 -64 -41 -71 4 -7 4 -10 -1 -6 -5 5 -15 -2
-23 -13 -12 -17 -16 -18 -23 -8 -5 8 -9 24 -9 36 0 12 -10 29 -22 37 -25 18
-34 14 -23 -11 12 -28 14 -44 30 -208 8 -89 12 -157 13 -282 1 -65 6 -113 12
-113 14 0 31 74 26 117 -9 75 -21 299 -18 338 4 62 5 63 19 58 7 -3 13 0 13 7
0 7 14 30 31 51 17 22 27 44 23 50 -4 7 -3 9 3 6 5 -3 20 6 34 21 36 38 40 48
21 49 -9 0 -39 -26 -65 -58z"/>
<path d="M6340 6495 c7 -9 15 -13 17 -11 7 7 -7 26 -19 26 -6 0 -6 -6 2 -15z"/>
<path d="M3040 6460 c17 -22 37 -37 42 -34 7 4 8 2 4 -5 -4 -6 4 -25 18 -42
14 -17 26 -35 26 -40 0 -5 7 -9 15 -9 9 0 21 -12 27 -27 7 -16 17 -35 24 -43
8 -10 13 -68 16 -168 2 -116 6 -155 17 -161 11 -7 10 -13 -8 -32 -12 -13 -19
-29 -17 -36 13 -32 29 -99 27 -110 -1 -6 3 -14 9 -18 18 -11 11 -45 -10 -45
-13 0 -18 -5 -14 -14 3 -8 12 -12 19 -9 10 3 13 -3 12 -23 -1 -15 3 -29 9 -31
7 -2 12 2 11 9 -1 37 5 58 21 74 14 14 16 32 14 93 -1 41 -7 80 -12 85 -6 6
-8 -21 -6 -77 4 -82 -3 -112 -20 -86 -4 6 -7 29 -7 50 0 22 -4 39 -9 39 -6 0
-7 8 -3 18 4 9 9 52 11 94 1 43 5 82 8 87 4 5 2 12 -3 15 -11 7 -3 46 9 46 5
0 11 -10 13 -22 3 -15 5 -11 5 12 1 19 -3 42 -9 50 -8 13 -9 12 -7 -4 2 -10
-3 -21 -9 -23 -17 -6 -17 37 1 71 l13 26 27 -25 c14 -13 26 -29 26 -36 0 -6 7
-9 15 -5 8 3 14 1 12 -3 -6 -22 106 -141 120 -127 8 8 -38 57 -47 51 -5 -3
-10 6 -14 18 -3 13 -32 53 -63 88 -65 72 -83 100 -83 128 0 10 -7 24 -15 31
-9 7 -14 19 -11 26 3 8 -1 13 -12 12 -46 -4 -60 3 -73 34 -7 17 -37 55 -67 85
-65 64 -99 73 -52 13z m230 -260 c0 -5 -5 -10 -11 -10 -5 0 -7 5 -4 10 3 6 8
10 11 10 2 0 4 -4 4 -10z"/>
<path d="M6313 6473 c-20 -7 -15 -23 7 -23 11 0 20 4 20 9 0 13 -12 19 -27 14z"/>
<path d="M6740 6470 c0 -5 5 -10 11 -10 5 0 7 5 4 10 -3 6 -8 10 -11 10 -2 0
-4 -4 -4 -10z"/>
<path d="M7136 6465 c-7 -19 11 -48 25 -39 12 7 11 17 -4 38 -13 18 -14 18
-21 1z"/>
<path d="M1542 6380 c0 -14 2 -19 5 -12 2 6 2 18 0 25 -3 6 -5 1 -5 -13z"/>
<path d="M7193 6386 c10 -8 15 -20 11 -30 -4 -12 0 -16 16 -16 11 0 19 -4 15
-9 -7 -12 6 -20 48 -31 l32 -9 -30 22 c-16 12 -43 37 -59 55 -16 17 -34 32
-40 32 -6 0 -3 -7 7 -14z"/>
<path d="M1541 6334 c0 -11 3 -14 6 -6 3 7 2 16 -1 19 -3 4 -6 -2 -5 -13z"/>
<path d="M6107 6309 c7 -7 15 -10 18 -7 3 3 -2 9 -12 12 -14 6 -15 5 -6 -5z"/>
<path d="M6615 6310 c3 -5 11 -10 16 -10 6 0 7 5 4 10 -3 6 -11 10 -16 10 -6
0 -7 -4 -4 -10z"/>
<path d="M3135 6270 c3 -5 8 -10 11 -10 2 0 4 5 4 10 0 6 -5 10 -11 10 -5 0
-7 -4 -4 -10z"/>
<path d="M6716 6261 c-4 -7 -5 -15 -2 -18 9 -9 19 4 14 18 -4 11 -6 11 -12 0z"/>
<path d="M7335 6250 c3 -5 8 -10 11 -10 2 0 4 5 4 10 0 6 -5 10 -11 10 -5 0
-7 -4 -4 -10z"/>
<path d="M2092 6230 c-7 -11 -9 -20 -4 -20 10 0 32 22 32 32 0 15 -15 8 -28
-12z"/>
<path d="M7360 6244 c0 -8 61 -58 80 -66 9 -3 22 -3 29 1 8 5 2 13 -19 23 -17
8 -32 19 -33 24 -1 5 -8 8 -14 8 -7 -1 -13 2 -13 7 0 5 -7 9 -15 9 -8 0 -15
-3 -15 -6z"/>
<path d="M6819 6203 c-1 -16 0 -32 2 -38 1 -5 2 -20 2 -32 -1 -13 3 -23 8 -23
5 0 9 5 9 10 0 6 7 10 15 10 23 0 31 31 11 42 -9 5 -15 12 -13 16 2 4 -4 15
-15 25 -17 16 -18 16 -19 -10z"/>
<path d="M2066 6175 c-3 -8 -1 -15 4 -15 6 0 10 7 10 15 0 8 -2 15 -4 15 -2 0
-6 -7 -10 -15z"/>
<path d="M7470 6163 c0 -5 19 -23 41 -42 38 -31 41 -32 37 -11 -1 13 -10 26
-18 30 -8 4 -25 12 -37 19 -13 6 -23 8 -23 4z"/>
<path d="M6712 6129 c0 -16 4 -29 9 -29 6 0 8 4 5 9 -4 5 -1 11 6 13 10 4 9 9
-3 21 -15 14 -16 13 -17 -14z"/>
<path d="M2017 6132 c-10 -10 -17 -23 -17 -28 0 -5 -12 -20 -25 -33 -14 -13
-23 -26 -20 -29 6 -6 71 62 86 90 13 23 -3 23 -24 0z"/>
<path d="M6745 6101 c-6 -11 13 -26 22 -17 4 3 1 6 -6 6 -7 0 -9 5 -6 10 3 6
4 10 1 10 -3 0 -7 -4 -11 -9z"/>
<path d="M7560 6094 c0 -12 18 -35 44 -54 18 -14 19 -13 13 3 -3 9 -2 17 3 17
6 0 10 -9 10 -19 0 -20 17 -37 27 -28 9 10 -38 67 -56 67 -9 0 -22 5 -29 12
-7 7 -12 8 -12 2z"/>
<path d="M1927 6083 c-12 -12 -7 -22 8 -17 8 4 15 10 15 15 0 11 -14 12 -23 2z"/>
<path d="M5957 6046 c-15 -13 -27 -31 -27 -40 0 -23 17 -20 25 4 3 11 13 27
22 35 25 26 9 26 -20 1z"/>
<path d="M6730 6055 c0 -8 5 -15 10 -15 6 0 10 7 10 15 0 8 -4 15 -10 15 -5 0
-10 -7 -10 -15z"/>
<path d="M6960 6055 c0 -8 9 -15 21 -15 11 0 17 -4 14 -10 -4 -6 1 -7 11 -3
15 6 15 8 -6 25 -27 22 -40 23 -40 3z"/>
<path d="M1893 6040 c-3 -11 -12 -20 -19 -20 -16 0 -19 -16 -5 -25 13 -8 41
23 41 46 0 25 -10 24 -17 -1z"/>
<path d="M6777 6026 c-8 -20 20 -43 35 -28 8 8 8 15 -2 27 -16 19 -26 19 -33
1z"/>
<path d="M5308 5988 c-16 -18 -28 -38 -28 -44 0 -6 -8 -11 -17 -10 -11 0 -17
-6 -17 -16 1 -10 -1 -16 -5 -14 -3 1 -25 -17 -48 -41 -32 -33 -39 -45 -28 -49
13 -5 95 69 95 86 0 4 18 26 40 49 22 23 40 48 40 56 0 20 -1 20 -32 -17z"/>
<path d="M1927 5992 c-19 -20 -23 -37 -7 -27 10 6 33 45 27 45 -2 0 -11 -8
-20 -18z"/>
<path d="M6713 5960 c0 -27 4 -50 9 -50 4 0 8 -7 8 -17 0 -9 3 -14 6 -10 9 8
10 116 2 110 -5 -2 -8 1 -8 6 0 6 -4 11 -9 11 -5 0 -8 -22 -8 -50z"/>
<path d="M3282 5975 c0 -16 2 -22 5 -12 2 9 2 23 0 30 -3 6 -5 -1 -5 -18z"/>
<path d="M5900 5992 c0 -5 -18 -29 -40 -53 -22 -25 -35 -46 -29 -48 12 -4 89
73 89 89 0 5 -4 12 -10 15 -5 3 -10 2 -10 -3z"/>
<path d="M7010 5974 c0 -8 5 -12 10 -9 6 4 8 11 5 16 -9 14 -15 11 -15 -7z"/>
<path d="M1814 5957 c-11 -13 -19 -28 -16 -35 2 -7 -5 -12 -15 -12 -10 0 -29
-12 -42 -25 -19 -21 -20 -25 -6 -25 9 0 13 -4 10 -10 -3 -5 -16 -10 -29 -10
-23 0 -111 -81 -100 -93 4 -4 25 13 48 37 23 24 47 41 54 39 7 -3 25 10 40 28
15 18 47 54 71 81 34 38 40 48 25 47 -11 0 -28 -10 -40 -22z"/>
<path d="M7047 5974 c-4 -4 -7 -14 -7 -23 0 -11 3 -12 11 -4 6 6 10 16 7 23
-2 6 -7 8 -11 4z"/>
<path d="M3474 5958 c-4 -6 -2 -14 5 -16 7 -2 29 -20 49 -39 20 -19 51 -41 67
-48 17 -8 50 -32 73 -54 24 -23 48 -39 53 -36 4 3 14 -3 21 -15 13 -21 28 -27
28 -10 0 13 -139 128 -177 147 -18 8 -48 30 -68 49 -41 38 -41 38 -51 22z"/>
<path d="M6780 5960 c0 -5 5 -10 10 -10 6 0 10 5 10 10 0 6 -4 10 -10 10 -5 0
-10 -4 -10 -10z"/>
<path d="M7115 5949 c-4 -6 -5 -12 -2 -15 2 -3 7 2 10 11 7 17 1 20 -8 4z"/>
<path d="M7073 5943 c-10 -3 -9 -8 3 -20 8 -8 18 -12 22 -8 4 4 1 10 -6 12 -6
3 -10 9 -6 14 6 10 5 10 -13 2z"/>
<path d="M7137 5936 c-3 -8 0 -19 7 -25 8 -7 12 -5 13 9 2 24 -13 35 -20 16z"/>
<path d="M3281 5914 c0 -11 3 -14 6 -6 3 7 2 16 -1 19 -3 4 -6 -2 -5 -13z"/>
<path d="M7090 5891 c0 -12 35 -20 50 -11 8 5 7 9 -5 14 -24 9 -45 8 -45 -3z"/>
<path d="M5784 5848 l-19 -23 23 19 c21 18 27 26 19 26 -2 0 -12 -10 -23 -22z"/>
<path d="M6785 5860 c3 -5 14 -10 23 -10 15 0 15 2 2 10 -20 13 -33 13 -25 0z"/>
<path d="M6728 5853 c7 -3 16 -2 19 1 4 3 -2 6 -13 5 -11 0 -14 -3 -6 -6z"/>
<path d="M7167 5829 c6 -23 9 -24 16 -5 3 8 0 17 -7 19 -10 4 -12 -1 -9 -14z"/>
<path d="M7226 5790 c10 -20 19 -29 22 -21 2 7 -5 23 -17 35 l-22 21 17 -35z"/>
<path d="M6729 5797 c6 -8 8 -17 4 -20 -3 -4 -2 -7 4 -7 6 0 13 9 16 20 4 15
0 20 -15 20 -16 0 -18 -3 -9 -13z"/>
<path d="M5090 5762 c0 -4 -14 -13 -32 -21 -30 -14 -31 -15 -10 -22 12 -5 22
-15 22 -24 0 -8 9 -15 20 -15 11 0 20 5 20 10 0 6 -4 10 -10 10 -5 0 -10 7
-10 15 0 20 30 19 45 -1 10 -14 43 -16 246 -18 l234 -1 12 -35 c7 -19 12 -43
12 -53 1 -9 10 -37 22 -61 22 -47 22 -97 2 -103 -8 -3 -12 7 -11 31 1 20 -2
39 -5 43 -4 3 -7 -12 -7 -35 0 -22 5 -44 10 -47 6 -4 9 -26 7 -51 -2 -24 0
-44 5 -44 4 0 8 -10 8 -22 1 -31 23 -59 39 -49 10 6 13 48 13 167 0 252 -4
298 -25 302 -12 3 -20 -4 -24 -18 -4 -13 -8 -17 -13 -11 -4 7 -72 13 -190 17
-101 3 -189 9 -196 15 -8 7 -17 5 -27 -6 -19 -19 -36 -19 -61 0 -11 8 -28 15
-38 15 -10 0 -18 5 -18 10 0 6 -9 10 -20 10 -11 0 -20 -3 -20 -8z m580 -113
c0 -11 -4 -17 -10 -14 -5 3 -10 13 -10 21 0 8 5 14 10 14 6 0 10 -9 10 -21z
m10 -39 c0 -5 -2 -10 -4 -10 -3 0 -8 5 -11 10 -3 6 -1 10 4 10 6 0 11 -4 11
-10z"/>
<path d="M3820 5750 c0 -5 5 -10 10 -10 6 0 10 5 10 10 0 6 -4 10 -10 10 -5 0
-10 -4 -10 -10z"/>
<path d="M6730 5737 c0 -13 3 -27 7 -30 7 -8 7 -10 17 -152 4 -54 10 -103 13
-108 6 -9 43 21 43 36 0 5 -6 7 -14 4 -12 -5 -13 1 -9 29 3 19 2 34 -3 34 -5
0 -10 24 -11 52 -4 100 -7 128 -15 128 -4 0 -8 7 -8 15 0 8 -4 15 -10 15 -5 0
-10 -10 -10 -23z"/>
<path d="M3288 5622 c-4 -48 1 -74 14 -70 5 2 9 7 9 11 -1 4 -1 27 -1 52 0 55
-16 60 -22 7z"/>
<path d="M4481 5651 c-14 -4 -26 -12 -29 -19 -4 -14 21 -7 53 15 21 14 15 15
-24 4z"/>
<path d="M6827 5653 c-4 -3 -7 -11 -7 -17 0 -6 5 -5 12 2 6 6 9 14 7 17 -3 3
-9 2 -12 -2z"/>
<path d="M5201 5646 c13 -12 69 -35 69 -29 0 9 -48 33 -64 33 -5 0 -7 -2 -5
-4z"/>
<path d="M3240 5575 c12 -15 30 -12 30 6 0 5 -10 9 -21 9 -18 0 -19 -2 -9 -15z"/>
<path d="M5317 5569 c12 -12 25 -20 28 -17 3 3 -7 13 -22 23 l-28 17 22 -23z"/>
<path d="M3794 5506 c0 -19 4 -32 8 -30 4 3 8 18 8 35 0 16 -4 29 -8 29 -4 0
-8 -15 -8 -34z"/>
<path d="M3262 5510 c0 -14 2 -19 5 -12 2 6 2 18 0 25 -3 6 -5 1 -5 -13z"/>
<path d="M3268 5463 c7 -3 16 -2 19 1 4 3 -2 6 -13 5 -11 0 -14 -3 -6 -6z"/>
<path d="M2651 5444 c0 -11 3 -14 6 -6 3 7 2 16 -1 19 -3 4 -6 -2 -5 -13z"/>
<path d="M3260 5430 c0 -5 7 -10 16 -10 8 0 12 5 9 10 -3 6 -10 10 -16 10 -5
0 -9 -4 -9 -10z"/>
<path d="M5520 5424 c0 -13 58 -69 65 -63 2 3 -11 21 -30 39 -19 19 -35 29
-35 24z"/>
<path d="M6790 5415 c0 -8 -4 -15 -10 -15 -5 0 -10 -5 -10 -11 0 -12 25 -39
36 -39 5 0 3 5 -3 11 -7 7 -9 25 -6 40 3 16 3 29 -1 29 -3 0 -6 -7 -6 -15z"/>
<path d="M3269 5388 c-1 -21 3 -121 6 -148 2 -14 4 -37 4 -52 1 -19 6 -28 17
-28 13 0 15 8 8 53 -4 28 -8 75 -9 102 -1 28 -2 58 -3 68 -2 19 -22 24 -23 5z"/>
<path d="M3780 5380 c0 -5 5 -10 11 -10 5 0 7 5 4 10 -3 6 -8 10 -11 10 -2 0
-4 -4 -4 -10z"/>
<path d="M6246 5292 c3 -83 3 -84 14 -77 5 3 6 13 3 22 -6 15 -8 58 -3 81 0 4
7 -6 15 -23 l13 -30 1 43 c1 23 -3 42 -9 42 -5 0 -10 -5 -10 -11 0 -8 -4 -8
-13 0 -11 8 -13 0 -11 -47z"/>
<path d="M4075 5330 c-3 -5 -1 -10 4 -10 6 0 11 5 11 10 0 6 -2 10 -4 10 -3 0
-8 -4 -11 -10z"/>
<path d="M5600 5322 c0 -5 7 -15 15 -22 8 -7 15 -8 15 -2 0 5 -7 15 -15 22 -8
7 -15 8 -15 2z"/>
<path d="M5650 5270 c0 -7 7 -18 15 -24 9 -6 17 -25 18 -41 3 -37 40 -44 45
-8 3 17 0 21 -12 17 -10 -4 -16 -1 -16 8 0 8 -11 25 -25 38 -15 14 -25 18 -25
10z"/>
<path d="M6830 5260 c0 -5 7 -10 16 -10 8 0 12 5 9 10 -3 6 -10 10 -16 10 -5
0 -9 -4 -9 -10z"/>
<path d="M6870 5260 c0 -6 25 -9 58 -9 56 1 57 1 17 10 -55 11 -75 11 -75 -1z"/>
<path d="M6623 5253 c9 -2 25 -2 35 0 9 3 1 5 -18 5 -19 0 -27 -2 -17 -5z"/>
<path d="M6688 5253 c7 -3 16 -2 19 1 4 3 -2 6 -13 5 -11 0 -14 -3 -6 -6z"/>
<path d="M7008 5253 c7 -3 16 -2 19 1 4 3 -2 6 -13 5 -11 0 -14 -3 -6 -6z"/>
<path d="M6500 5240 l-35 -7 40 -1 c22 0 51 4 65 8 24 8 24 8 -5 8 -16 0 -46
-4 -65 -8z"/>
<path d="M2107 5233 c-2 -5 -5 -27 -5 -50 -1 -22 -6 -54 -12 -69 -8 -19 -8
-30 0 -38 7 -7 10 -2 10 16 0 15 3 29 8 31 4 3 8 30 10 61 3 52 -1 67 -11 49z"/>
<path d="M2708 5165 c-4 -16 -3 -34 1 -38 12 -12 19 14 11 43 -6 25 -6 25 -12
-5z"/>
<path d="M2155 5160 c3 -5 8 -10 11 -10 2 0 4 5 4 10 0 6 -5 10 -11 10 -5 0
-7 -4 -4 -10z"/>
<path d="M6790 5125 c0 -8 -5 -15 -12 -15 -6 0 -9 -3 -6 -6 8 -8 48 14 48 26
0 6 -7 10 -15 10 -8 0 -15 -7 -15 -15z"/>
<path d="M3775 5111 c-3 -5 -1 -12 5 -16 5 -3 10 1 10 9 0 18 -6 21 -15 7z"/>
<path d="M7461 5106 c-7 -8 -9 -30 -5 -58 4 -27 2 -48 -4 -52 -6 -4 -7 -20 0
-48 5 -23 6 -89 3 -148 -4 -58 -7 -112 -7 -120 -1 -8 4 -48 10 -89 6 -41 9
-78 6 -83 -3 -4 -1 -8 4 -8 16 0 21 39 12 93 -4 29 -6 159 -4 290 2 130 2 237
0 237 -2 0 -9 -6 -15 -14z"/>
<path d="M5750 5040 c0 -5 5 -10 11 -10 5 0 7 5 4 10 -3 6 -8 10 -11 10 -2 0
-4 -4 -4 -10z"/>
<path d="M5785 5020 c3 -5 11 -10 16 -10 6 0 7 5 4 10 -3 6 -11 10 -16 10 -6
0 -7 -4 -4 -10z"/>
<path d="M3707 4953 c-4 -3 -7 -11 -7 -17 0 -6 5 -5 12 2 6 6 9 14 7 17 -3 3
-9 2 -12 -2z"/>
<path d="M3785 4930 c-3 -5 -1 -10 4 -10 6 0 11 5 11 10 0 6 -2 10 -4 10 -3 0
-8 -4 -11 -10z"/>
<path d="M3665 4910 c-3 -5 -2 -10 4 -10 5 0 13 5 16 10 3 6 2 10 -4 10 -5 0
-13 -4 -16 -10z"/>
<path d="M3640 4879 c0 -5 5 -7 10 -4 6 3 10 8 10 11 0 2 -4 4 -10 4 -5 0 -10
-5 -10 -11z"/>
<path d="M3516 4713 c-6 -14 -5 -15 5 -6 7 7 10 15 7 18 -3 3 -9 -2 -12 -12z"/>
<path d="M3418 4605 c-6 -14 -16 -25 -21 -25 -6 0 -7 -3 -4 -6 9 -9 -21 -49
-36 -49 -6 0 -14 -11 -15 -24 -2 -13 -11 -26 -20 -29 -10 -2 -37 -28 -62 -56
-25 -28 -34 -41 -20 -30 14 12 39 29 56 37 38 20 74 61 103 119 12 24 29 53
38 66 10 14 11 22 4 22 -6 0 -17 -11 -23 -25z"/>
<path d="M6317 4554 c-3 -4 15 -33 41 -65 77 -97 110 -142 139 -189 14 -25 49
-76 76 -114 27 -38 60 -90 73 -116 13 -26 31 -53 39 -60 22 -19 18 0 -6 26
-12 12 -19 28 -17 35 2 7 14 1 31 -17 15 -16 35 -37 43 -46 15 -15 14 -16 -5
-11 -36 9 -23 -2 34 -33 56 -29 56 -29 50 -66 -5 -25 -3 -38 4 -38 11 0 15 13
11 39 -1 13 1 13 14 2 19 -16 21 -72 4 -89 -8 -8 -8 -15 2 -27 9 -11 10 -31 5
-72 -4 -32 -9 -120 -10 -196 -1 -81 -6 -142 -12 -148 -8 -8 -19 -7 -40 3 -24
12 -47 11 -178 -10 -82 -14 -157 -27 -165 -30 -23 -8 -42 -3 -72 19 -16 11
-28 16 -28 11 0 -4 -46 -9 -102 -11 -57 -1 -114 -4 -128 -5 -14 -2 -50 -4 -80
-5 -53 -3 -54 -3 -20 -12 21 -5 70 -5 124 2 86 9 91 9 141 -16 28 -15 59 -39
68 -53 9 -15 44 -56 78 -92 33 -36 70 -78 82 -94 12 -15 30 -36 40 -44 9 -9
17 -21 17 -26 0 -5 18 -27 40 -48 22 -22 40 -45 40 -52 0 -6 13 -20 29 -29 31
-18 34 -24 51 -100 13 -60 7 -70 -28 -51 -15 7 -35 14 -44 14 -9 0 -20 5 -23
10 -3 6 -19 10 -35 10 -16 0 -32 5 -35 10 -4 6 -11 8 -16 4 -5 -3 -24 -1 -42
5 -17 6 -54 13 -82 16 -83 9 -88 11 -91 29 -3 20 -23 46 -35 46 -13 0 -11 -34
3 -48 9 -9 8 -12 -4 -12 -20 0 -33 -36 -21 -53 5 -7 8 -40 7 -74 -2 -38 1 -65
8 -69 7 -5 9 0 6 14 -4 12 -3 20 1 18 3 -2 11 7 18 20 9 19 8 24 -3 24 -24 0
-16 46 11 64 24 16 26 15 65 -20 27 -25 45 -34 57 -30 15 6 15 9 3 16 -8 5
-18 6 -22 4 -9 -6 -28 37 -21 48 2 4 20 1 39 -7 19 -8 37 -14 39 -14 6 0 73
-12 95 -17 35 -8 154 -54 163 -63 17 -17 37 -83 37 -123 0 -20 3 -39 8 -41 4
-3 6 -49 5 -104 -1 -108 2 -133 20 -133 8 0 12 21 11 65 0 36 3 65 8 65 4 0 8
-10 9 -22 0 -13 2 -42 4 -65 2 -24 -1 -45 -5 -48 -5 -3 -6 -13 -3 -23 6 -15 5
-15 -12 1 -14 15 -20 16 -26 5 -12 -18 -11 -108 1 -108 12 0 31 35 23 44 -3 3
-2 6 4 6 14 0 25 -28 14 -34 -4 -3 -4 -33 0 -68 15 -119 23 -468 11 -468 -16
0 -62 22 -62 30 0 4 -13 20 -30 36 -16 16 -30 39 -30 51 0 25 -55 90 -186 221
-46 46 -97 104 -114 128 -32 48 -33 49 -85 108 -19 21 -35 45 -35 52 0 18 -26
18 -33 1 -3 -7 -3 -25 0 -40 4 -19 1 -27 -8 -28 -8 0 -6 -4 5 -8 12 -4 20 -19
21 -39 3 -35 53 -87 70 -71 11 11 25 12 24 2 -3 -22 16 -53 32 -53 11 0 19 -7
19 -17 0 -10 19 -37 43 -59 23 -23 64 -66 91 -95 46 -52 131 -140 169 -176 9
-9 17 -19 17 -22 0 -4 -57 -1 -127 6 -202 20 -353 25 -423 15 l-65 -9 77 -2
c263 -4 550 -29 590 -51 10 -5 25 -7 34 -3 11 4 15 3 10 -5 -3 -6 1 -20 11
-32 11 -12 18 -37 18 -62 0 -45 18 -61 34 -30 7 12 7 31 1 51 -5 19 -5 33 1
37 5 3 47 5 92 4 45 -1 168 2 272 7 199 10 457 9 733 -2 115 -5 162 -4 162 4
0 6 -8 12 -17 12 -22 2 -46 6 -95 15 -26 4 -38 3 -38 -5 0 -15 -33 -14 -49 2
-11 10 -14 9 -18 -1 -3 -6 -10 -9 -16 -5 -15 9 -49 10 -424 17 -220 3 -313 2
-313 -6 0 -7 -5 -6 -15 2 -8 6 -19 8 -26 4 -6 -3 -48 -6 -92 -6 -45 1 -86 -3
-93 -9 -8 -7 -14 -7 -19 1 -3 5 -17 10 -30 10 -21 0 -24 6 -29 52 -6 50 -15
233 -16 287 0 14 -6 28 -12 33 -10 6 -10 10 0 16 9 6 10 16 3 34 -15 40 -6
136 15 159 15 16 16 22 5 28 -10 7 -14 43 -13 150 0 99 -4 141 -12 141 -8 0
-8 2 0 8 13 8 15 182 2 182 -4 0 -8 -7 -8 -16 0 -8 -5 -12 -10 -9 -8 5 -8 11
-1 19 6 7 8 32 5 56 -4 36 -10 248 -13 502 -1 28 -5 36 -15 32 -11 -4 -13 0
-9 15 6 24 23 28 23 6 0 -8 5 -15 11 -15 5 0 7 -5 4 -10 -3 -6 20 -36 52 -68
32 -31 72 -75 90 -97 71 -89 111 -128 123 -120 8 5 11 4 7 -2 -6 -9 73 -93 88
-93 4 0 16 -11 26 -24 11 -14 28 -27 38 -31 10 -3 24 -16 31 -30 7 -13 16 -22
20 -20 4 3 10 -4 13 -14 2 -10 17 -25 33 -33 69 -36 99 -53 102 -60 6 -12 22
-9 22 3 0 15 -44 56 -70 64 -11 3 -20 10 -20 15 0 5 -10 12 -22 16 -24 7 -35
17 -156 134 -41 40 -76 69 -79 66 -4 -3 -11 4 -17 17 -6 12 -21 23 -33 25 -12
2 -24 13 -27 25 -3 12 -22 41 -43 64 -21 23 -46 54 -56 68 -10 14 -21 24 -25
22 -4 -2 -15 5 -25 15 -16 17 -16 19 -1 25 9 3 31 0 48 -7 71 -29 156 -22 274
24 l60 24 37 -39 c37 -40 75 -66 75 -52 0 4 -14 21 -31 39 -27 27 -29 34 -18
51 16 26 5 53 -20 53 -11 0 -21 6 -23 13 -4 18 -134 127 -142 120 -3 -4 -6 -1
-6 6 0 7 -22 36 -49 64 -27 29 -63 71 -80 94 -16 23 -36 45 -44 50 -7 4 -26
29 -43 54 -16 26 -42 65 -58 88 -28 40 -33 60 -35 158 -1 23 -8 48 -16 57 -8
8 -15 21 -15 30 0 8 -4 18 -10 21 -6 4 -10 -7 -10 -24 0 -20 5 -30 13 -29 8 2
13 -12 15 -41 4 -53 -20 -53 -29 0 -4 19 -7 26 -8 17 -3 -39 -52 -11 -129 74
-51 55 -88 104 -101 136 -6 12 -14 22 -19 22 -5 0 -19 21 -32 48 -13 26 -42
70 -64 99 -23 28 -52 68 -66 88 -56 79 -75 96 -93 79z m603 -770 c17 -26 29
-48 27 -50 -8 -8 -79 75 -73 85 10 16 12 15 46 -35z m224 -315 c11 -19 30 -46
42 -61 12 -16 25 -36 28 -46 3 -10 21 -22 39 -27 44 -14 43 -40 -2 -40 -19 0
-36 -6 -38 -12 -3 -7 -13 -13 -23 -13 -10 0 -21 -4 -24 -8 -16 -26 -187 0
-258 40 -48 27 -49 31 -43 236 2 107 8 198 11 204 8 13 241 -224 268 -273z
m-399 -129 c4 -6 14 -5 25 2 11 7 21 10 24 8 2 -3 -4 -39 -15 -80 -18 -73 -22
-94 -35 -212 -4 -32 -9 -58 -11 -58 -14 0 -283 288 -283 302 0 20 25 24 35 7
5 -6 12 -4 21 8 8 11 13 13 14 6 0 -7 6 -13 14 -13 8 0 16 6 18 13 3 8 28 13
72 14 37 1 69 3 71 5 8 8 45 6 50 -2z m585 0 c0 -5 -2 -10 -4 -10 -3 0 -8 5
-11 10 -3 6 -1 10 4 10 6 0 11 -4 11 -10z m-775 -196 c81 -81 144 -149 141
-151 -3 -3 3 -13 14 -22 24 -21 36 -76 19 -87 -8 -4 -15 -2 -17 5 -4 12 -25
38 -77 96 -11 12 -21 30 -23 40 -2 10 -45 61 -97 114 -106 109 -155 165 -155
176 0 17 59 -34 195 -171z m253 6 c-14 -22 -24 -19 -15 5 4 8 11 15 17 15 6 0
6 -7 -2 -20z m-3 -206 c0 -90 -3 -164 -6 -164 -21 0 -27 34 -23 135 4 88 9
171 13 204 1 2 4 1 9 -3 4 -4 7 -82 7 -172z m-205 90 c0 -8 -4 -12 -10 -9 -5
3 -10 10 -10 16 0 5 5 9 10 9 6 0 10 -7 10 -16z m-280 -194 c0 -5 -5 -10 -11
-10 -5 0 -7 5 -4 10 3 6 8 10 11 10 2 0 4 -4 4 -10z m497 -105 c2 -11 6 -32 8
-46 2 -14 8 -37 13 -50 11 -30 7 -153 -4 -157 -5 -1 -10 20 -12 48 -2 36 -7
50 -18 50 -16 0 -19 26 -4 35 6 3 10 12 10 18 0 7 -4 6 -10 -3 -13 -21 -35 2
-26 27 6 13 9 14 15 4 6 -9 10 -7 14 8 3 12 1 24 -5 27 -12 8 -27 47 -21 57 9
15 36 2 40 -18z m18 -305 c-9 -14 -25 5 -25 30 0 12 3 12 16 -2 9 -9 13 -21 9
-28z m-501 -311 c-6 -11 -24 -2 -24 11 0 5 7 7 15 4 8 -4 12 -10 9 -15z m26
-33 c0 -3 -4 -8 -10 -11 -5 -3 -10 -1 -10 4 0 6 5 11 10 11 6 0 10 -2 10 -4z
m360 -346 c0 -5 -2 -10 -4 -10 -3 0 -8 5 -11 10 -3 6 -1 10 4 10 6 0 11 -4 11
-10z"/>
<path d="M6875 3350 c3 -5 11 -10 16 -10 6 0 7 5 4 10 -3 6 -11 10 -16 10 -6
0 -7 -4 -4 -10z"/>
<path d="M6943 3353 c9 -2 25 -2 35 0 9 3 1 5 -18 5 -19 0 -27 -2 -17 -5z"/>
<path d="M6585 3320 c-3 -5 1 -10 9 -10 9 0 16 5 16 10 0 6 -4 10 -9 10 -6 0
-13 -4 -16 -10z"/>
<path d="M6306 4485 c9 -14 20 -25 25 -25 5 0 2 11 -7 25 -9 14 -20 25 -25 25
-5 0 -2 -11 7 -25z"/>
<path d="M7474 4419 c8 -84 16 -87 16 -6 0 41 -4 67 -11 67 -7 0 -8 -21 -5
-61z"/>
<path d="M3160 4328 c0 -13 -74 -118 -104 -149 -9 -9 -16 -20 -16 -26 0 -6
-12 -19 -27 -29 -35 -26 -83 -70 -83 -77 0 -4 21 6 48 23 46 28 65 49 125 135
15 22 40 58 57 80 34 46 36 55 15 55 -8 0 -15 -6 -15 -12z"/>
<path d="M7470 4331 c0 -6 5 -13 10 -16 6 -3 10 1 10 9 0 9 -4 16 -10 16 -5 0
-10 -4 -10 -9z"/>
<path d="M3630 4265 c-52 -36 -102 -65 -112 -65 -16 0 -34 -17 -27 -25 10 -9
85 28 149 74 39 29 74 51 76 49 2 -3 -17 -63 -42 -134 -41 -117 -70 -215 -79
-269 -2 -11 -8 -40 -14 -65 -10 -45 -7 -61 8 -44 9 11 33 115 36 165 2 20 12
54 23 75 10 21 25 57 31 79 7 22 17 49 22 60 18 39 48 149 43 157 -8 13 -15
10 -114 -57z"/>
<path d="M4500 4291 c0 -5 7 -11 15 -15 8 -3 15 -1 15 3 0 5 -7 11 -15 15 -8
3 -15 1 -15 -3z"/>
<path d="M4205 4280 c-3 -5 -1 -10 4 -10 6 0 11 5 11 10 0 6 -2 10 -4 10 -3 0
-8 -4 -11 -10z"/>
<path d="M3851 4266 c-7 -8 -14 -32 -16 -53 -2 -21 -8 -50 -14 -65 -6 -15 -8
-35 -5 -43 4 -8 1 -15 -5 -15 -7 0 -11 -6 -10 -12 5 -28 -14 -158 -23 -158 -5
0 -4 -8 1 -19 6 -10 9 -20 7 -22 -8 -9 -16 -83 -11 -101 8 -23 37 -23 57 0 50
56 138 263 138 325 0 18 -56 127 -66 127 -10 0 10 -57 29 -82 23 -31 20 -85
-7 -139 -9 -18 -16 -37 -16 -44 0 -26 -80 -174 -101 -185 -22 -12 -22 -12 -16
51 4 35 9 75 11 89 2 14 9 61 15 105 15 105 41 215 52 215 5 0 9 9 9 20 0 23
-13 26 -29 6z"/>
<path d="M4450 4204 c-11 -31 -18 -59 -15 -62 6 -7 5 -8 33 51 24 52 27 67 13
67 -5 0 -19 -25 -31 -56z"/>
<path d="M4157 4243 c-4 -3 -7 -11 -7 -17 0 -6 5 -5 12 2 6 6 9 14 7 17 -3 3
-9 2 -12 -2z"/>
<path d="M7480 4230 c0 -11 2 -20 4 -20 2 0 6 9 9 20 3 11 1 20 -4 20 -5 0 -9
-9 -9 -20z"/>
<path d="M4252 4220 c0 -14 2 -19 5 -12 2 6 2 18 0 25 -3 6 -5 1 -5 -13z"/>
<path d="M5061 4232 c-18 -3 -21 -6 -11 -12 12 -7 12 -12 0 -27 -23 -28 -42
-64 -36 -70 2 -3 16 14 31 36 26 42 45 46 45 11 0 -10 7 -20 15 -24 11 -4 15
1 15 19 0 13 -5 27 -11 30 -6 4 -13 14 -17 24 -5 10 -16 15 -31 13z"/>
<path d="M4723 4215 c-3 -9 -3 -34 1 -55 3 -22 2 -40 -3 -40 -5 0 -7 -9 -4
-20 3 -12 0 -20 -7 -20 -8 0 -11 -11 -8 -30 3 -16 1 -30 -4 -30 -4 0 -8 -7 -8
-15 0 -8 4 -15 8 -15 11 0 37 48 30 55 -3 3 1 38 8 78 8 40 14 80 14 90 0 21
-18 23 -27 2z"/>
<path d="M6846 4215 c-3 -9 -5 -35 -5 -58 1 -42 1 -41 10 12 9 54 7 76 -5 46z"/>
<path d="M4798 4214 c-4 -5 7 -36 24 -69 22 -44 29 -68 25 -92 -3 -18 -2 -35
3 -38 4 -3 10 12 13 33 4 28 -3 54 -27 107 -18 38 -35 65 -38 59z"/>
<path d="M4138 4193 c-1 -10 -2 -25 -3 -33 0 -8 -4 -21 -8 -27 -4 -7 -11 -35
-14 -63 -3 -28 -10 -53 -14 -56 -5 -3 -9 -20 -9 -37 0 -18 -4 -48 -10 -66 -7
-25 -6 -39 3 -50 8 -10 8 -13 0 -8 -12 8 -30 -84 -19 -102 11 -17 47 1 62 33
l15 31 -23 -27 c-13 -16 -27 -28 -31 -28 -11 0 -8 37 7 88 7 26 23 108 35 182
11 74 24 145 27 158 4 13 2 22 -5 22 -6 0 -12 -8 -13 -17z"/>
<path d="M4511 4180 c0 -33 1 -34 10 -11 6 16 6 28 -1 35 -7 7 -10 -1 -9 -24z"/>
<path d="M7482 4150 c-1 -25 -4 -63 -7 -85 l-5 -40 11 33 c5 19 8 57 6 85 l-3
52 -2 -45z"/>
<path d="M5122 4100 c0 -19 2 -27 5 -17 2 9 2 25 0 35 -3 9 -5 1 -5 -18z"/>
<path d="M5300 4115 c-9 -11 -10 -19 -3 -26 6 -6 13 -1 21 16 13 28 2 34 -18
10z"/>
<path d="M4425 4110 c-3 -5 -1 -10 4 -10 6 0 11 5 11 10 0 6 -2 10 -4 10 -3 0
-8 -4 -11 -10z"/>
<path d="M5390 4101 c0 -10 29 -36 34 -30 1 2 -6 12 -16 22 -10 9 -18 13 -18
8z"/>
<path d="M2738 4095 c-3 -6 -5 -47 -3 -93 3 -73 1 -84 -16 -95 -10 -6 -19 -17
-19 -24 0 -6 -7 -19 -16 -27 -18 -19 -2 -21 25 -4 24 15 51 4 51 -22 0 -11 5
-20 10 -20 7 0 8 13 4 37 -5 26 -3 39 7 47 25 19 81 96 70 96 -6 0 -15 -9 -21
-20 -23 -43 -49 -12 -74 88 -7 26 -15 42 -18 37z"/>
<path d="M4542 4075 c0 -16 2 -22 5 -12 2 9 2 23 0 30 -3 6 -5 -1 -5 -18z"/>
<path d="M4412 4060 c0 -14 2 -19 5 -12 2 6 2 18 0 25 -3 6 -5 1 -5 -13z"/>
<path d="M5272 4044 c-7 -8 -8 -14 -3 -14 10 0 25 19 20 25 -2 1 -10 -3 -17
-11z"/>
<path d="M4971 4033 c0 -6 -4 -20 -7 -30 -5 -14 -4 -15 5 -7 7 7 11 20 8 30
-3 11 -5 14 -6 7z"/>
<path d="M5097 4015 c3 -8 9 -12 14 -9 12 7 11 11 -5 17 -10 4 -13 1 -9 -8z"/>
<path d="M4406 4008 c-3 -7 -7 -25 -10 -40 -3 -14 -9 -33 -12 -42 -4 -11 0
-16 12 -16 16 0 19 8 20 55 0 54 -3 67 -10 43z"/>
<path d="M4520 4000 c0 -5 5 -10 10 -10 6 0 10 5 10 10 0 6 -4 10 -10 10 -5 0
-10 -4 -10 -10z"/>
<path d="M5260 3983 c0 -21 3 -24 9 -14 5 8 7 20 4 28 -8 21 -13 15 -13 -14z"/>
<path d="M4685 3963 c-5 -10 -9 -60 -11 -110 -2 -87 -1 -93 17 -93 34 0 55 17
98 80 45 66 48 72 26 64 -8 -4 -15 -12 -15 -20 0 -8 -22 -38 -49 -66 -43 -45
-51 -50 -57 -34 -4 10 -3 47 3 82 6 44 6 65 -1 69 -7 3 -7 7 2 11 14 6 17 34
3 34 -5 0 -12 -8 -16 -17z"/>
<path d="M4961 3964 c0 -11 3 -14 6 -6 3 7 2 16 -1 19 -3 4 -6 -2 -5 -13z"/>
<path d="M5090 3963 c0 -10 -3 -29 -6 -43 -5 -23 -5 -23 10 4 18 32 21 56 6
56 -5 0 -10 -8 -10 -17z"/>
<path d="M7459 3974 c-2 -15 -2 -47 0 -74 1 -19 4 -21 10 -11 10 15 8 78 -3
88 -3 3 -7 2 -7 -3z"/>
<path d="M4818 3945 c-6 -28 16 -36 26 -9 9 24 7 34 -8 34 -7 0 -16 -11 -18
-25z"/>
<path d="M5446 3944 c-8 -22 -8 -24 8 -24 9 0 14 9 13 20 -2 24 -13 26 -21 4z"/>
<path d="M4494 3925 c-8 -33 1 -57 12 -30 4 11 12 23 17 26 11 8 1 29 -13 29
-5 0 -12 -11 -16 -25z"/>
<path d="M5242 3931 c-11 -7 -11 -9 2 -14 10 -4 16 -1 16 8 0 17 -1 17 -18 6z"/>
<path d="M4180 3915 c0 -8 4 -15 9 -15 5 0 11 7 15 15 3 9 0 15 -9 15 -8 0
-15 -7 -15 -15z"/>
<path d="M4950 3920 c0 -5 5 -10 10 -10 6 0 10 5 10 10 0 6 -4 10 -10 10 -5 0
-10 -4 -10 -10z"/>
<path d="M5424 3883 c-10 -15 -22 -34 -27 -40 -5 -7 -7 -13 -4 -13 9 0 59 71
54 77 -3 2 -13 -8 -23 -24z"/>
<path d="M2620 3857 c-14 -17 -24 -36 -23 -42 2 -5 -20 -34 -47 -63 -28 -30
-50 -58 -50 -63 0 -6 -5 -7 -11 -3 -6 3 -14 2 -18 -3 -11 -18 -123 -141 -216
-238 -49 -51 -94 -100 -100 -108 -5 -8 -20 -29 -33 -46 -29 -39 -7 -43 28 -6
15 16 34 25 55 25 17 0 57 7 88 15 32 8 77 15 100 15 51 1 217 25 272 39 58
15 76 14 68 -5 -3 -10 -13 -14 -25 -11 -19 5 -19 4 -3 -13 12 -14 13 -20 4
-26 -9 -5 -5 -10 11 -16 l23 -8 -29 -29 c-32 -31 -49 -55 -63 -88 -6 -11 -15
-24 -21 -28 -5 -3 -8 -10 -5 -15 7 -11 -43 -42 -56 -34 -6 4 -4 10 5 17 10 8
13 17 7 25 -10 17 -47 11 -43 -6 1 -7 -5 -15 -13 -18 -8 -4 -15 -12 -15 -19 0
-7 -13 -24 -28 -37 -16 -13 -26 -30 -24 -37 3 -10 -1 -12 -16 -9 -11 3 -23 1
-26 -6 -25 -48 -45 -71 -62 -69 -10 1 -13 0 -6 -3 13 -6 17 -25 5 -23 -20 3
-27 -2 -14 -10 7 -5 10 -14 7 -20 -4 -6 -13 -8 -19 -4 -18 11 -47 14 -47 5 0
-5 12 -13 28 -19 27 -11 27 -11 5 -18 -13 -4 -23 -14 -23 -21 0 -8 -6 -14 -14
-14 -8 0 -19 -15 -25 -33 -6 -18 -24 -40 -39 -49 -26 -16 -29 -16 -40 0 -7 9
-10 11 -7 5 4 -8 -1 -13 -14 -13 -12 0 -21 -4 -21 -10 0 -5 6 -10 14 -10 24 0
-9 -54 -41 -70 -23 -11 -25 -14 -10 -17 9 -3 17 -9 17 -14 0 -13 -38 -11 -42
3 -2 6 -10 8 -17 4 -9 -6 -7 -12 9 -26 11 -9 20 -22 20 -29 0 -16 11 -14 26 7
11 15 12 12 10 -20 -3 -34 -1 -36 15 -27 18 9 109 138 109 154 0 4 19 26 41
48 38 39 64 82 61 99 -1 5 2 7 7 5 6 -1 36 23 68 54 73 71 113 98 113 76 0 -8
-7 -20 -15 -27 -8 -7 -15 -20 -15 -29 1 -23 75 64 105 124 14 28 39 68 55 90
17 22 37 54 45 72 29 61 35 48 34 -74 0 -65 2 -164 4 -221 3 -77 0 -105 -10
-113 -7 -6 -13 -16 -13 -21 0 -13 42 -6 59 10 7 7 16 11 19 8 8 -9 -19 -36
-35 -36 -8 0 -13 -6 -11 -12 4 -10 44 -13 159 -13 206 1 309 5 333 15 12 4 37
2 56 -5 28 -9 31 -12 15 -17 -11 -3 -27 -18 -35 -34 -8 -16 -39 -52 -67 -81
-29 -28 -53 -56 -53 -62 0 -6 -7 -11 -15 -11 -12 0 -13 -4 -5 -19 15 -28 13
-33 -11 -26 -15 5 -20 3 -17 -5 6 -18 -44 -73 -53 -58 -4 7 -10 -4 -14 -25 -4
-20 -11 -37 -16 -37 -5 0 -8 -6 -6 -12 1 -8 -6 -12 -18 -10 -15 2 -17 1 -6 -6
11 -8 11 -10 0 -14 -8 -3 -10 -9 -6 -14 4 -4 19 3 33 17 74 69 118 118 141
154 14 22 55 68 90 103 35 34 62 66 59 70 -2 4 -1 14 5 22 7 12 9 11 9 -5 0
-11 5 -27 10 -35 9 -13 11 -13 20 0 5 8 10 24 10 35 0 11 9 31 20 45 23 30 25
40 6 40 -8 0 -23 11 -33 24 -15 19 -21 21 -29 11 -15 -23 -450 -47 -499 -29
-24 9 -44 55 -49 114 -3 29 -11 59 -17 66 -8 10 -8 14 0 14 8 0 10 51 9 173
-1 94 1 178 6 186 6 9 18 11 40 6 105 -23 180 -32 246 -28 103 6 124 0 115
-35 -9 -39 -55 -102 -88 -122 l-28 -18 35 -6 c22 -4 36 -13 36 -21 0 -8 -4
-15 -10 -15 -5 0 -6 -8 -3 -17 5 -12 2 -15 -10 -10 -11 4 -24 -7 -45 -41 -17
-26 -33 -57 -36 -68 -4 -12 -14 -24 -24 -26 -16 -5 -88 -108 -74 -108 4 1 21
19 37 40 17 21 35 39 42 40 6 0 25 21 41 48 16 26 43 62 61 79 17 17 31 37 31
44 0 7 6 19 14 28 75 82 131 153 163 209 l25 42 86 2 c48 1 100 1 116 0 16 -1
35 3 44 10 12 10 16 10 19 1 5 -15 49 -17 58 -3 4 7 13 7 26 0 15 -9 19 -7 19
5 0 11 12 15 48 16 112 1 339 2 361 0 26 -1 38 5 29 15 -4 3 -54 6 -112 7 -58
1 -106 5 -106 9 0 4 -15 5 -32 2 -48 -7 -82 -12 -88 -14 -6 -2 -65 -5 -287
-14 -133 -6 -153 -5 -153 9 0 19 -5 19 -36 -1 -17 -12 -36 -15 -64 -10 -36 6
-40 4 -57 -24 -17 -29 -27 -35 -48 -30 -14 4 -94 20 -125 25 -14 2 -40 7 -58
10 -29 5 -33 4 -30 -12 2 -10 16 -20 33 -24 24 -5 26 -7 7 -8 -34 -2 -65 18
-58 36 5 11 1 14 -13 10 -12 -3 -22 1 -25 9 -3 8 -20 14 -41 14 -38 0 -44 13
-18 42 9 10 13 21 9 26 -4 4 -13 -1 -20 -11 -7 -9 -20 -17 -28 -17 -8 0 -19
-5 -26 -12 -16 -16 -28 -2 -13 16 9 11 10 28 4 58 -5 24 -5 66 -2 93 4 28 7
68 7 90 0 35 -2 32 -14 -25 -7 -36 -13 -89 -12 -118 1 -29 -3 -56 -8 -61 -34
-30 -189 -61 -324 -66 -25 -1 -81 -5 -125 -9 l-80 -7 33 30 c17 17 32 35 32
40 0 12 213 220 268 263 23 18 38 34 33 36 -5 2 -7 12 -4 22 3 11 10 17 17 13
6 -3 8 -3 4 2 -11 12 18 35 43 35 22 0 22 0 3 15 -13 10 -15 17 -8 22 14 10
28 53 17 52 -4 0 -19 -14 -33 -32z m673 -543 c10 -10 -12 -44 -28 -44 -21 0
-28 19 -15 35 13 16 32 19 43 9z m-61 -86 c-7 -7 -12 -8 -12 -2 0 6 3 14 7 17
3 4 9 5 12 2 2 -3 -1 -11 -7 -17z m-652 -148 c0 -5 -9 -14 -21 -20 -19 -11
-20 -10 -9 9 11 22 30 29 30 11z"/>
<path d="M4167 3871 c-4 -17 -3 -21 5 -13 5 5 8 16 6 23 -3 8 -7 3 -11 -10z"/>
<path d="M4384 3874 c3 -9 6 -20 6 -25 0 -6 5 -7 10 -4 16 10 12 45 -6 45 -11
0 -14 -5 -10 -16z"/>
<path d="M4449 3826 c-24 -27 -29 -29 -44 -16 -15 13 -17 12 -14 -5 7 -34 42
-29 68 10 30 45 24 51 -10 11z"/>
<path d="M4961 3844 c0 -11 3 -14 6 -6 3 7 2 16 -1 19 -3 4 -6 -2 -5 -13z"/>
<path d="M7456 3753 c4 -54 8 -107 7 -118 -1 -50 -12 -171 -16 -185 -3 -8 -12
-35 -20 -60 -16 -48 -20 -127 -6 -136 4 -2 11 12 14 33 3 21 10 56 15 78 23
102 31 193 26 297 -2 62 -5 130 -5 151 -1 20 -6 37 -12 37 -8 0 -9 -29 -3 -97z"/>
<path d="M5061 3833 c0 -6 -4 -20 -7 -30 -5 -14 -4 -15 5 -7 7 7 11 20 8 30
-3 11 -5 14 -6 7z"/>
<path d="M2665 3820 c3 -5 8 -10 11 -10 2 0 4 5 4 10 0 6 -5 10 -11 10 -5 0
-7 -4 -4 -10z"/>
<path d="M5235 3775 c2 -24 6 -49 10 -55 7 -11 59 12 71 32 5 7 -4 5 -19 -5
-36 -23 -47 -15 -47 34 0 21 -4 39 -9 39 -5 0 -7 -20 -6 -45z"/>
<path d="M2770 3781 c0 -25 6 -27 13 -6 4 8 2 17 -3 20 -6 4 -10 -3 -10 -14z"/>
<path d="M4980 3766 c0 -8 4 -17 9 -20 5 -4 7 3 4 14 -6 23 -13 26 -13 6z"/>
<path d="M5040 3761 c-6 -12 -7 -21 -1 -21 10 0 24 30 17 37 -2 3 -9 -5 -16
-16z"/>
<path d="M2778 3744 c-5 -4 -8 -16 -8 -28 0 -14 3 -17 11 -9 6 6 9 19 7 28 -1
9 -6 13 -10 9z"/>
<path d="M5015 3720 c-3 -5 -2 -10 4 -10 5 0 13 5 16 10 3 6 2 10 -4 10 -5 0
-13 -4 -16 -10z"/>
<path d="M4242 3373 c-57 -3 -71 -7 -64 -16 8 -9 32 -11 84 -7 40 3 92 3 116
-2 23 -4 53 -4 65 1 13 5 40 9 61 9 20 0 40 3 43 6 4 3 -28 6 -69 6 -41 0 -95
2 -119 3 -24 2 -77 2 -117 0z"/>
<path d="M4560 3360 c0 -5 4 -10 9 -10 6 0 13 5 16 10 3 6 -1 10 -9 10 -9 0
-16 -4 -16 -10z"/>
<path d="M4600 3359 c0 -5 8 -10 18 -10 9 -1 44 -3 77 -6 98 -7 419 -18 427
-15 4 2 145 5 312 6 168 2 309 7 315 11 6 3 15 4 20 0 6 -3 36 -8 68 -10 32
-3 73 -8 91 -11 19 -3 32 -1 32 6 0 5 -6 11 -12 12 -7 0 -26 3 -43 6 -42 7
-667 8 -737 2 -32 -3 -58 -2 -58 3 0 5 -9 5 -20 2 -28 -9 -145 -9 -255 0 -153
12 -235 13 -235 4z"/>
<path d="M3010 3010 c0 -5 5 -10 10 -10 6 0 10 5 10 10 0 6 -4 10 -10 10 -5 0
-10 -4 -10 -10z"/>
<path d="M2977 2954 c-4 -4 -7 -14 -7 -23 0 -11 3 -12 11 -4 6 6 10 16 7 23
-2 6 -7 8 -11 4z"/>
<path d="M1600 2903 c0 -20 -7 -44 -15 -53 -8 -9 -17 -34 -20 -56 -7 -54 -18
-218 -19 -281 -1 -48 -8 -65 -19 -45 -3 4 -8 32 -11 62 -7 63 -24 126 -25 95
0 -11 6 -63 14 -115 9 -60 12 -127 9 -182 -4 -54 -2 -88 4 -88 11 0 22 57 22
118 0 24 4 41 9 38 5 -3 8 -44 7 -91 -2 -74 -5 -87 -26 -110 -19 -20 -21 -28
-11 -38 9 -9 14 -9 20 2 6 9 11 10 15 2 4 -6 5 -15 2 -20 -3 -5 1 -14 9 -21 8
-7 15 -21 15 -32 0 -17 -3 -18 -15 -8 -8 7 -26 9 -43 5 -16 -3 -41 -1 -56 5
-15 5 -25 6 -21 1 9 -15 -40 -21 -215 -27 -91 -3 -184 -7 -208 -8 -42 -4 -66
9 -42 24 9 5 10 20 4 51 -4 24 -7 48 -5 53 1 5 4 48 6 95 9 168 16 257 26 315
10 59 5 111 -9 102 -11 -7 -52 -457 -52 -566 0 -5 -8 -11 -17 -13 -17 -4 -17
-5 0 -6 10 -1 17 -9 17 -21 0 -14 -6 -20 -17 -18 -23 4 -30 -29 -7 -34 15 -3
17 -24 16 -228 -1 -266 -4 -305 -25 -305 -23 0 -29 -10 -33 -55 -3 -33 1 -47
18 -66 13 -13 29 -24 36 -24 6 0 12 -4 12 -9 0 -5 -8 -8 -17 -7 -15 1 -18 -7
-17 -39 3 -87 6 -341 5 -352 0 -6 -14 -14 -31 -18 -32 -7 -51 -25 -26 -25 23
0 29 -19 13 -43 -8 -12 -40 -50 -71 -85 -31 -34 -56 -67 -56 -73 0 -5 -23 -33
-50 -60 -28 -28 -61 -67 -74 -87 -13 -21 -38 -53 -55 -72 -30 -33 -33 -34 -98
-32 -37 2 -68 4 -68 5 -2 4 13 232 20 297 3 36 8 88 11 115 9 90 3 198 -11
205 -5 3 -11 -7 -13 -23 -2 -15 -8 -27 -13 -27 -5 0 -9 -6 -9 -14 0 -7 -10
-16 -21 -19 -21 -6 -21 -7 -4 -23 16 -16 16 -19 1 -29 -22 -16 -20 -25 4 -25
23 0 24 -3 8 -30 -10 -16 -10 -24 0 -40 16 -25 15 -45 -1 -59 -12 -9 -15 -56
-7 -86 2 -5 0 -18 -4 -27 -5 -10 -3 -31 2 -48 6 -16 7 -30 3 -30 -11 0 -21
-39 -13 -44 8 -5 8 -88 0 -102 -3 -5 -4 -36 -4 -68 2 -49 5 -61 21 -67 18 -7
18 -8 2 -8 -10 -1 -15 -6 -12 -12 9 -14 67 -1 83 19 11 14 31 16 140 14 192
-4 394 -20 406 -32 7 -7 -53 -9 -199 -6 -116 3 -240 1 -277 -5 -38 -5 -97 -13
-133 -18 -36 -5 -68 -11 -71 -14 -11 -10 6 -26 21 -20 8 3 22 2 31 -1 15 -6
15 -8 1 -24 -13 -14 -13 -20 -3 -34 20 -27 26 -22 26 21 0 21 6 44 14 50 25
21 168 30 396 27 124 -1 231 -1 238 2 7 2 10 12 7 21 -4 14 5 16 78 13 45 -1
140 -7 211 -12 182 -14 257 -13 251 3 -4 10 14 11 82 6 49 -3 133 -3 188 1
122 8 107 11 -71 11 -75 1 -148 5 -163 9 -14 4 -91 13 -171 19 -173 14 -260
30 -260 48 0 9 -22 13 -82 15 -46 0 -90 1 -98 0 -8 -1 -73 5 -145 13 -71 8
-157 17 -190 19 -79 6 -75 5 -75 15 0 11 168 182 195 198 16 10 17 14 6 21
-11 8 -9 11 8 17 33 10 128 109 146 151 15 36 16 37 35 19 25 -22 32 -16 33
29 1 25 6 36 16 36 12 0 12 3 3 12 -17 17 -15 38 3 38 21 0 19 13 -5 35 -11
10 -17 21 -14 26 2 5 -1 68 -7 141 -7 73 -12 149 -11 168 0 19 -3 40 -8 45 -4
6 -1 26 7 46 11 29 21 38 47 42 50 8 444 5 492 -4 23 -5 73 -10 111 -13 37 -3
99 -12 137 -20 41 -9 76 -11 85 -6 9 4 29 6 44 3 17 -3 27 -1 27 7 0 8 9 10
25 6 14 -4 25 -2 25 3 0 5 -49 9 -110 9 -60 0 -114 3 -119 7 -13 7 -56 14
-149 22 -40 3 -75 10 -78 14 -3 5 32 10 78 10 157 3 211 0 219 -13 6 -9 11 -9
22 0 8 7 25 11 38 11 13 -1 32 2 42 6 12 5 17 2 17 -11 0 -14 3 -15 12 -6 7 7
40 12 82 12 l71 -1 -39 -14 c-22 -8 -43 -12 -47 -10 -4 3 -12 -2 -18 -9 -17
-21 4 -30 37 -18 15 6 44 13 65 17 20 3 37 10 37 15 0 6 7 10 16 10 12 0 15
-6 11 -22 -5 -20 -4 -21 6 -7 7 8 21 16 32 17 24 3 212 5 240 2 11 -1 83 0
160 2 77 2 151 0 164 -4 24 -9 55 7 46 22 -3 5 4 6 15 3 21 -6 37 18 25 37 -5
8 -10 8 -20 0 -8 -7 -21 -7 -39 0 -17 6 -26 6 -26 0 0 -13 -295 -13 -415 0
-64 7 -102 6 -130 -2 -41 -12 -574 -14 -645 -3 -20 4 -48 1 -63 -4 -15 -6 -27
-7 -27 -3 0 10 -126 32 -182 32 l-41 0 22 -24 c12 -13 28 -23 34 -23 31 1 50
-4 43 -10 -4 -5 -70 -8 -146 -8 -122 0 -137 2 -126 15 8 8 12 26 11 40 -2 20
21 49 117 144 65 65 117 119 116 120 -2 0 -13 6 -25 13 -18 10 -22 9 -29 -5
-4 -9 -8 -21 -8 -25 -1 -4 -7 -12 -15 -16 -7 -5 -11 -13 -7 -19 3 -6 -6 -13
-21 -16 -16 -4 -52 -29 -80 -56 -53 -50 -77 -63 -67 -35 4 8 12 15 20 15 7 0
20 14 29 30 9 17 19 30 24 30 5 0 11 8 15 18 3 9 9 24 12 32 4 8 -3 3 -15 -12
-13 -16 -28 -28 -35 -28 -21 0 -118 -100 -112 -116 4 -10 -2 -14 -20 -14 -14
0 -23 -4 -20 -9 3 -5 0 -11 -8 -14 -8 -3 -17 2 -21 11 -10 27 -3 256 8 264 7
4 7 11 -2 21 -9 12 -9 16 1 21 10 5 10 7 1 12 -7 3 -13 21 -13 40 0 54 -8 53
418 69 122 5 132 4 132 -13 0 -10 6 -27 14 -37 12 -17 12 -21 -3 -32 -15 -11
-15 -12 1 -13 9 0 20 5 24 11 3 6 15 9 25 6 15 -4 19 0 19 18 0 15 16 35 48
61 26 21 52 44 57 50 6 6 25 17 44 24 18 8 44 24 58 37 l23 24 -22 19 c-15 12
-26 15 -33 9 -7 -7 -4 -15 9 -24 24 -18 12 -39 -14 -23 -15 10 -22 9 -38 -5
-18 -17 -42 -23 -42 -11 0 13 56 84 66 84 6 0 17 11 24 25 8 14 29 37 47 51
18 14 33 34 33 45 0 13 7 19 21 19 16 0 19 4 14 20 -4 11 -3 19 2 18 15 -4 54
23 50 35 -5 16 24 46 39 40 19 -7 18 -43 -1 -43 -8 0 -15 -7 -15 -15 0 -12 4
-13 19 -6 27 15 34 41 15 62 -14 16 -14 18 4 28 25 13 36 43 27 72 -8 24 -23
14 -28 -18 -4 -31 -16 -40 -28 -23 -8 12 -15 9 -39 -20 -16 -19 -30 -43 -30
-53 0 -10 -4 -16 -8 -13 -11 6 -42 -30 -42 -49 0 -8 -6 -12 -14 -9 -8 3 -17 0
-22 -7 -4 -7 -2 -15 4 -17 15 -5 16 -32 2 -32 -5 0 -10 5 -10 10 0 6 -7 10
-15 10 -8 0 -15 -6 -15 -13 0 -8 -9 -22 -20 -32 -23 -21 -26 -41 -7 -49 6 -3
3 -5 -8 -4 -27 3 -65 -19 -65 -38 0 -8 -11 -19 -24 -25 -13 -6 -27 -20 -29
-30 -3 -11 -12 -19 -21 -19 -11 0 -14 8 -11 32 2 17 9 34 15 38 6 4 8 14 4 23
-5 13 -2 16 9 11 18 -6 111 82 102 97 -9 14 -35 11 -29 -4 2 -7 -7 -19 -21
-27 -14 -7 -25 -19 -25 -25 0 -9 -40 -35 -54 -35 -2 0 -4 15 -4 34 0 19 -3 43
-7 55 -3 12 -2 21 3 21 10 0 8 46 -3 74 -6 14 -5 17 3 12 8 -5 12 4 12 27 0
22 -6 37 -15 41 -8 3 -15 10 -15 17 0 6 7 9 15 5 21 -8 19 14 -2 30 -16 12
-16 13 -1 8 13 -4 16 2 16 33 -1 21 2 83 6 138 13 186 13 185 -1 185 -8 0 -13
-13 -13 -37z m32 -805 c-7 -7 -12 -8 -12 -2 0 6 3 14 7 17 3 4 9 5 12 2 2 -3
-1 -11 -7 -17z m-542 -547 c0 -5 -7 -14 -15 -21 -16 -14 -18 -10 -9 14 6 17
24 22 24 7z m-123 -287 c-3 -3 -12 -4 -19 -1 -8 3 -5 6 6 6 11 1 17 -2 13 -5z
m4 -225 c2 -61 0 -71 -10 -65 -7 4 -8 66 -2 110 3 24 11 -6 12 -45z m-461
-610 c0 -17 -58 -67 -75 -65 -24 3 -32 26 -10 26 18 0 15 24 -3 26 -25 3 -26
6 -3 12 32 10 91 10 91 1z m466 -41 c4 -5 39 -8 78 -8 39 0 118 -9 176 -20 58
-11 123 -20 145 -21 22 -1 51 -5 65 -10 15 -5 -27 -6 -110 -3 -164 7 -438 30
-463 39 -9 4 -24 2 -32 -5 -12 -10 -38 -11 -108 -4 -50 5 -122 9 -160 9 -37 0
-67 1 -67 2 0 2 17 14 39 27 33 21 44 23 77 15 53 -12 61 -11 40 4 -14 10 17
10 148 -3 90 -8 168 -18 172 -22z m544 -68 c0 -5 -4 -10 -10 -10 -5 0 -10 5
-10 10 0 6 5 10 10 10 6 0 10 -4 10 -10z"/>
<path d="M755 383 c14 -14 75 -25 75 -13 0 6 -11 10 -24 10 -13 0 -33 3 -43 6
-12 5 -15 4 -8 -3z"/>
<path d="M8063 2923 c15 -54 17 -73 7 -73 -7 0 -10 -42 -9 -126 1 -69 -1 -127
-4 -130 -3 -3 -1 -18 3 -34 4 -16 6 -31 3 -34 -3 -3 0 -12 7 -21 7 -8 9 -22 6
-31 -4 -11 1 -18 14 -21 23 -6 25 -14 9 -30 -9 -9 -5 -11 13 -9 26 3 27 0 31
-119 2 -48 17 -74 43 -75 15 0 28 31 16 39 -4 3 -9 25 -11 49 -1 24 -7 55 -13
70 -7 15 -13 34 -14 42 -1 8 -7 40 -13 72 -5 31 -7 65 -4 76 2 11 0 23 -7 27
-8 5 -8 11 1 22 9 10 9 17 2 21 -5 4 -13 19 -17 34 -5 23 -3 26 11 21 11 -4
14 -3 9 5 -4 7 -13 12 -19 12 -16 0 -40 37 -26 42 16 5 11 66 -10 122 -6 16
-9 37 -6 47 5 13 1 19 -10 19 -11 0 -15 -6 -12 -17z m41 -387 c-3 -8 -1 -24 6
-35 13 -25 7 -27 -14 -5 -20 20 -21 54 -1 54 8 0 12 -6 9 -14z"/>
<path d="M2940 2895 c-7 -9 -8 -15 -2 -15 5 0 12 7 16 15 3 8 4 15 2 15 -2 0
-9 -7 -16 -15z"/>
<path d="M2894 2885 c-16 -12 -17 -14 -3 -15 9 0 19 7 23 15 7 19 5 19 -20 0z"/>
<path d="M2224 2834 c-18 -14 -18 -15 4 -4 12 6 22 13 22 15 0 8 -5 6 -26 -11z"/>
<path d="M2898 2843 c-10 -2 -18 -13 -18 -24 0 -10 -4 -19 -10 -19 -5 0 -10
-4 -10 -10 0 -20 15 -9 38 25 12 19 21 34 20 34 -2 -1 -11 -3 -20 -6z"/>
<path d="M8149 2783 c-1 -5 -1 -12 0 -17 1 -5 -3 -12 -10 -17 -8 -4 -4 -11 12
-20 21 -11 22 -10 12 2 -8 10 -9 20 -3 29 13 20 12 30 0 30 -5 0 -11 -3 -11
-7z"/>
<path d="M8638 2750 c-9 -16 -13 -32 -9 -34 4 -3 2 -35 -5 -73 -9 -54 -9 -72
1 -88 10 -17 10 -24 -1 -39 -11 -15 -11 -24 1 -55 7 -20 19 -70 26 -111 7 -41
14 -69 16 -62 3 6 10 12 17 12 10 0 11 8 2 35 -6 19 -15 35 -19 35 -5 0 -5 5
-2 10 12 20 -6 90 -23 90 -12 0 -13 3 -4 12 7 7 12 43 12 88 1 41 7 103 14
137 12 58 12 73 -3 73 -3 0 -14 -13 -23 -30z"/>
<path d="M1488 2713 c7 -3 16 -2 19 1 4 3 -2 6 -13 5 -11 0 -14 -3 -6 -6z"/>
<path d="M2736 2677 c-14 -10 -16 -18 -10 -30 8 -14 11 -12 21 13 13 34 13 34
-11 17z"/>
<path d="M6469 2673 c-1 -13 -2 -27 -3 -33 -1 -5 4 -10 9 -10 6 0 10 6 10 13
0 6 7 15 15 19 13 6 12 7 -2 7 -9 1 -19 7 -21 14 -3 6 -6 2 -8 -10z"/>
<path d="M7520 2667 c0 -16 42 -57 58 -57 7 0 12 -6 12 -12 0 -14 59 -58 78
-58 7 0 12 -6 12 -13 0 -16 50 -65 82 -81 12 -6 24 -20 26 -31 2 -11 26 -41
53 -66 27 -26 49 -51 49 -55 0 -5 12 -20 25 -33 14 -13 28 -33 31 -45 3 -12
25 -35 49 -51 25 -17 45 -33 45 -36 0 -3 15 -21 33 -40 17 -19 45 -53 61 -77
17 -24 41 -52 54 -63 14 -10 21 -19 16 -19 -5 -1 0 -9 12 -18 11 -10 23 -23
25 -28 5 -14 93 -90 120 -104 16 -9 19 -7 19 8 0 12 -17 31 -42 47 -43 28
-128 113 -128 127 0 5 -7 8 -15 8 -8 0 -15 7 -15 16 0 8 -14 35 -31 60 -30 44
-59 104 -59 124 0 17 48 11 59 -7 7 -13 13 -14 23 -6 20 15 61 23 72 14 10 -8
60 -14 199 -26 20 -2 40 1 43 6 3 5 12 9 21 9 8 0 29 6 46 14 18 8 41 17 51
20 13 4 16 10 10 16 -7 7 -34 1 -80 -16 -89 -34 -100 -34 -394 22 -42 8 -84 8
-125 0 -27 -6 -34 -1 -75 51 -92 117 -228 255 -242 247 -4 -3 -8 1 -8 9 0 8
-17 26 -37 40 -21 15 -34 27 -29 27 5 0 -5 13 -24 30 -18 16 -37 27 -42 24 -5
-3 -12 3 -15 15 -6 23 -23 29 -23 8z m548 -505 c2 -7 -3 -12 -12 -12 -9 0 -16
7 -16 16 0 17 22 14 28 -4z"/>
<path d="M2296 2643 c-18 -19 -22 -29 -14 -34 15 -10 22 -5 48 31 17 24 18 30
6 30 -8 0 -26 -12 -40 -27z"/>
<path d="M6520 2640 c0 -5 7 -10 16 -10 8 0 12 5 9 10 -3 6 -10 10 -16 10 -5
0 -9 -4 -9 -10z"/>
<path d="M6510 2595 c13 -14 28 -25 33 -25 6 0 -2 11 -17 25 -15 14 -30 25
-33 25 -4 0 4 -11 17 -25z"/>
<path d="M2730 2600 c0 -5 9 -10 20 -10 11 0 20 5 20 10 0 6 -9 10 -20 10 -11
0 -20 -4 -20 -10z"/>
<path d="M3345 2523 c8 -97 13 -123 24 -123 10 0 6 119 -4 151 -3 10 -1 20 5
24 14 8 3 25 -16 25 -13 0 -15 -12 -9 -77z"/>
<path d="M6285 2591 c-3 -5 -1 -12 5 -16 5 -3 10 1 10 9 0 18 -6 21 -15 7z"/>
<path d="M6580 2596 c0 -2 12 -12 28 -21 l27 -18 -19 21 c-17 20 -36 29 -36
18z"/>
<path d="M2055 2549 c4 -6 -3 -21 -16 -35 -24 -26 -11 -34 15 -9 8 8 20 15 26
15 8 0 8 6 0 20 -6 11 -15 20 -21 20 -6 0 -7 -5 -4 -11z"/>
<path d="M6282 2551 c-11 -6 -10 -10 4 -15 20 -8 32 0 18 14 -5 5 -15 5 -22 1z"/>
<path d="M2762 2510 c0 -14 2 -19 5 -12 2 6 2 18 0 25 -3 6 -5 1 -5 -13z"/>
<path d="M6680 2526 c0 -2 7 -9 15 -16 13 -11 14 -10 9 4 -5 14 -24 23 -24 12z"/>
<path d="M6270 2510 c0 -5 3 -10 8 -11 58 -6 56 -7 37 8 -22 15 -45 17 -45 3z"/>
<path d="M6645 2480 c3 -5 11 -10 16 -10 6 0 7 5 4 10 -3 6 -11 10 -16 10 -6
0 -7 -4 -4 -10z"/>
<path d="M6280 2466 c0 -8 5 -18 10 -21 6 -3 10 3 10 14 0 12 -4 21 -10 21 -5
0 -10 -6 -10 -14z"/>
<path d="M6287 2416 c-8 -19 3 -57 14 -50 12 7 12 51 0 58 -5 3 -11 0 -14 -8z"/>
<path d="M1938 2389 c-10 -5 -15 -16 -12 -24 4 -10 0 -15 -12 -15 -13 0 -15
-3 -7 -11 18 -18 40 -4 46 28 6 34 6 34 -15 22z"/>
<path d="M8076 2393 c-3 -3 -1 -12 5 -19 13 -16 2 -37 -13 -28 -8 5 -9 -6 -4
-37 8 -50 16 -61 48 -66 22 -3 22 -2 4 12 -15 12 -17 17 -7 29 7 8 10 20 6 26
-5 8 -11 6 -19 -6 -9 -11 -15 -13 -20 -6 -3 6 1 17 9 25 8 9 15 27 15 41 0 25
-12 41 -24 29z"/>
<path d="M2345 2371 c-3 -5 -1 -12 5 -16 5 -3 10 1 10 9 0 18 -6 21 -15 7z"/>
<path d="M2967 2287 c-4 -11 -5 -23 -1 -28 3 -5 -4 -9 -16 -9 -11 0 -23 -8
-27 -17 -3 -10 -13 -26 -21 -35 -14 -16 -13 -18 4 -18 26 1 58 26 45 35 -6 3
-11 11 -11 17 0 7 4 7 13 0 10 -9 17 -4 32 20 10 17 13 28 7 24 -6 -3 -12 2
-14 11 -3 17 -4 17 -11 0z"/>
<path d="M6386 2282 c-16 -15 -2 -28 30 -29 21 -1 34 3 31 10 -4 12 -53 28
-61 19z"/>
<path d="M1877 2263 c3 -7 6 -13 8 -13 1 0 7 6 13 13 8 10 6 13 -7 13 -11 0
-17 -6 -14 -13z"/>
<path d="M8667 2253 c-39 -77 -56 -357 -29 -471 6 -24 6 -44 1 -48 -5 -3 -9
-24 -10 -47 0 -23 -4 -51 -8 -62 -5 -11 -4 -30 0 -43 7 -17 5 -24 -8 -29 -21
-8 -94 73 -124 137 -12 25 -23 39 -26 32 -3 -7 8 -36 23 -65 15 -28 33 -62 39
-74 7 -13 15 -20 18 -16 4 3 7 -3 7 -15 0 -15 7 -22 27 -24 44 -5 54 -54 57
-286 l3 -203 34 -32 c37 -35 109 -137 109 -154 0 -6 15 -33 34 -60 18 -27 43
-68 55 -91 12 -23 32 -55 46 -70 68 -76 135 -171 135 -192 0 -6 -41 -10 -107
-10 -58 0 -103 -3 -99 -8 4 -4 42 -7 84 -8 43 -1 92 -2 110 -3 l33 -1 -6 -47
c-4 -27 -9 -56 -12 -65 -3 -11 1 -18 10 -18 8 0 17 10 21 23 9 33 7 44 -4 27
-5 -8 -10 -10 -10 -5 1 6 7 18 14 28 11 14 19 16 33 9 12 -7 27 -6 48 3 17 8
23 14 14 14 -14 1 -29 20 -29 36 0 2 27 3 60 2 33 -1 60 -5 60 -9 0 -3 15 -2
32 3 18 5 66 9 106 9 52 0 71 3 66 11 -5 9 -51 10 -165 6 l-158 -7 -32 30
c-18 16 -30 33 -26 36 4 4 15 0 25 -9 23 -21 32 -21 32 -2 0 8 6 24 13 35 8
14 9 23 1 28 -16 11 -9 63 10 78 10 7 25 10 34 7 12 -5 14 -2 9 11 -4 10 -7
24 -7 32 0 8 -6 11 -15 8 -8 -4 -15 -12 -15 -20 0 -8 -4 -14 -10 -14 -5 0 -10
4 -10 9 0 6 5 13 10 16 6 3 10 19 10 34 0 15 6 33 12 39 10 10 10 15 -1 21
-11 7 -11 13 0 32 7 13 12 36 10 51 -1 14 3 29 8 33 6 3 8 17 5 31 -5 19 -3
23 10 18 9 -3 16 -2 16 4 0 6 -5 12 -10 14 -7 2 -7 15 0 38 7 25 7 43 -1 63
-8 20 -8 31 0 40 8 11 5 17 -15 26 -23 10 -26 9 -21 -4 4 -8 3 -14 -1 -12 -6
2 -13 -8 -11 -15 6 -22 5 -38 -2 -38 -6 0 -8 -4 -5 -9 4 -5 0 -12 -6 -14 -10
-4 -10 -8 1 -15 10 -7 11 -14 2 -31 -7 -12 -13 -41 -15 -64 -3 -40 -7 -55 -27
-105 -5 -13 -7 -27 -5 -31 3 -4 -1 -35 -8 -70 -7 -35 -9 -64 -4 -67 5 -3 4
-11 -2 -19 -6 -7 -11 -33 -12 -59 -3 -60 -25 -61 -69 -4 -18 24 -49 61 -70 83
-20 22 -52 68 -70 103 -18 34 -41 71 -51 82 -10 11 -18 25 -18 31 0 18 -87
163 -110 184 -21 19 -27 45 -10 45 6 0 10 14 10 32 0 30 -1 31 -14 12 -12 -16
-16 -16 -20 -4 -9 23 -12 360 -3 360 4 0 7 7 7 15 0 8 7 15 16 15 8 0 12 5 9
10 -3 6 -14 10 -24 10 -15 0 -17 8 -13 58 2 31 11 69 18 84 12 23 12 28 -1 35
-11 7 -15 46 -20 193 -7 208 2 274 38 284 16 4 19 8 9 14 -7 5 -12 13 -11 18
4 23 -2 54 -11 54 -5 0 -16 -12 -23 -27z"/>
<path d="M3365 2260 c-3 -5 -1 -10 4 -10 6 0 11 5 11 10 0 6 -2 10 -4 10 -3 0
-8 -4 -11 -10z"/>
<path d="M6320 2260 c0 -13 11 -13 30 0 12 8 11 10 -7 10 -13 0 -23 -4 -23
-10z"/>
<path d="M6465 2260 c3 -5 11 -10 16 -10 6 0 7 5 4 10 -3 6 -11 10 -16 10 -6
0 -7 -4 -4 -10z"/>
<path d="M1835 2250 c3 -5 8 -10 11 -10 2 0 4 5 4 10 0 6 -5 10 -11 10 -5 0
-7 -4 -4 -10z"/>
<path d="M6541 2240 c-1 -21 4 -26 27 -27 22 -1 23 0 8 6 -11 4 -23 16 -27 27
-7 16 -8 16 -8 -6z"/>
<path d="M6623 2238 c2 -7 18 -12 36 -12 17 1 31 -2 31 -6 0 -4 18 -8 40 -8
22 0 40 3 40 8 0 5 -6 7 -13 4 -7 -2 -30 2 -50 11 -45 19 -90 20 -84 3z"/>
<path d="M1800 2227 c0 -7 15 -18 33 -25 41 -16 41 -16 45 -3 2 6 -3 9 -10 6
-8 -3 -23 3 -33 15 -21 23 -35 26 -35 7z"/>
<path d="M6235 2210 c-3 -5 -3 -15 1 -21 6 -11 23 6 24 24 0 10 -18 9 -25 -3z"/>
<path d="M2755 2190 c3 -5 8 -10 11 -10 2 0 4 5 4 10 0 6 -5 10 -11 10 -5 0
-7 -4 -4 -10z"/>
<path d="M6931 2191 c-10 -6 -9 -10 5 -15 20 -8 25 -4 16 11 -4 7 -13 9 -21 4z"/>
<path d="M3359 2152 c-14 -9 -23 -24 -21 -33 3 -15 -5 -16 -64 -11 -52 4 -66
2 -62 -8 2 -8 24 -14 52 -15 43 -3 80 -15 44 -15 -9 0 -19 -7 -22 -16 -5 -12
-2 -15 10 -10 39 15 64 18 64 7 0 -6 -7 -11 -15 -11 -9 0 -20 -11 -25 -25 -6
-15 -17 -25 -30 -25 -13 0 -20 -7 -20 -19 0 -11 -8 -21 -17 -23 -10 -2 -13 -6
-8 -10 6 -3 30 11 55 33 25 22 52 45 60 52 8 6 27 17 42 24 35 15 39 52 6 54
-13 1 -28 1 -35 0 -27 -3 -22 20 7 33 25 10 28 15 18 24 -11 8 -20 7 -39 -6z"/>
<path d="M1465 2139 l-30 -19 43 0 c29 0 42 4 42 14 0 22 -23 24 -55 5z"/>
<path d="M2761 2134 c-11 -13 -11 -18 0 -30 12 -11 14 -9 15 16 1 17 1 30 0
30 0 -1 -7 -8 -15 -16z"/>
<path d="M2858 2144 c-19 -18 -4 -25 50 -23 31 1 67 -2 80 -6 13 -4 22 -3 22
3 0 17 -138 41 -152 26z"/>
<path d="M8568 2133 c7 -3 16 -2 19 1 4 3 -2 6 -13 5 -11 0 -14 -3 -6 -6z"/>
<path d="M3040 2110 c0 -5 5 -10 10 -10 6 0 10 5 10 10 0 6 -4 10 -10 10 -5 0
-10 -4 -10 -10z"/>
<path d="M3070 2100 c0 -7 13 -8 34 -5 26 5 35 3 40 -11 6 -16 7 -16 20 1 7
10 18 15 24 11 7 -4 12 -2 12 3 0 7 -26 11 -65 11 -39 0 -65 -4 -65 -10z"/>
<path d="M2853 2085 c-3 -9 -3 -18 -1 -21 3 -3 8 4 11 16 6 23 -1 27 -10 5z"/>
<path d="M2767 2063 c-4 -3 -7 -11 -7 -17 0 -6 5 -5 12 2 6 6 9 14 7 17 -3 3
-9 2 -12 -2z"/>
<path d="M2757 2010 c-5 -19 17 -48 26 -33 5 8 -9 53 -17 53 -2 0 -6 -9 -9
-20z"/>
<path d="M3248 2009 c-10 -10 -18 -21 -18 -24 0 -9 40 19 44 32 8 19 -6 14
-26 -8z"/>
<path d="M991 1984 c0 -11 3 -14 6 -6 3 7 2 16 -1 19 -3 4 -6 -2 -5 -13z"/>
<path d="M1340 1990 c0 -5 5 -10 10 -10 6 0 10 5 10 10 0 6 -4 10 -10 10 -5 0
-10 -4 -10 -10z"/>
<path d="M1277 1918 c-50 -48 -72 -84 -58 -93 5 -3 12 4 16 15 3 11 11 20 17
20 15 0 78 71 78 88 0 18 -4 16 -53 -30z"/>
<path d="M2770 1946 c0 -9 5 -16 10 -16 6 0 10 4 10 9 0 6 -4 13 -10 16 -5 3
-10 -1 -10 -9z"/>
<path d="M1435 1920 c-3 -5 -1 -10 4 -10 6 0 11 5 11 10 0 6 -2 10 -4 10 -3 0
-8 -4 -11 -10z"/>
<path d="M2770 1910 c0 -5 5 -10 10 -10 6 0 10 5 10 10 0 6 -4 10 -10 10 -5 0
-10 -4 -10 -10z"/>
<path d="M3210 1905 c-19 -22 -8 -25 13 -3 9 10 13 18 8 18 -5 0 -14 -7 -21
-15z"/>
<path d="M6470 1906 c0 -2 8 -10 18 -17 15 -13 16 -12 3 4 -13 16 -21 21 -21
13z"/>
<path d="M2760 1880 c0 -5 5 -10 11 -10 5 0 7 5 4 10 -3 6 -8 10 -11 10 -2 0
-4 -4 -4 -10z"/>
<path d="M3121 1833 c-30 -36 -38 -53 -25 -53 11 0 36 31 30 37 -3 4 4 17 16
30 12 13 19 23 15 23 -3 0 -19 -17 -36 -37z"/>
<path d="M2765 1830 c3 -5 8 -10 11 -10 2 0 4 5 4 10 0 6 -5 10 -11 10 -5 0
-7 -4 -4 -10z"/>
<path d="M2773 1770 c0 -25 2 -35 4 -22 2 12 2 32 0 45 -2 12 -4 2 -4 -23z"/>
<path d="M6560 1791 c0 -5 7 -12 16 -15 14 -5 15 -4 4 9 -14 17 -20 19 -20 6z"/>
<path d="M8398 1774 c-2 -5 6 -20 19 -33 13 -13 23 -19 23 -13 0 7 0 14 0 17
0 3 -2 4 -5 3 -2 -2 -10 6 -18 16 -8 10 -16 15 -19 10z"/>
<path d="M1355 1750 c-3 -5 -1 -10 4 -10 6 0 11 5 11 10 0 6 -2 10 -4 10 -3 0
-8 -4 -11 -10z"/>
<path d="M3050 1748 c0 -5 11 -8 25 -8 14 0 25 4 25 9 0 5 -11 8 -25 7 -14 0
-25 -4 -25 -8z"/>
<path d="M6615 1730 c3 -5 8 -10 11 -10 2 0 4 5 4 10 0 6 -5 10 -11 10 -5 0
-7 -4 -4 -10z"/>
<path d="M2770 1694 c0 -8 5 -12 10 -9 6 3 10 10 10 16 0 5 -4 9 -10 9 -5 0
-10 -7 -10 -16z"/>
<path d="M3016 1695 c-3 -8 -1 -15 4 -15 13 0 22 18 11 24 -5 3 -11 -1 -15 -9z"/>
<path d="M5478 1663 c12 -2 32 -2 45 0 12 2 2 4 -23 4 -25 0 -35 -2 -22 -4z"/>
<path d="M5550 1658 c0 -4 8 -8 19 -8 10 0 34 -3 52 -6 19 -4 31 -3 27 1 -11
12 -98 23 -98 13z"/>
<path d="M2781 1644 c0 -11 3 -14 6 -6 3 7 2 16 -1 19 -3 4 -6 -2 -5 -13z"/>
<path d="M5685 1635 c17 -8 53 -14 80 -13 l50 1 -45 8 c-25 5 -61 11 -80 13
l-35 5 30 -14z"/>
<path d="M5855 1610 c44 -15 114 -20 120 -9 4 5 -4 9 -17 9 -13 0 -48 2 -78 5
-46 4 -50 3 -25 -5z"/>
<path d="M3170 1601 c-14 -4 -20 -10 -15 -13 6 -3 21 0 35 8 27 14 20 16 -20
5z"/>
<path d="M3238 1603 c7 -3 16 -2 19 1 4 3 -2 6 -13 5 -11 0 -14 -3 -6 -6z"/>
<path d="M5120 1599 c0 -5 5 -7 10 -4 6 3 10 8 10 11 0 2 -4 4 -10 4 -5 0 -10
-5 -10 -11z"/>
<path d="M6005 1599 c-11 -4 -17 -8 -12 -10 4 -1 12 -3 17 -4 6 -1 11 -4 13
-5 1 -2 97 -5 212 -7 116 -2 260 -6 320 -9 112 -6 136 -1 55 10 -61 9 -149 14
-379 21 -107 3 -197 7 -200 9 -3 2 -15 0 -26 -5z"/>
<path d="M3680 1590 c0 -4 10 -12 23 -18 20 -10 18 -11 -20 -11 -23 -1 -44 -5
-47 -10 -3 -5 93 -8 216 -7 162 1 222 4 225 13 3 8 -9 12 -39 11 -68 -1 -187
8 -195 15 -11 12 -41 8 -46 -5 -4 -10 -8 -10 -15 0 -10 14 -102 25 -102 12z
m80 -20 c0 -5 -2 -10 -4 -10 -3 0 -8 5 -11 10 -3 6 -1 10 4 10 6 0 11 -4 11
-10z"/>
<path d="M411 1553 c-17 -60 -14 -90 9 -96 17 -4 20 0 21 26 0 18 2 43 3 57 7
58 -18 67 -33 13z"/>
<path d="M2970 1581 c0 -5 10 -11 23 -15 32 -8 37 -8 37 7 0 6 -14 13 -30 14
-17 1 -30 -2 -30 -6z"/>
<path d="M3078 1583 c6 -2 18 -2 25 0 6 3 1 5 -13 5 -14 0 -19 -2 -12 -5z"/>
<path d="M3605 1580 c28 -12 45 -12 45 0 0 6 -15 10 -32 9 -28 0 -30 -2 -13
-9z"/>
<path d="M4601 1576 c-6 -8 -1 -11 20 -12 33 -1 39 11 9 19 -10 3 -24 0 -29
-7z"/>
<path d="M5560 1580 c8 -5 40 -10 70 -10 39 0 51 3 40 10 -8 5 -40 10 -70 10
-39 0 -51 -3 -40 -10z"/>
<path d="M3357 1573 c-10 -10 -8 -25 2 -19 5 3 11 0 14 -7 3 -8 38 -13 113
-15 103 -3 108 -2 92 14 -14 14 -22 15 -40 7 -27 -12 -158 1 -168 17 -3 6 -9
7 -13 3z"/>
<path d="M4308 1575 c-2 -2 -48 -5 -103 -8 -101 -5 -150 -26 -54 -23 28 0 53
-2 56 -6 2 -5 9 -8 14 -8 6 0 7 5 4 10 -4 6 10 10 34 10 30 0 41 -4 41 -15 0
-8 4 -15 9 -15 5 0 8 8 7 18 -1 12 7 17 24 18 41 1 50 4 50 13 0 9 -74 13 -82
6z"/>
<path d="M4404 1568 c-3 -4 19 -8 48 -7 57 1 55 5 -5 11 -21 2 -40 0 -43 -4z"/>
<path d="M4537 1574 c-4 -4 -4 -10 -2 -14 6 -10 45 0 45 11 0 10 -33 12 -43 3z"/>
<path d="M4700 1570 c19 -13 30 -13 30 0 0 6 -10 10 -22 10 -19 0 -20 -2 -8
-10z"/>
<path d="M4998 1573 c7 -3 16 -2 19 1 4 3 -2 6 -13 5 -11 0 -14 -3 -6 -6z"/>
<path d="M5130 1572 c0 -4 16 -8 35 -9 19 -1 32 3 29 8 -7 11 -64 12 -64 1z"/>
<path d="M5700 1576 c0 -9 39 -13 51 -5 10 6 4 9 -18 9 -18 0 -33 -2 -33 -4z"/>
<path d="M5793 1574 c11 -11 97 -14 97 -4 0 6 -23 10 -52 10 -28 0 -48 -3 -45
-6z"/>
<path d="M5910 1570 c0 -5 12 -10 26 -10 14 0 23 4 19 10 -3 6 -15 10 -26 10
-10 0 -19 -4 -19 -10z"/>
<path d="M2925 1561 c-3 -6 -11 -9 -16 -6 -5 4 -9 2 -9 -3 0 -18 13 -21 27 -6
9 8 13 17 10 20 -3 3 -8 0 -12 -5z"/>
<path d="M3170 1560 c0 -5 7 -10 16 -10 8 0 12 5 9 10 -3 6 -10 10 -16 10 -5
0 -9 -4 -9 -10z"/>
<path d="M3255 1560 c3 -5 12 -10 20 -10 8 0 17 5 20 10 4 6 -5 10 -20 10 -15
0 -24 -4 -20 -10z"/>
<path d="M6680 1560 c0 -5 12 -10 26 -10 14 0 23 4 19 10 -3 6 -15 10 -26 10
-10 0 -19 -4 -19 -10z"/>
<path d="M8190 1561 c0 -6 10 -11 23 -11 12 0 47 -3 77 -6 41 -5 52 -4 44 5
-15 16 -144 27 -144 12z"/>
<path d="M3600 1550 c0 -5 5 -10 10 -10 6 0 10 5 10 10 0 6 -4 10 -10 10 -5 0
-10 -4 -10 -10z"/>
<path d="M6815 1550 c4 -6 11 -8 16 -5 14 9 11 15 -7 15 -8 0 -12 -5 -9 -10z"/>
<path d="M8380 1551 c0 -6 -8 -8 -17 -5 -15 5 -15 4 -3 -4 15 -10 89 -17 143
-14 48 3 20 21 -31 20 -26 -1 -57 2 -69 6 -14 4 -23 3 -23 -3z"/>
<path d="M3705 1450 c3 -5 32 -10 63 -9 44 1 51 3 32 9 -37 12 -102 12 -95 0z"/>
<path d="M3880 1442 c0 -13 38 -23 46 -11 3 5 1 9 -5 9 -5 0 -16 3 -25 6 -9 3
-16 2 -16 -4z"/>
<path d="M3946 1443 c-11 -11 -6 -23 9 -23 8 0 15 4 15 9 0 13 -16 22 -24 14z"/>
<path d="M3995 1430 c3 -5 8 -10 11 -10 2 0 4 5 4 10 0 6 -5 10 -11 10 -5 0
-7 -4 -4 -10z"/>
<path d="M4040 1429 c0 -5 5 -7 10 -4 6 3 10 8 10 11 0 2 -4 4 -10 4 -5 0 -10
-5 -10 -11z"/>
<path d="M403 1205 c-6 -14 -7 -25 -2 -25 11 0 22 25 17 39 -1 6 -8 -1 -15
-14z"/>
<path d="M380 1110 c0 -5 5 -10 11 -10 5 0 7 5 4 10 -3 6 -8 10 -11 10 -2 0
-4 -4 -4 -10z"/>
<path d="M500 880 c-11 -7 -7 -10 17 -10 17 0 35 5 38 10 8 13 -35 13 -55 0z"/>
<path d="M9190 600 c0 -5 6 -10 13 -10 7 0 8 -3 2 -8 -12 -8 -14 -77 -2 -88 4
-4 7 6 8 22 0 16 2 44 5 62 3 24 0 32 -11 32 -8 0 -15 -4 -15 -10z"/>
<path d="M8450 558 c-19 -5 -48 -10 -65 -11 -16 -1 -34 -7 -40 -14 -5 -6 -25
-16 -44 -20 -19 -5 -37 -15 -39 -21 -5 -16 87 -10 97 7 4 6 21 12 38 14 18 2
39 9 47 16 8 7 20 10 25 6 6 -3 18 -2 27 3 28 15 -6 30 -46 20z"/>
<path d="M8010 542 c-8 -3 -19 -11 -25 -17 -13 -16 -71 -35 -105 -35 -17 0
-33 -8 -42 -22 -13 -19 -18 -21 -30 -10 -13 10 -38 11 -90 3 -5 0 -8 -5 -8
-10 0 -9 120 -12 135 -3 5 3 22 7 38 9 15 2 38 8 50 15 12 7 31 13 42 15 11 2
21 8 23 13 2 6 15 7 28 4 13 -3 24 -2 24 3 0 18 -25 41 -40 35z"/>
<path d="M7790 530 l-25 -8 25 0 c14 0 34 3 45 8 l20 9 -20 -1 c-11 0 -31 -4
-45 -8z"/>
<path d="M7908 533 c7 -3 16 -2 19 1 4 3 -2 6 -13 5 -11 0 -14 -3 -6 -6z"/>
<path d="M7700 526 c0 -9 30 -14 35 -6 4 6 -3 10 -14 10 -12 0 -21 -2 -21 -4z"/>
<path d="M2730 512 c0 -13 59 -21 67 -9 4 6 11 4 17 -5 6 -8 18 -17 26 -21 15
-5 -70 -10 -162 -8 -26 0 -50 -4 -53 -9 -3 -5 13 -8 36 -8 24 0 47 -6 56 -15
13 -13 8 -15 -48 -16 -185 -4 -289 -4 -334 1 -27 3 -44 3 -37 1 6 -3 12 -8 12
-12 0 -10 -51 -2 -66 11 -8 5 -14 3 -18 -7 -3 -9 -10 -13 -16 -10 -6 4 -8 11
-5 16 4 5 -1 9 -9 9 -9 0 -16 -5 -16 -10 0 -6 -12 -10 -27 -10 -16 0 -44 -2
-64 -6 -21 -3 -39 -2 -43 4 -4 7 -17 7 -39 -2 -33 -14 -57 -11 -69 8 -4 6 -2
14 5 19 8 6 8 7 -3 4 -8 -2 -14 -12 -12 -22 3 -17 -11 -17 -267 -11 -191 5
-271 4 -271 -3 0 -7 35 -12 93 -13 50 -1 112 -3 137 -3 25 -1 142 -3 260 -5
228 -3 283 -7 274 -21 -3 -5 -23 -9 -45 -9 -22 0 -39 -5 -39 -11 0 -8 18 -10
60 -5 33 3 87 9 120 12 41 5 60 11 60 20 0 8 3 14 8 15 68 5 458 6 466 1 21
-12 86 -8 86 7 0 8 -6 11 -15 7 -8 -3 -25 -1 -37 5 -21 9 -21 9 5 4 15 -3 27
-2 27 3 0 14 94 12 135 -3 l40 -14 -69 2 c-44 1 -70 -2 -73 -9 -2 -7 10 -12
34 -12 21 0 97 -2 170 -5 110 -3 133 -1 138 11 3 8 4 16 2 18 -2 2 -42 4 -90
5 -88 1 -180 20 -160 32 13 8 317 0 353 -9 21 -6 23 -4 13 7 -19 20 -16 27 12
21 24 -4 36 -22 14 -22 -24 0 4 -19 29 -20 29 -1 81 -4 231 -16 83 -6 94 -5
88 9 -3 9 0 18 9 21 8 3 14 -1 14 -9 0 -9 10 -15 25 -15 18 0 25 5 25 20 0 11
-4 20 -9 20 -5 0 -13 9 -16 20 -5 17 -15 20 -65 20 -47 0 -61 4 -69 18 -8 16
-17 17 -73 11 -85 -11 -96 -13 -110 -27 -16 -16 -31 -15 -25 1 4 10 -6 13 -40
11 -24 -2 -52 -5 -61 -8 -9 -3 -47 -1 -85 3 -37 4 -73 4 -79 0 -7 -5 -17 -4
-24 1 -6 6 -44 9 -86 8 -41 -1 -80 2 -87 6 -6 4 -23 1 -36 -8 -17 -12 -25 -12
-28 -3 -2 6 -19 13 -38 14 -19 2 -55 5 -81 9 -29 4 -48 2 -48 -4z m195 -53
c11 -17 -1 -21 -15 -4 -8 9 -8 15 -2 15 6 0 14 -5 17 -11z m205 1 c0 -5 -2
-10 -4 -10 -3 0 -8 5 -11 10 -3 6 -1 10 4 10 6 0 11 -4 11 -10z m67 -6 c-3 -3
-12 -4 -19 -1 -8 3 -5 6 6 6 11 1 17 -2 13 -5z m368 -4 c8 -12 -21 -18 -102
-18 -65 -1 -83 4 -68 20 9 8 165 7 170 -2z m125 1 c0 -12 -29 -23 -42 -15 -6
4 -5 10 3 15 18 11 39 11 39 0z m-65 -11 c3 -5 2 -10 -4 -10 -5 0 -13 5 -16
10 -3 6 -2 10 4 10 5 0 13 -4 16 -10z"/>
<path d="M8747 514 c-3 -3 -20 -6 -39 -7 -22 -2 -32 -7 -30 -16 3 -12 0 -12
-12 -2 -17 14 -75 6 -60 -8 15 -13 83 -21 90 -10 3 6 12 8 20 5 7 -3 16 -1 19
5 4 5 23 8 44 5 21 -2 44 -1 51 4 9 5 20 4 28 -2 10 -9 16 -8 22 2 5 8 6 18 4
22 -6 9 -128 11 -137 2z"/>
<path d="M1698 493 c7 -3 16 -2 19 1 4 3 -2 6 -13 5 -11 0 -14 -3 -6 -6z"/>
<path d="M2197 493 c-21 -20 -4 -32 46 -32 28 0 77 -2 109 -5 43 -4 58 -1 62
10 4 11 -7 14 -57 15 -34 1 -77 1 -95 0 -18 -2 -39 2 -46 8 -7 6 -16 8 -19 4z"/>
<path d="M8188 495 c-3 -3 -29 -7 -59 -10 -80 -7 -149 -21 -162 -34 -13 -13 7
-14 38 -2 12 5 35 3 57 -5 28 -10 37 -10 41 0 3 6 35 18 71 25 36 7 66 17 66
22 0 9 -43 13 -52 4z"/>
<path d="M1758 483 c7 -3 16 -2 19 1 4 3 -2 6 -13 5 -11 0 -14 -3 -6 -6z"/>
<path d="M3791 480 c-15 -9 12 -33 31 -28 11 2 10 7 -3 19 -9 9 -22 13 -28 9z"/>
<path d="M3860 480 l-35 -5 40 -12 c29 -9 41 -10 46 -1 6 9 12 8 23 -1 9 -8
16 -10 16 -5 0 5 5 1 11 -9 14 -24 0 -45 -17 -23 -9 13 -24 16 -65 14 -56 -3
-84 -28 -32 -28 16 0 34 -5 40 -11 8 -8 13 -8 17 0 11 17 37 13 55 -7 19 -23
122 -37 140 -19 14 14 14 44 -1 53 -7 4 -8 3 -4 -4 4 -7 3 -12 -3 -12 -5 0
-13 5 -16 10 -3 6 -11 10 -16 10 -6 0 -7 -4 -4 -10 3 -5 -3 -10 -14 -10 -12 0
-21 5 -21 10 0 6 -9 10 -20 10 -11 0 -20 5 -20 11 0 6 9 13 20 16 23 6 27 22
5 24 -45 4 -114 3 -145 -1z m228 -99 c3 -8 -1 -12 -9 -9 -7 2 -15 10 -17 17
-3 8 1 12 9 9 7 -2 15 -10 17 -17z"/>
<path d="M8465 480 c4 -6 11 -8 16 -5 14 9 11 15 -7 15 -8 0 -12 -5 -9 -10z"/>
<path d="M8550 471 c-6 -12 -7 -21 -1 -21 10 0 24 30 17 37 -2 3 -9 -5 -16
-16z"/>
<path d="M2450 459 c0 -8 13 -10 37 -6 20 4 42 2 49 -4 14 -11 34 -4 34 12 0
5 -27 9 -60 9 -38 0 -60 -4 -60 -11z"/>
<path d="M7490 450 c-12 -7 -12 -10 3 -16 21 -8 29 -3 19 13 -5 8 -13 9 -22 3z"/>
<path d="M8458 453 c7 -3 16 -2 19 1 4 3 -2 6 -13 5 -11 0 -14 -3 -6 -6z"/>
<path d="M7403 443 c-16 -6 -17 -43 -2 -43 5 0 7 5 4 10 -4 6 -1 17 5 25 13
16 12 16 -7 8z"/>
<path d="M8250 440 c0 -5 5 -10 10 -10 6 0 10 5 10 10 0 6 -4 10 -10 10 -5 0
-10 -4 -10 -10z"/>
<path d="M8338 443 c7 -3 16 -2 19 1 4 3 -2 6 -13 5 -11 0 -14 -3 -6 -6z"/>
<path d="M1858 433 c6 -2 18 -2 25 0 6 3 1 5 -13 5 -14 0 -19 -2 -12 -5z"/>
<path d="M8500 425 c-10 -13 -9 -15 9 -15 12 0 21 6 21 15 0 8 -4 15 -9 15 -5
0 -14 -7 -21 -15z"/>
<path d="M8680 431 c0 -5 5 -13 10 -16 6 -3 10 -2 10 4 0 5 -4 13 -10 16 -5 3
-10 2 -10 -4z"/>
<path d="M4156 418 c5 -7 2 -9 -9 -5 -11 4 -14 2 -10 -8 3 -8 -2 -18 -11 -21
-24 -9 -19 -26 7 -22 12 2 21 9 19 16 -1 7 5 15 13 18 19 8 19 20 -1 28 -10 4
-13 2 -8 -6z"/>
<path d="M4204 413 c-17 -17 -17 -18 5 -21 24 -4 44 15 35 30 -8 13 -21 9 -40
-9z"/>
<path d="M8298 418 c5 -5 16 -8 23 -6 8 3 3 7 -10 11 -17 4 -21 3 -13 -5z"/>
<path d="M8375 420 c-16 -7 -17 -9 -3 -9 9 -1 20 4 23 9 7 11 7 11 -20 0z"/>
<path d="M8710 420 c0 -5 7 -10 15 -10 8 0 15 5 15 10 0 6 -7 10 -15 10 -8 0
-15 -4 -15 -10z"/>
<path d="M8770 420 c0 -5 15 -10 33 -9 27 0 29 2 12 9 -28 12 -45 12 -45 0z"/>
<path d="M1263 413 c-82 -6 -62 -19 32 -22 54 -1 85 2 85 9 0 5 -9 10 -19 10
-11 0 -25 1 -33 3 -7 2 -37 2 -65 0z"/>
<path d="M4262 408 c3 -7 16 -12 32 -10 14 1 26 -1 26 -5 0 -4 -12 -9 -26 -10
-14 0 -30 -5 -35 -10 -6 -6 30 -10 91 -11 57 0 100 3 100 9 0 5 -7 9 -15 9 -8
0 -15 4 -15 10 0 5 13 7 30 4 17 -4 30 -2 30 3 0 13 -8 14 -124 20 -78 3 -97
2 -94 -9z m143 -18 c-3 -5 -21 -9 -38 -9 l-32 1 30 8 c43 11 47 11 40 0z"/>
<path d="M6892 409 c-13 -5 -50 -10 -82 -10 -42 -1 -60 -6 -65 -17 -7 -20 0
-26 22 -17 10 5 22 7 28 6 22 -5 171 10 220 22 11 3 24 6 29 6 5 1 6 4 3 8
-11 10 -129 11 -155 2z"/>
<path d="M7194 409 c-2 -3 -16 -4 -30 -1 -16 3 -25 1 -21 -5 3 -5 18 -8 34 -7
15 1 41 2 56 3 16 0 25 5 22 11 -6 10 -54 10 -61 -1z"/>
<path d="M4677 390 c-5 -18 -11 -20 -53 -15 -26 4 -56 11 -66 16 -14 7 -18 6
-18 -6 0 -17 -16 -21 -22 -5 -2 7 -11 5 -23 -4 -20 -15 -19 -15 5 -17 14 -1
29 -1 34 0 5 1 13 -4 17 -11 7 -10 11 -10 21 0 15 15 70 16 86 0 9 -9 12 -8
12 5 0 9 6 17 14 17 9 0 14 9 13 20 -2 26 -13 26 -20 0z"/>
<path d="M4840 399 c0 -8 37 -19 63 -19 35 0 16 18 -23 22 -22 2 -40 1 -40 -3z"/>
<path d="M4963 402 c-56 -5 -36 -22 25 -21 31 1 48 4 37 6 -11 3 -22 8 -25 12
-3 3 -20 5 -37 3z"/>
<path d="M7278 403 c7 -3 16 -2 19 1 4 3 -2 6 -13 5 -11 0 -14 -3 -6 -6z"/>
<path d="M7355 400 c4 -6 11 -8 16 -5 14 9 11 15 -7 15 -8 0 -12 -5 -9 -10z"/>
<path d="M7475 400 c3 -5 8 -10 11 -10 2 0 4 5 4 10 0 6 -5 10 -11 10 -5 0 -7
-4 -4 -10z"/>
<path d="M7500 399 c0 -5 5 -7 10 -4 6 3 10 8 10 11 0 2 -4 4 -10 4 -5 0 -10
-5 -10 -11z"/>
<path d="M4752 389 c2 -7 10 -15 17 -17 8 -3 12 1 9 9 -2 7 -10 15 -17 17 -8
3 -12 -1 -9 -9z"/>
<path d="M4810 385 c7 -8 17 -15 22 -15 6 0 5 7 -2 15 -7 8 -17 15 -22 15 -6
0 -5 -7 2 -15z"/>
<path d="M6320 390 c0 -5 5 -10 11 -10 5 0 7 5 4 10 -3 6 -8 10 -11 10 -2 0
-4 -4 -4 -10z"/>
<path d="M6455 390 c-3 -5 -1 -10 4 -10 6 0 11 5 11 10 0 6 -2 10 -4 10 -3 0
-8 -4 -11 -10z"/>
<path d="M6617 380 c-3 -13 -10 -18 -21 -14 -10 4 -16 1 -16 -9 0 -12 11 -14
58 -10 71 6 108 25 42 21 -26 -2 -44 2 -42 7 2 6 10 9 18 7 8 -2 14 2 14 8 0
20 -47 11 -53 -10z"/>
<path d="M6695 390 c3 -5 13 -10 21 -10 8 0 14 5 14 10 0 6 -9 10 -21 10 -11
0 -17 -4 -14 -10z"/>
<path d="M6174 373 c-10 -7 -31 -11 -47 -9 -16 3 -57 0 -90 -5 -34 -6 -183
-12 -332 -13 -148 -2 -279 -4 -290 -5 -20 -2 -20 -2 -1 -16 23 -18 151 -21
161 -5 4 7 11 7 18 2 14 -10 167 -14 166 -4 -3 18 2 26 9 15 10 -16 61 -18
192 -10 105 7 273 26 299 33 20 6 8 14 -32 23 -23 6 -39 4 -53 -6z"/>
<path d="M6278 383 c7 -3 16 -2 19 1 4 3 -2 6 -13 5 -11 0 -14 -3 -6 -6z"/>
<path d="M6378 383 c12 -2 32 -2 45 0 12 2 2 4 -23 4 -25 0 -35 -2 -22 -4z"/>
<path d="M6518 383 c7 -3 16 -2 19 1 4 3 -2 6 -13 5 -11 0 -14 -3 -6 -6z"/>
<path d="M4200 376 c0 -2 9 -6 20 -9 11 -3 20 -1 20 4 0 5 -9 9 -20 9 -11 0
-20 -2 -20 -4z"/>
<path d="M6320 360 c0 -5 7 -7 15 -4 8 4 15 8 15 10 0 2 -7 4 -15 4 -8 0 -15
-4 -15 -10z"/>
<path d="M6430 350 c0 -5 15 -10 33 -9 27 0 29 2 12 9 -28 12 -45 12 -45 0z"/>
<path d="M6540 350 c0 -5 7 -10 16 -10 8 0 12 5 9 10 -3 6 -10 10 -16 10 -5 0
-9 -4 -9 -10z"/>
<path d="M4815 341 c-16 -4 -28 -11 -25 -16 6 -12 25 -12 59 -1 14 5 21 4 18
-1 -4 -6 22 -10 66 -9 90 1 86 18 -7 23 -37 2 -71 5 -75 6 -3 2 -19 1 -36 -2z"/>
<path d="M5102 334 c-18 -9 -20 -13 -8 -17 16 -6 86 0 95 8 18 19 -53 27 -87
9z"/>
<path d="M5217 330 c-3 -11 -1 -20 4 -20 5 0 9 6 9 14 0 8 6 17 13 19 7 4 6 6
-4 6 -9 1 -19 -8 -22 -19z"/>
<path d="M5280 340 c0 -13 11 -13 30 0 12 8 11 10 -7 10 -13 0 -23 -4 -23 -10z"/>
<path d="M5035 330 c3 -5 13 -10 21 -10 8 0 14 5 14 10 0 6 -9 10 -21 10 -11
0 -17 -4 -14 -10z"/>
<path d="M5355 330 c-4 -6 -15 -8 -26 -5 -20 7 -27 -9 -9 -20 16 -10 72 5 67
18 -5 16 -24 20 -32 7z"/>
<path d="M2018 323 c7 -3 16 -2 19 1 4 3 -2 6 -13 5 -11 0 -14 -3 -6 -6z"/>
</g>
</svg>
