<?xml version="1.0" encoding="UTF-8" standalone="no"?>
<!-- Created with Inkscape (http://www.inkscape.org/) -->

<svg
   version="1.1"
   id="svg1"
   width="1640"
   height="1852"
   viewBox="0 0 1640 1852"
   sodipodi:docname="repulsorJet.svg"
   inkscape:version="1.3.2 (091e20e, 2023-11-25, custom)"
   xmlns:inkscape="http://www.inkscape.org/namespaces/inkscape"
   xmlns:sodipodi="http://sodipodi.sourceforge.net/DTD/sodipodi-0.dtd"
   xmlns:xlink="http://www.w3.org/1999/xlink"
   xmlns="http://www.w3.org/2000/svg"
   xmlns:svg="http://www.w3.org/2000/svg">
  <defs
     id="defs1" />
  <sodipodi:namedview
     id="namedview1"
     pagecolor="#505050"
     bordercolor="#ffffff"
     borderopacity="1"
     inkscape:showpageshadow="0"
     inkscape:pageopacity="0"
     inkscape:pagecheckerboard="1"
     inkscape:deskcolor="#505050"
     inkscape:zoom="0.46166307"
     inkscape:cx="8.6643275"
     inkscape:cy="932.49825"
     inkscape:window-width="1920"
     inkscape:window-height="1111"
     inkscape:window-x="-9"
     inkscape:window-y="-9"
     inkscape:window-maximized="1"
     inkscape:current-layer="g1" />
  <g transform = "scale(.001), rotate(135)"
     
     id="g1">
    
    <path
       style="fill:none;fill-opacity:1;stroke:#5bb4ae;stroke-width:6.2;stroke-dasharray:none;stroke-opacity:1"
       d="M -355.34307,661.67331 -131.722,756.63568"
       id="path2" />
    <path
       style="fill:none;fill-opacity:1;stroke:#5bb4ae;stroke-width:6.2;stroke-dasharray:none;stroke-opacity:1"
       d="M -229.74768,474.81187 -64.32935,637.16689 -134.7853,759.69898"
       id="path3" />
    <path
       style="fill:none;fill-opacity:1;stroke:#5bb4ae;stroke-width:6.2;stroke-dasharray:none;stroke-opacity:1"
       d="m -143.97521,747.44578 -82.70916,-134.78531 c 156.228416,24.50642 156.228416,12.25321 156.228416,12.25321 v 0"
       id="path4" />
    <path
       style="fill:none;fill-opacity:1;stroke:#5bb4ae;stroke-width:6.2;stroke-dasharray:none;stroke-opacity:1"
       d="m -264.80351,620.58246 c 37.90643,-8.12281 37.90643,-8.12281 37.90643,-8.12281 l -47.11228,-33.03275"
       id="path5" />
    <path
       style="fill:none;fill-opacity:1;stroke:#5bb4ae;stroke-width:6.2;stroke-dasharray:none;stroke-opacity:1"
       d="m -224.73099,611.91813 -11.91345,-33.03275"
       id="path6" />
    <ellipse
       style="fill:none;fill-opacity:1;stroke:#5bb4ae;stroke-width:6.2;stroke-dasharray:none;stroke-opacity:1"
       id="path7"
       cx="-275.90469"
       cy="623.01929"
       rx="9.4766083"
       ry="12.725731" />
    <ellipse
       style="fill:none;fill-opacity:1;stroke:#5bb4ae;stroke-width:6.2;stroke-dasharray:none;stroke-opacity:1"
       id="path8"
       cx="-284.569"
       cy="575.09473"
       rx="15.974854"
       ry="14.621053" />
    <ellipse
       style="fill:none;fill-opacity:1;stroke:#5bb4ae;stroke-width:6.2;stroke-dasharray:none;stroke-opacity:1"
       id="path9"
       cx="-236.91521"
       cy="564.80585"
       rx="8.3935671"
       ry="16.245615" />
    <path
       style="fill:none;fill-opacity:1;stroke:#5bb4ae;stroke-width:6.2;stroke-dasharray:none;stroke-opacity:1"
       d="M 23.826901,1041.8854 -142.9614,755.96257"
       id="path10" />
    <path
       style="fill:none;fill-opacity:1;stroke:#5bb4ae;stroke-width:6.2;stroke-dasharray:none;stroke-opacity:1"
       d="M -64.982456,625.99766 307.58363,708.30877"
       id="path11" />
    <path
       style="fill:none;fill-opacity:1;stroke:#5bb4ae;stroke-width:6.2;stroke-dasharray:none;stroke-opacity:1"
       d="M 476.53801,578.34386 103.97193,842.60585"
       id="path12" />
    <path
       style="fill:none;fill-opacity:1;stroke:#5bb4ae;stroke-width:6.2;stroke-dasharray:none;stroke-opacity:1"
       d="m 103.97193,840.43977 c 0,0 0,0 -132.130994,394.22693 L 433.21637,1323.476 697.47836,1264.9918 658.48889,972.57076 493.86667,574.0117 914.08655,593.50643 658.48889,976.90292"
       id="path13" />
    <path
       style="fill:none;fill-opacity:1;stroke:#5bb4ae;stroke-width:6.2;stroke-dasharray:none;stroke-opacity:1"
       d="M 604.33684,574.0117 387.72865,424.55205 285.92281,285.92281 439.71462,361.73567 766.79298,578.34386"
       id="path14" />
    <path
       style="fill:none;fill-opacity:1;stroke:#5bb4ae;stroke-width:6.2;stroke-dasharray:none;stroke-opacity:1"
       d="m 288.08889,283.75673 c 123.46667,99.63976 123.46667,99.63976 123.46667,99.63976 l 4.33216,-2.16608"
       id="path15" />
    <path
       style="fill:none;fill-opacity:1;stroke:#5bb4ae;stroke-width:6.2;stroke-dasharray:none;stroke-opacity:1"
       d="m 383.39649,411.55556 c 56.31813,-45.48772 56.31813,-45.48772 56.31813,-45.48772 h -2.16608"
       id="path16" />
    <path
       style="fill:none;fill-opacity:1;stroke:#5bb4ae;stroke-width:6.2;stroke-dasharray:none;stroke-opacity:1"
       d="m -28.159064,1238.9988 c 90.975438,236.103 90.975438,236.103 90.975438,236.103 L -216.60819,1275.8222 c 0,0 -136.46316,-54.152 -136.46316,-56.3181 0,-2.1661 0,-2.1661 0,-2.1661 0,0 110.47018,125.6328 106.13802,123.4667 -4.33217,-2.1661 379.06432,301.0854 379.06432,301.0854 0,0 49.81989,140.7953 47.65381,138.6292 -2.16609,-2.1661 -2.16609,-2.1661 -2.16609,-2.1661 l 253.43158,-457.0433 h -2.16608"
       id="path17" />
    <path
       style="fill:none;fill-opacity:1;stroke:#5bb4ae;stroke-width:6.2;stroke-dasharray:none;stroke-opacity:1"
       d="m 474.37193,1312.6456 244.76725,262.0959 173.28655,60.6503 -190.6152,-236.1029 292.42105,155.9579 -181.95088,-266.4281 227.4386,101.8059 -153.79181,-153.7919 275.09241,114.8024 -210.10996,-220.9404 -283.75672,-121.3005"
       id="path18" />
    <path
       style="fill:none;fill-opacity:1;stroke:#5bb4ae;stroke-width:6.2;stroke-dasharray:none;stroke-opacity:1"
       d="m 677.98363,1139.3591 277.25848,-8.6644 -4.33217,2.1661"
       id="path19" />
    <path
       style="fill:none;fill-opacity:1;stroke:#5bb4ae;stroke-width:6.2;stroke-dasharray:none;stroke-opacity:1"
       d="m 569.67953,1295.317 151.62573,268.5941"
       id="path20" />
  </g>
</svg>
